<svg width="56" height="56" viewBox="0 0 56 56" fill="none" xmlns="http://www.w3.org/2000/svg">
<g id="Adicionar">
<path id="Vector" d="M56 28C56 30.2091 54.2091 32 52 32H36C33.7909 32 32 33.7909 32 36V52C32 54.2091 30.2091 56 28 56C25.7909 56 24 54.2091 24 52V36C24 33.7909 22.2091 32 20 32H4C1.79086 32 0 30.2091 0 28C0 25.7909 1.79086 24 4 24H20C22.2091 24 24 22.2091 24 20V4C24 1.79086 25.7909 0 28 0C30.2091 0 32 1.79086 32 4V20C32 22.2091 33.7909 24 36 24H52C54.2091 24 56 25.7909 56 28Z" fill="#FF1A66"/>
</g>
</svg>
