<svg width="76" height="39" viewBox="0 0 76 39" fill="none" xmlns="http://www.w3.org/2000/svg">
<g filter="url(#filter0_d_259_1867)">
<rect x="6.24121" y="2" width="28" height="28" rx="12" fill="white" shape-rendering="crispEdges"/>
<path d="M20.7904 23.9209C20.346 24.1122 19.8127 23.9448 19.6083 23.5462L17.6707 19.7672L15.4399 21.3777C15.2888 21.4893 15.1021 21.5531 14.8888 21.5531C14.6531 21.5531 14.427 21.4691 14.2603 21.3196C14.0936 21.17 14 20.9673 14 20.7558V8.79724C14 8.5858 14.0936 8.38302 14.2603 8.23351C14.427 8.08399 14.6531 8 14.8888 8C15.1021 8 15.3065 8.07175 15.4576 8.18336L15.4665 8.17539L25.6788 15.8608C26.061 16.1478 26.1054 16.65 25.7943 16.9849C25.661 17.1284 25.4744 17.2241 25.2877 17.2559L22.4791 17.7502L24.4345 21.5212C24.6656 21.9198 24.4523 22.3902 24.0079 22.5735L20.7904 23.9209Z" fill="#FF1A66"/>
</g>
<path d="M43.8612 20.144C43.0132 20.144 42.2852 19.964 41.6772 19.604C41.0692 19.236 40.6012 18.728 40.2732 18.08C39.9452 17.424 39.7812 16.668 39.7812 15.812C39.7812 14.956 39.9452 14.2 40.2732 13.544C40.6012 12.888 41.0692 12.376 41.6772 12.008C42.2852 11.64 43.0132 11.456 43.8612 11.456C44.8692 11.456 45.6932 11.708 46.3332 12.212C46.9812 12.708 47.3852 13.408 47.5452 14.312H45.8532C45.7492 13.856 45.5252 13.5 45.1812 13.244C44.8452 12.98 44.3972 12.848 43.8372 12.848C43.0612 12.848 42.4532 13.112 42.0132 13.64C41.5732 14.168 41.3532 14.892 41.3532 15.812C41.3532 16.732 41.5732 17.456 42.0132 17.984C42.4532 18.504 43.0612 18.764 43.8372 18.764C44.3972 18.764 44.8452 18.644 45.1812 18.404C45.5252 18.156 45.7492 17.816 45.8532 17.384H47.5452C47.3852 18.248 46.9812 18.924 46.3332 19.412C45.6932 19.9 44.8692 20.144 43.8612 20.144ZM48.8689 20V11.36H50.4049V20H48.8689ZM52.8023 13.124C52.5223 13.124 52.2903 13.04 52.1063 12.872C51.9303 12.704 51.8423 12.492 51.8423 12.236C51.8423 11.98 51.9303 11.772 52.1063 11.612C52.2903 11.444 52.5223 11.36 52.8023 11.36C53.0823 11.36 53.3103 11.444 53.4863 11.612C53.6703 11.772 53.7623 11.98 53.7623 12.236C53.7623 12.492 53.6703 12.704 53.4863 12.872C53.3103 13.04 53.0823 13.124 52.8023 13.124ZM52.0343 20V14.048H53.5703V20H52.0343ZM58.0896 20.144C57.4816 20.144 56.9456 20.012 56.4816 19.748C56.0176 19.484 55.6496 19.116 55.3776 18.644C55.1136 18.172 54.9816 17.632 54.9816 17.024C54.9816 16.416 55.1136 15.876 55.3776 15.404C55.6496 14.932 56.0176 14.564 56.4816 14.3C56.9456 14.036 57.4816 13.904 58.0896 13.904C58.8496 13.904 59.4896 14.104 60.0096 14.504C60.5296 14.896 60.8616 15.44 61.0056 16.136H59.3856C59.3056 15.848 59.1456 15.624 58.9056 15.464C58.6736 15.296 58.3976 15.212 58.0776 15.212C57.6536 15.212 57.2936 15.372 56.9976 15.692C56.7016 16.012 56.5536 16.456 56.5536 17.024C56.5536 17.592 56.7016 18.036 56.9976 18.356C57.2936 18.676 57.6536 18.836 58.0776 18.836C58.3976 18.836 58.6736 18.756 58.9056 18.596C59.1456 18.436 59.3056 18.208 59.3856 17.912H61.0056C60.8616 18.584 60.5296 19.124 60.0096 19.532C59.4896 19.94 58.8496 20.144 58.0896 20.144ZM62.3689 20V11.36H63.9049V16.46L66.0169 14.048H67.8409L65.4049 16.76L68.2369 20H66.3169L63.9049 17.012V20H62.3689ZM71.3562 20.144C70.8282 20.144 70.3642 20.06 69.9642 19.892C69.5642 19.716 69.2442 19.476 69.0042 19.172C68.7642 18.868 68.6202 18.516 68.5722 18.116H70.1202C70.1682 18.348 70.2962 18.548 70.5042 18.716C70.7202 18.876 70.9962 18.956 71.3322 18.956C71.6682 18.956 71.9122 18.888 72.0642 18.752C72.2242 18.616 72.3042 18.46 72.3042 18.284C72.3042 18.028 72.1922 17.856 71.9682 17.768C71.7442 17.672 71.4322 17.58 71.0322 17.492C70.7762 17.436 70.5162 17.368 70.2522 17.288C69.9882 17.208 69.7442 17.108 69.5202 16.988C69.3042 16.86 69.1282 16.7 68.9922 16.508C68.8562 16.308 68.7882 16.064 68.7882 15.776C68.7882 15.248 68.9962 14.804 69.4122 14.444C69.8362 14.084 70.4282 13.904 71.1882 13.904C71.8922 13.904 72.4522 14.068 72.8682 14.396C73.2922 14.724 73.5442 15.176 73.6242 15.752H72.1722C72.0842 15.312 71.7522 15.092 71.1762 15.092C70.8882 15.092 70.6642 15.148 70.5042 15.26C70.3522 15.372 70.2762 15.512 70.2762 15.68C70.2762 15.856 70.3922 15.996 70.6242 16.1C70.8562 16.204 71.1642 16.3 71.5482 16.388C71.9642 16.484 72.3442 16.592 72.6882 16.712C73.0402 16.824 73.3202 16.996 73.5282 17.228C73.7362 17.452 73.8402 17.776 73.8402 18.2C73.8482 18.568 73.7522 18.9 73.5522 19.196C73.3522 19.492 73.0642 19.724 72.6882 19.892C72.3122 20.06 71.8682 20.144 71.3562 20.144Z" fill="#B4ACAD"/>
<defs>
<filter id="filter0_d_259_1867" x="0.741211" y="0" width="39" height="39" filterUnits="userSpaceOnUse" color-interpolation-filters="sRGB">
<feFlood flood-opacity="0" result="BackgroundImageFix"/>
<feColorMatrix in="SourceAlpha" type="matrix" values="0 0 0 0 0 0 0 0 0 0 0 0 0 0 0 0 0 0 127 0" result="hardAlpha"/>
<feOffset dy="3.5"/>
<feGaussianBlur stdDeviation="2.75"/>
<feComposite in2="hardAlpha" operator="out"/>
<feColorMatrix type="matrix" values="0 0 0 0 0 0 0 0 0 0 0 0 0 0 0 0 0 0 0.12 0"/>
<feBlend mode="normal" in2="BackgroundImageFix" result="effect1_dropShadow_259_1867"/>
<feBlend mode="normal" in="SourceGraphic" in2="effect1_dropShadow_259_1867" result="shape"/>
</filter>
</defs>
</svg>
