<svg width="56" height="56" viewBox="0 0 56 56" fill="none" xmlns="http://www.w3.org/2000/svg">
<g filter="url(#filter0_d_710_245)">
<rect x="6" y="1" width="44" height="44" rx="18" fill="#FF1A66" shape-rendering="crispEdges"/>
<path d="M28.0032 27.9C26.6672 27.9 25.3859 27.3838 24.4412 26.4648C23.4964 25.5459 22.9657 24.2996 22.9657 23C22.9657 21.7004 23.4964 20.4541 24.4412 19.5352C25.3859 18.6162 26.6672 18.1 28.0032 18.1C29.3392 18.1 30.6205 18.6162 31.5652 19.5352C32.5099 20.4541 33.0406 21.7004 33.0406 23C33.0406 24.2996 32.5099 25.5459 31.5652 26.4648C30.6205 27.3838 29.3392 27.9 28.0032 27.9ZM39.7792 25.1861C39.1093 24.6735 38.7977 23.8435 38.7977 23C38.7977 22.1308 39.125 21.2784 39.8198 20.7563L41.7339 19.318C42.0073 19.108 42.0793 18.73 41.9066 18.422L39.028 13.578C38.8553 13.27 38.4667 13.144 38.1501 13.27L35.8273 14.1774C35.0417 14.4843 34.1785 14.3577 33.4495 13.9337C32.677 13.4843 32.0553 12.7502 31.9283 11.8656L31.6014 9.588C31.5438 9.252 31.2415 9 30.8817 9H25.1246C24.7648 9 24.4626 9.252 24.405 9.588L24.0781 11.8656C23.9511 12.7502 23.3294 13.4843 22.5569 13.9337C21.8279 14.3577 20.9646 14.4843 20.1791 14.1774L17.8563 13.27C17.5397 13.144 17.151 13.27 16.9783 13.578L14.0998 18.422C13.9127 18.73 13.999 19.108 14.2725 19.318L16.1866 20.7563C16.8814 21.2784 17.2086 22.1308 17.2086 23C17.2086 23.8435 16.897 24.6735 16.2272 25.1861L14.2725 26.682C13.999 26.892 13.9127 27.27 14.0998 27.578L16.9783 32.422C17.151 32.73 17.5397 32.842 17.8563 32.73L20.1654 31.819C20.9576 31.5063 21.8326 31.6409 22.5678 32.0708C23.3346 32.5192 23.9506 33.2464 24.0768 34.1257L24.405 36.412C24.4626 36.748 24.7648 37 25.1246 37H30.8817C31.2415 37 31.5438 36.748 31.6014 36.412L31.9311 34.1145C32.0566 33.2404 32.6649 32.5134 33.4293 32.0711C34.172 31.6412 35.0524 31.5078 35.8506 31.8228L38.1501 32.73C38.4667 32.842 38.8553 32.73 39.028 32.422L41.9066 27.578C42.0793 27.27 42.0073 26.892 41.7339 26.682L39.7792 25.1861Z" fill="#FFF3FA"/>
</g>
<defs>
<filter id="filter0_d_710_245" x="0" y="0" width="56" height="56" filterUnits="userSpaceOnUse" color-interpolation-filters="sRGB">
<feFlood flood-opacity="0" result="BackgroundImageFix"/>
<feColorMatrix in="SourceAlpha" type="matrix" values="0 0 0 0 0 0 0 0 0 0 0 0 0 0 0 0 0 0 127 0" result="hardAlpha"/>
<feOffset dy="5"/>
<feGaussianBlur stdDeviation="3"/>
<feComposite in2="hardAlpha" operator="out"/>
<feColorMatrix type="matrix" values="0 0 0 0 0 0 0 0 0 0 0 0 0 0 0 0 0 0 0.2 0"/>
<feBlend mode="normal" in2="BackgroundImageFix" result="effect1_dropShadow_710_245"/>
<feBlend mode="normal" in="SourceGraphic" in2="effect1_dropShadow_710_245" result="shape"/>
</filter>
</defs>
</svg>
