<svg width="35" height="34" viewBox="0 0 35 34" fill="none" xmlns="http://www.w3.org/2000/svg">
<path id="Vector" d="M31.501 10.0559C31.2547 9.94288 30.9923 9.88527 30.7276 9.88612H30.6999C29.3023 9.91038 27.7348 11.4375 26.9123 13.7472C25.9263 16.5104 26.3802 19.3374 27.9337 20.0642C28.1798 20.1772 28.4419 20.2348 28.7063 20.234C30.1109 20.234 31.6998 18.6979 32.5293 16.3729C33.5084 13.6097 33.0476 10.7827 31.501 10.0559ZM22.4831 20.8387C20.5567 17.1094 19.7252 15.7068 17.5217 15.7068C15.3181 15.7068 14.4797 17.1183 12.5533 20.8387C10.9041 24.0206 7.57108 24.2858 6.73956 26.9883C6.57087 27.4833 6.48615 28.0119 6.4901 28.5445C6.4901 30.7427 7.93141 32.522 9.70533 32.522C11.9089 32.522 14.9093 30.4694 17.5286 30.4694C20.1479 30.4694 23.1344 32.522 25.338 32.522C27.1119 32.522 28.5463 30.7435 28.5463 28.5445C28.5479 28.0113 28.4608 27.4828 28.2899 26.9883C27.4584 24.2761 24.1323 24.0206 22.4831 20.8387ZM13.1222 12.1497C13.215 12.1498 13.3076 12.1417 13.3994 12.1255C15.0077 11.853 16.0117 9.25313 15.6473 6.31693C15.3043 3.54889 13.8643 1.47852 12.3586 1.47852C12.2658 1.47843 12.1731 1.48654 12.0814 1.50277C10.4731 1.77521 9.46904 4.3751 9.83352 7.31129C10.1765 10.0713 11.6164 12.1497 13.1222 12.1497ZM25.2077 7.31129C25.5722 4.3751 24.5681 1.77521 22.9598 1.50277C22.8681 1.48654 22.7754 1.47843 22.6826 1.47852C21.1769 1.47852 19.7397 3.54889 19.396 6.31693C19.0316 9.25313 20.0356 11.853 21.6439 12.1255C21.7357 12.1417 21.8283 12.1498 21.9211 12.1497C23.4269 12.1497 24.8668 10.0713 25.2077 7.31129ZM7.11167 20.0642C8.66315 19.3366 9.11633 16.5071 8.13167 13.7472C7.30292 11.4221 5.7154 9.88612 4.3129 9.88612C4.04847 9.88528 3.78631 9.94288 3.54027 10.0559C1.98879 10.7835 1.53561 13.613 2.52027 16.3729C3.34902 18.6979 4.93654 20.234 6.33904 20.234C6.60346 20.2348 6.86563 20.1772 7.11167 20.0642Z" stroke="#FF1A66" stroke-width="2.58696" stroke-miterlimit="10"/>
</svg>
