<svg width="56" height="56" viewBox="0 0 56 56" fill="none" xmlns="http://www.w3.org/2000/svg">
<g filter="url(#filter0_d_710_219)">
<rect x="6" y="1" width="44" height="44" rx="18" fill="white" shape-rendering="crispEdges"/>
<path d="M14 15C14 14.4477 14.4477 14 15 14H41C41.5523 14 42 14.4477 42 15V31C42 31.5523 41.5523 32 41 32H15C14.4477 32 14 31.5523 14 31V15ZM28 18.5C29.2377 18.5 30.4247 18.9741 31.2998 19.818C32.175 20.6619 32.6667 21.8065 32.6667 23C32.6667 24.1935 32.175 25.3381 31.2998 26.182C30.4247 27.0259 29.2377 27.5 28 27.5C26.7623 27.5 25.5753 27.0259 24.7002 26.182C23.825 25.3381 23.3333 24.1935 23.3333 23C23.3333 21.8065 23.825 20.6619 24.7002 19.818C25.5753 18.9741 26.7623 18.5 28 18.5ZM21.2222 17C20.6699 17 20.2379 17.4604 20.0514 17.9803C19.8988 18.4058 19.6474 18.7969 19.311 19.1213C18.9663 19.4537 18.549 19.7 18.0951 19.846C17.5694 20.015 17.1111 20.4477 17.1111 21V25C17.1111 25.5523 17.5694 25.985 18.0951 26.154C18.549 26.3 18.9663 26.5463 19.311 26.8787C19.6474 27.2031 19.8988 27.5942 20.0514 28.0197C20.2379 28.5396 20.6699 29 21.2222 29H34.7778C35.3301 29 35.7622 28.5396 35.9486 28.0197C36.1012 27.5942 36.3526 27.2031 36.689 26.8787C37.0337 26.5463 37.451 26.3 37.9049 26.154C38.4306 25.985 38.8889 25.5523 38.8889 25V21C38.8889 20.4477 38.4306 20.015 37.9049 19.846C37.451 19.7 37.0337 19.4537 36.689 19.1213C36.3526 18.7969 36.1012 18.4058 35.9486 17.9803C35.7622 17.4604 35.3301 17 34.7778 17H21.2222Z" fill="#FF1A66"/>
</g>
<defs>
<filter id="filter0_d_710_219" x="0" y="0" width="56" height="56" filterUnits="userSpaceOnUse" color-interpolation-filters="sRGB">
<feFlood flood-opacity="0" result="BackgroundImageFix"/>
<feColorMatrix in="SourceAlpha" type="matrix" values="0 0 0 0 0 0 0 0 0 0 0 0 0 0 0 0 0 0 127 0" result="hardAlpha"/>
<feOffset dy="5"/>
<feGaussianBlur stdDeviation="3"/>
<feComposite in2="hardAlpha" operator="out"/>
<feColorMatrix type="matrix" values="0 0 0 0 0 0 0 0 0 0 0 0 0 0 0 0 0 0 0.2 0"/>
<feBlend mode="normal" in2="BackgroundImageFix" result="effect1_dropShadow_710_219"/>
<feBlend mode="normal" in="SourceGraphic" in2="effect1_dropShadow_710_219" result="shape"/>
</filter>
</defs>
</svg>
