<svg width="36" height="36" viewBox="0 0 36 36" fill="none" xmlns="http://www.w3.org/2000/svg">
<path id="Vector" d="M34.2112 9.94688C33.9256 9.81581 33.6213 9.74901 33.3144 9.75H33.2823C31.6615 9.77813 29.8438 11.5491 28.8899 14.2275C27.7464 17.4319 28.2728 20.7103 30.0744 21.5531C30.3597 21.6842 30.6637 21.751 30.9704 21.75C32.5992 21.75 34.4418 19.9688 35.4037 17.2725C36.5391 14.0681 36.0048 10.7897 34.2112 9.94688ZM23.7535 22.4513C21.5196 18.1266 20.5553 16.5 17.9999 16.5C15.4445 16.5 14.4722 18.1369 12.2383 22.4513C10.3258 26.1413 6.46058 26.4487 5.4963 29.5828C5.30067 30.1569 5.20242 30.7698 5.20701 31.3875C5.20701 33.9366 6.87844 36 8.93559 36C11.491 36 14.9704 33.6197 18.0079 33.6197C21.0454 33.6197 24.5088 36 27.0642 36C29.1214 36 30.7848 33.9375 30.7848 31.3875C30.7866 30.7692 30.6856 30.1563 30.4874 29.5828C29.5231 26.4375 25.666 26.1413 23.7535 22.4513ZM12.898 12.375C13.0056 12.3751 13.1131 12.3657 13.2194 12.3469C15.0845 12.0309 16.2489 9.01594 15.8262 5.61094C15.4285 2.40094 13.7586 8.16762e-07 12.0125 8.16762e-07C11.9049 -0.000100917 11.7974 0.00930124 11.691 0.0281261C9.82595 0.344064 8.66157 3.35906 9.08425 6.76406C9.48202 9.96469 11.1518 12.375 12.898 12.375ZM26.9131 6.76406C27.3358 3.35906 26.1714 0.344064 24.3063 0.0281261C24.2 0.00930124 24.0925 -0.000100917 23.9849 8.16762e-07C22.2388 8.16762e-07 20.5721 2.40094 20.1736 5.61094C19.7509 9.01594 20.9153 12.0309 22.7804 12.3469C22.8867 12.3657 22.9942 12.3751 23.1018 12.375C24.848 12.375 26.5178 9.96469 26.9131 6.76406ZM5.92781 21.5531C7.72702 20.7094 8.25255 17.4281 7.11067 14.2275C6.1496 11.5313 4.30861 9.75 2.68218 9.75C2.37554 9.74902 2.07152 9.81582 1.7862 9.94688C-0.0130041 10.7906 -0.538541 14.0719 0.603337 17.2725C1.56441 19.9688 3.4054 21.75 5.03183 21.75C5.33847 21.751 5.64249 21.6842 5.92781 21.5531Z" fill="#FF1A66"/>
</svg>
