<svg width="745" height="245" viewBox="0 0 745 245" fill="none" xmlns="http://www.w3.org/2000/svg">
<rect width="745" height="244.737" rx="12" fill="url(#paint0_linear_259_1830)"/>
<rect x="117.758" y="96.4619" width="8.41129" height="109.691" rx="4.20565" fill="white"/>
<rect x="189.854" y="127.881" width="8.41129" height="78.2719" rx="4.20565" fill="white"/>
<rect x="261.951" y="164.261" width="8.41129" height="41.892" rx="4.20565" fill="white"/>
<rect x="334.048" y="108.037" width="8.41129" height="98.1155" rx="4.20565" fill="white"/>
<rect x="406.145" y="36.9312" width="8.41129" height="169.222" rx="4.20565" fill="white"/>
<rect x="478.242" y="66.6963" width="8.41129" height="139.456" rx="4.20565" fill="white"/>
<rect x="550.338" y="46.853" width="8.41129" height="159.3" rx="4.20565" fill="white"/>
<rect x="622.436" y="108.037" width="8.41129" height="98.1155" rx="4.20565" fill="white"/>
<rect x="694.532" y="151.032" width="8.41129" height="55.121" rx="4.20565" fill="white"/>
<path d="M37.7822 201.554C37.7822 202.368 37.849 202.991 37.9824 203.424C38.1159 203.854 38.3893 204.069 38.8027 204.069C39.2161 204.069 39.4863 203.854 39.6133 203.424C39.7435 202.991 39.8086 202.368 39.8086 201.554C39.8086 200.701 39.7435 200.07 39.6133 199.66C39.4863 199.25 39.2161 199.044 38.8027 199.044C38.3893 199.044 38.1159 199.25 37.9824 199.66C37.849 200.07 37.7822 200.701 37.7822 201.554ZM38.8027 197.897C39.7044 197.897 40.3359 198.214 40.6973 198.849C41.0618 199.484 41.2441 200.386 41.2441 201.554C41.2441 202.723 41.0618 203.623 40.6973 204.254C40.3359 204.886 39.7044 205.202 38.8027 205.202C37.901 205.202 37.2679 204.886 36.9033 204.254C36.542 203.623 36.3613 202.723 36.3613 201.554C36.3613 200.386 36.542 199.484 36.9033 198.849C37.2679 198.214 37.901 197.897 38.8027 197.897Z" fill="white"/>
<path d="M36.7422 168.724V167.777C37.1816 167.757 37.4893 167.728 37.665 167.689C37.945 167.627 38.1729 167.503 38.3486 167.318C38.4691 167.191 38.5602 167.022 38.6221 166.81C38.6579 166.683 38.6758 166.589 38.6758 166.527H39.833V173.607H38.4072V168.724H36.7422ZM43.3486 170.135C43.3486 170.949 43.4154 171.572 43.5488 172.005C43.6823 172.435 43.9557 172.65 44.3691 172.65C44.7826 172.65 45.0527 172.435 45.1797 172.005C45.3099 171.572 45.375 170.949 45.375 170.135C45.375 169.282 45.3099 168.651 45.1797 168.241C45.0527 167.831 44.7826 167.625 44.3691 167.625C43.9557 167.625 43.6823 167.831 43.5488 168.241C43.4154 168.651 43.3486 169.282 43.3486 170.135ZM44.3691 166.478C45.2708 166.478 45.9023 166.795 46.2637 167.43C46.6283 168.065 46.8105 168.967 46.8105 170.135C46.8105 171.304 46.6283 172.204 46.2637 172.835C45.9023 173.467 45.2708 173.783 44.3691 173.783C43.4674 173.783 42.8343 173.467 42.4697 172.835C42.1084 172.204 41.9277 171.304 41.9277 170.135C41.9277 168.967 42.1084 168.065 42.4697 167.43C42.8343 166.795 43.4674 166.478 44.3691 166.478ZM48.915 170.135C48.915 170.949 48.9818 171.572 49.1152 172.005C49.2487 172.435 49.5221 172.65 49.9355 172.65C50.349 172.65 50.6191 172.435 50.7461 172.005C50.8763 171.572 50.9414 170.949 50.9414 170.135C50.9414 169.282 50.8763 168.651 50.7461 168.241C50.6191 167.831 50.349 167.625 49.9355 167.625C49.5221 167.625 49.2487 167.831 49.1152 168.241C48.9818 168.651 48.915 169.282 48.915 170.135ZM49.9355 166.478C50.8372 166.478 51.4688 166.795 51.8301 167.43C52.1947 168.065 52.377 168.967 52.377 170.135C52.377 171.304 52.1947 172.204 51.8301 172.835C51.4688 173.467 50.8372 173.783 49.9355 173.783C49.0339 173.783 48.4007 173.467 48.0361 172.835C47.6748 172.204 47.4941 171.304 47.4941 170.135C47.4941 168.967 47.6748 168.065 48.0361 167.43C48.4007 166.795 49.0339 166.478 49.9355 166.478Z" fill="white"/>
<path d="M36.3613 141.637C36.3743 141.129 36.4834 140.665 36.6885 140.245C36.887 139.773 37.3558 139.273 38.0947 138.746C38.736 138.287 39.151 137.958 39.3398 137.76C39.6296 137.451 39.7744 137.112 39.7744 136.744C39.7744 136.445 39.6914 136.196 39.5254 135.997C39.3594 135.799 39.1217 135.699 38.8125 135.699C38.3893 135.699 38.1012 135.857 37.9482 136.173C37.8604 136.355 37.8083 136.645 37.792 137.042H36.4395C36.4622 136.44 36.5713 135.953 36.7666 135.582C37.1377 134.876 37.7969 134.522 38.7441 134.522C39.4928 134.522 40.0885 134.731 40.5312 135.147C40.974 135.561 41.1953 136.109 41.1953 136.793C41.1953 137.317 41.0391 137.783 40.7266 138.189C40.5215 138.46 40.1846 138.761 39.7158 139.093L39.1592 139.488C38.8109 139.736 38.5716 139.915 38.4414 140.025C38.3145 140.136 38.207 140.265 38.1191 140.411H41.21V141.637H36.3613ZM43.3486 138.165C43.3486 138.979 43.4154 139.602 43.5488 140.035C43.6823 140.465 43.9557 140.68 44.3691 140.68C44.7826 140.68 45.0527 140.465 45.1797 140.035C45.3099 139.602 45.375 138.979 45.375 138.165C45.375 137.312 45.3099 136.681 45.1797 136.271C45.0527 135.86 44.7826 135.655 44.3691 135.655C43.9557 135.655 43.6823 135.86 43.5488 136.271C43.4154 136.681 43.3486 137.312 43.3486 138.165ZM44.3691 134.508C45.2708 134.508 45.9023 134.825 46.2637 135.46C46.6283 136.095 46.8105 136.996 46.8105 138.165C46.8105 139.334 46.6283 140.234 46.2637 140.865C45.9023 141.497 45.2708 141.812 44.3691 141.812C43.4674 141.812 42.8343 141.497 42.4697 140.865C42.1084 140.234 41.9277 139.334 41.9277 138.165C41.9277 136.996 42.1084 136.095 42.4697 135.46C42.8343 134.825 43.4674 134.508 44.3691 134.508ZM48.915 138.165C48.915 138.979 48.9818 139.602 49.1152 140.035C49.2487 140.465 49.5221 140.68 49.9355 140.68C50.349 140.68 50.6191 140.465 50.7461 140.035C50.8763 139.602 50.9414 138.979 50.9414 138.165C50.9414 137.312 50.8763 136.681 50.7461 136.271C50.6191 135.86 50.349 135.655 49.9355 135.655C49.5221 135.655 49.2487 135.86 49.1152 136.271C48.9818 136.681 48.915 137.312 48.915 138.165ZM49.9355 134.508C50.8372 134.508 51.4688 134.825 51.8301 135.46C52.1947 136.095 52.377 136.996 52.377 138.165C52.377 139.334 52.1947 140.234 51.8301 140.865C51.4688 141.497 50.8372 141.812 49.9355 141.812C49.0339 141.812 48.4007 141.497 48.0361 140.865C47.6748 140.234 47.4941 139.334 47.4941 138.165C47.4941 136.996 47.6748 136.095 48.0361 135.46C48.4007 134.825 49.0339 134.508 49.9355 134.508Z" fill="white"/>
<path d="M37.6797 107.494C37.6797 107.777 37.7253 108.011 37.8164 108.197C37.9857 108.539 38.2933 108.709 38.7393 108.709C39.0127 108.709 39.2503 108.617 39.4521 108.431C39.6572 108.242 39.7598 107.972 39.7598 107.621C39.7598 107.155 39.571 106.844 39.1934 106.688C38.9785 106.6 38.64 106.556 38.1777 106.556V105.56C38.6302 105.554 38.946 105.51 39.125 105.428C39.4342 105.292 39.5889 105.015 39.5889 104.598C39.5889 104.328 39.5091 104.108 39.3496 103.939C39.1934 103.77 38.972 103.685 38.6855 103.685C38.3568 103.685 38.1143 103.789 37.958 103.998C37.805 104.206 37.7318 104.484 37.7383 104.833H36.4395C36.4525 104.481 36.5127 104.147 36.6201 103.832C36.734 103.555 36.9131 103.299 37.1572 103.065C37.3395 102.899 37.556 102.772 37.8066 102.684C38.0573 102.596 38.3649 102.552 38.7295 102.552C39.4066 102.552 39.9518 102.728 40.3652 103.08C40.7819 103.428 40.9902 103.897 40.9902 104.486C40.9902 104.903 40.8665 105.254 40.6191 105.541C40.4629 105.72 40.3001 105.842 40.1309 105.907C40.2578 105.907 40.4401 106.016 40.6777 106.234C41.0326 106.563 41.21 107.012 41.21 107.582C41.21 108.181 41.0016 108.708 40.585 109.164C40.1715 109.616 39.5579 109.842 38.7441 109.842C37.7415 109.842 37.0449 109.515 36.6543 108.861C36.4492 108.513 36.3353 108.057 36.3125 107.494H37.6797ZM43.3486 106.195C43.3486 107.009 43.4154 107.632 43.5488 108.065C43.6823 108.495 43.9557 108.709 44.3691 108.709C44.7826 108.709 45.0527 108.495 45.1797 108.065C45.3099 107.632 45.375 107.009 45.375 106.195C45.375 105.342 45.3099 104.71 45.1797 104.3C45.0527 103.89 44.7826 103.685 44.3691 103.685C43.9557 103.685 43.6823 103.89 43.5488 104.3C43.4154 104.71 43.3486 105.342 43.3486 106.195ZM44.3691 102.538C45.2708 102.538 45.9023 102.855 46.2637 103.49C46.6283 104.125 46.8105 105.026 46.8105 106.195C46.8105 107.363 46.6283 108.264 46.2637 108.895C45.9023 109.527 45.2708 109.842 44.3691 109.842C43.4674 109.842 42.8343 109.527 42.4697 108.895C42.1084 108.264 41.9277 107.363 41.9277 106.195C41.9277 105.026 42.1084 104.125 42.4697 103.49C42.8343 102.855 43.4674 102.538 44.3691 102.538ZM48.915 106.195C48.915 107.009 48.9818 107.632 49.1152 108.065C49.2487 108.495 49.5221 108.709 49.9355 108.709C50.349 108.709 50.6191 108.495 50.7461 108.065C50.8763 107.632 50.9414 107.009 50.9414 106.195C50.9414 105.342 50.8763 104.71 50.7461 104.3C50.6191 103.89 50.349 103.685 49.9355 103.685C49.5221 103.685 49.2487 103.89 49.1152 104.3C48.9818 104.71 48.915 105.342 48.915 106.195ZM49.9355 102.538C50.8372 102.538 51.4688 102.855 51.8301 103.49C52.1947 104.125 52.377 105.026 52.377 106.195C52.377 107.363 52.1947 108.264 51.8301 108.895C51.4688 109.527 50.8372 109.842 49.9355 109.842C49.0339 109.842 48.4007 109.527 48.0361 108.895C47.6748 108.264 47.4941 107.363 47.4941 106.195C47.4941 105.026 47.6748 104.125 48.0361 103.49C48.4007 102.855 49.0339 102.538 49.9355 102.538Z" fill="white"/>
<path d="M41.2783 76.1729H40.4775V77.6963H39.1152V76.1729H36.3125V74.957L38.915 70.6602H40.4775V75.084H41.2783V76.1729ZM39.1152 75.084V72.0273L37.3428 75.084H39.1152ZM43.3486 74.2246C43.3486 75.0384 43.4154 75.6618 43.5488 76.0947C43.6823 76.5244 43.9557 76.7393 44.3691 76.7393C44.7826 76.7393 45.0527 76.5244 45.1797 76.0947C45.3099 75.6618 45.375 75.0384 45.375 74.2246C45.375 73.3717 45.3099 72.7402 45.1797 72.3301C45.0527 71.9199 44.7826 71.7148 44.3691 71.7148C43.9557 71.7148 43.6823 71.9199 43.5488 72.3301C43.4154 72.7402 43.3486 73.3717 43.3486 74.2246ZM44.3691 70.5674C45.2708 70.5674 45.9023 70.8848 46.2637 71.5195C46.6283 72.1543 46.8105 73.056 46.8105 74.2246C46.8105 75.3932 46.6283 76.2933 46.2637 76.9248C45.9023 77.5563 45.2708 77.8721 44.3691 77.8721C43.4674 77.8721 42.8343 77.5563 42.4697 76.9248C42.1084 76.2933 41.9277 75.3932 41.9277 74.2246C41.9277 73.056 42.1084 72.1543 42.4697 71.5195C42.8343 70.8848 43.4674 70.5674 44.3691 70.5674ZM48.915 74.2246C48.915 75.0384 48.9818 75.6618 49.1152 76.0947C49.2487 76.5244 49.5221 76.7393 49.9355 76.7393C50.349 76.7393 50.6191 76.5244 50.7461 76.0947C50.8763 75.6618 50.9414 75.0384 50.9414 74.2246C50.9414 73.3717 50.8763 72.7402 50.7461 72.3301C50.6191 71.9199 50.349 71.7148 49.9355 71.7148C49.5221 71.7148 49.2487 71.9199 49.1152 72.3301C48.9818 72.7402 48.915 73.3717 48.915 74.2246ZM49.9355 70.5674C50.8372 70.5674 51.4688 70.8848 51.8301 71.5195C52.1947 72.1543 52.377 73.056 52.377 74.2246C52.377 75.3932 52.1947 76.2933 51.8301 76.9248C51.4688 77.5563 50.8372 77.8721 49.9355 77.8721C49.0339 77.8721 48.4007 77.5563 48.0361 76.9248C47.6748 76.2933 47.4941 75.3932 47.4941 74.2246C47.4941 73.056 47.6748 72.1543 48.0361 71.5195C48.4007 70.8848 49.0339 70.5674 49.9355 70.5674Z" fill="white"/>
<path d="M37.6992 43.8315C37.7546 44.1343 37.8604 44.3687 38.0166 44.5347C38.1729 44.6974 38.4007 44.7788 38.7002 44.7788C39.0452 44.7788 39.3073 44.6584 39.4863 44.4175C39.6686 44.1733 39.7598 43.8674 39.7598 43.4995C39.7598 43.1382 39.6751 42.8338 39.5059 42.5864C39.3366 42.3358 39.0729 42.2104 38.7148 42.2104C38.5456 42.2104 38.3991 42.2316 38.2754 42.2739C38.0573 42.3521 37.8929 42.4969 37.7822 42.7085L36.5322 42.6499L37.0303 38.7388H40.9316V39.9204H38.0361L37.7822 41.4683C37.9971 41.3283 38.1647 41.2355 38.2852 41.1899C38.487 41.1151 38.7327 41.0776 39.0225 41.0776C39.6084 41.0776 40.1195 41.2746 40.5557 41.6685C40.9919 42.0623 41.21 42.6353 41.21 43.3872C41.21 44.0415 41 44.6258 40.5801 45.1401C40.1602 45.6545 39.5319 45.9116 38.6953 45.9116C38.0215 45.9116 37.4681 45.731 37.0352 45.3696C36.6022 45.0083 36.3613 44.4956 36.3125 43.8315H37.6992ZM43.3486 42.2544C43.3486 43.0682 43.4154 43.6916 43.5488 44.1245C43.6823 44.5542 43.9557 44.769 44.3691 44.769C44.7826 44.769 45.0527 44.5542 45.1797 44.1245C45.3099 43.6916 45.375 43.0682 45.375 42.2544C45.375 41.4015 45.3099 40.77 45.1797 40.3599C45.0527 39.9497 44.7826 39.7446 44.3691 39.7446C43.9557 39.7446 43.6823 39.9497 43.5488 40.3599C43.4154 40.77 43.3486 41.4015 43.3486 42.2544ZM44.3691 38.5972C45.2708 38.5972 45.9023 38.9146 46.2637 39.5493C46.6283 40.1841 46.8105 41.0858 46.8105 42.2544C46.8105 43.423 46.6283 44.3231 46.2637 44.9546C45.9023 45.5861 45.2708 45.9019 44.3691 45.9019C43.4674 45.9019 42.8343 45.5861 42.4697 44.9546C42.1084 44.3231 41.9277 43.423 41.9277 42.2544C41.9277 41.0858 42.1084 40.1841 42.4697 39.5493C42.8343 38.9146 43.4674 38.5972 44.3691 38.5972ZM48.915 42.2544C48.915 43.0682 48.9818 43.6916 49.1152 44.1245C49.2487 44.5542 49.5221 44.769 49.9355 44.769C50.349 44.769 50.6191 44.5542 50.7461 44.1245C50.8763 43.6916 50.9414 43.0682 50.9414 42.2544C50.9414 41.4015 50.8763 40.77 50.7461 40.3599C50.6191 39.9497 50.349 39.7446 49.9355 39.7446C49.5221 39.7446 49.2487 39.9497 49.1152 40.3599C48.9818 40.77 48.915 41.4015 48.915 42.2544ZM49.9355 38.5972C50.8372 38.5972 51.4688 38.9146 51.8301 39.5493C52.1947 40.1841 52.377 41.0858 52.377 42.2544C52.377 43.423 52.1947 44.3231 51.8301 44.9546C51.4688 45.5861 50.8372 45.9019 49.9355 45.9019C49.0339 45.9019 48.4007 45.5861 48.0361 44.9546C47.6748 44.3231 47.4941 43.423 47.4941 42.2544C47.4941 41.0858 47.6748 40.1841 48.0361 39.5493C48.4007 38.9146 49.0339 38.5972 49.9355 38.5972Z" fill="white"/>
<defs>
<linearGradient id="paint0_linear_259_1830" x1="372.5" y1="0" x2="372.5" y2="244.737" gradientUnits="userSpaceOnUse">
<stop stop-color="#FF1A66"/>
<stop offset="1" stop-color="#99103D"/>
</linearGradient>
</defs>
</svg>
