<svg width="332" height="124" viewBox="0 0 332 124" fill="none" xmlns="http://www.w3.org/2000/svg">
<path d="M264.088 45.2553C263.733 43.8232 263.007 42.4958 262.14 41.2875C261.692 40.6651 261.201 40.0694 260.685 39.4981C248.786 26.3401 230.117 26.3839 214.442 21.0911C206.745 18.4896 206.706 10.2988 200.493 5.25635C190.914 -2.51879 184.229 3.14845 178.55 11.05C174.466 16.7318 170.303 15.7764 163.13 15.8906C153.569 16.0438 155.615 6.18995 148.322 1.57544C141.039 -3.03178 134.772 3.43534 129.553 8.5434C127.423 10.6245 125.382 15.3217 123.257 16.9458C120.508 19.0464 114.358 19.3649 110.975 20.1161C102.404 22.0174 94.9446 24.6334 87.0609 28.4189C81.0542 31.3047 70.813 35.1923 68.3146 41.8831C60.3211 63.2927 131.624 64.7855 144.676 66.0449C157.208 67.2556 170.63 67.2654 183.048 66.7475C190.699 66.429 198.669 66.2783 206.254 65.7507C209.552 65.5221 212.844 65.1939 216.14 64.9411C217.518 64.8341 218.889 64.7271 220.259 64.6177C221.637 64.5083 223.034 64.5083 224.381 64.1995C224.66 64.1363 224.934 64.061 225.21 63.9929C226.765 63.6015 228.365 63.4216 229.953 63.1857C230.393 63.1201 230.83 63.0496 231.268 62.9791C231.723 62.9037 232.178 62.8332 232.638 62.77C233.976 62.5876 235.31 62.381 236.64 62.15C238.187 61.8826 239.729 61.586 241.263 61.2553C242.915 60.9003 244.56 60.5065 246.188 60.0616C247.84 59.6118 249.479 59.1134 251.09 58.5445C252.645 57.9974 254.174 57.3872 255.655 56.6797C257.013 56.0306 258.332 55.3012 259.557 54.4429C260.636 53.6844 261.649 52.8189 262.475 51.8099C263.216 50.903 263.799 49.8722 264.093 48.7538C264.388 47.6354 264.372 46.4052 264.088 45.2553ZM187.62 39.5175C184.938 41.3385 186.838 44.6426 184.82 46.342C181.979 48.7392 179.087 46.4976 179.087 43.4002C179.002 25.2145 207.167 34.7158 203.612 43.0039C200.536 50.1737 193.299 35.6591 187.62 39.5175ZM152.751 44.7034C152.135 45.8971 150.831 48.1825 149.163 46.9474C147.716 45.8752 146.931 43.9278 146.023 42.4666C145.259 41.234 143.995 39.0191 142.231 38.9729C142.162 38.9705 141.627 38.9778 141.556 38.9851C141.116 39.0313 140.607 39.1407 140.201 39.2574C139.612 39.4227 139.093 39.5783 138.521 39.7801C137.36 40.1837 136.656 40.7915 135.654 41.4795C134.946 41.9658 134.309 42.5371 133.598 43.0136C132.885 43.4902 132.072 43.8792 131.202 43.9254C130.292 43.974 129.384 43.602 128.752 42.9845C128.177 42.418 128.054 41.8564 128.139 41.1003C128.259 40.0111 128.865 39.0313 129.606 38.2168C131.414 36.228 134.04 34.9054 136.572 33.9402C138.406 33.2425 140.597 32.4645 142.609 32.5933C147.711 32.924 155.74 38.8951 152.751 44.7034Z" fill="#FF1A66"/>
<path d="M326.586 79.0013C330.232 85.3371 332.119 92.3926 331.994 99.6863C331.24 104.948 330.611 110.447 326.335 114.393C322.563 118.458 317.406 121.208 311.875 122.285C299.424 124.317 290.748 114.393 287.101 104.709C285.214 99.5672 284.963 94.0677 286.597 88.9281C288.485 84.1458 290.998 79.6018 293.89 75.4176C297.036 71.8315 301.311 69.2009 306.088 68.0047C310.363 66.3296 315.393 66.9277 319.04 69.6774C322.182 72.1889 324.824 75.4176 326.586 79.0037V79.0013ZM322.939 102.915C324.197 98.1328 324.072 93.1098 322.436 88.3275C321.177 84.0242 320.298 81.1529 316.022 78.8821C311.747 76.6114 307.722 74.698 303.196 77.8075C299.8 80.9171 297.286 84.8606 295.903 89.0472C294.141 97.5371 295.903 109.134 304.958 113.199C308.982 114.993 313.509 114.872 317.406 113.08C320.423 110.33 322.31 106.744 322.939 102.917V102.915Z" fill="#FF1A66"/>
<path d="M281.954 117.454C282.153 118.215 282.253 119.073 282.253 119.929C282.153 121.548 281.151 123.07 279.55 123.641C278.149 124.307 276.545 124.023 275.446 122.975C274.745 122.214 274.144 121.356 273.743 120.405C273.643 120.121 273.441 119.739 273.242 119.455C272.84 118.694 272.341 117.933 271.94 117.169C271.339 116.313 270.738 115.36 270.237 114.41C269.536 113.077 268.736 111.745 267.933 110.413C266.731 108.604 265.632 106.605 264.829 104.607C264.43 103.559 264.128 102.419 263.829 101.371C263.328 99.562 262.727 97.848 261.926 96.2312C261.525 95.4702 261.026 94.612 260.425 94.612H260.226C259.124 94.8989 259.124 98.0376 259.226 98.9907C259.226 100.418 259.326 101.845 259.425 103.18C259.525 104.322 259.625 105.465 259.625 106.511C259.725 107.653 259.824 108.796 259.927 109.936C260.126 112.411 260.226 114.886 260.126 117.456C260.026 119.17 259.124 120.692 257.623 121.74C256.723 122.122 255.72 122.122 254.92 121.55C252.716 120.408 252.918 117.456 253.117 114.981V112.411C253.017 110.318 253.017 108.127 253.217 106.034L253.316 104.702C253.316 102.608 253.316 100.607 253.117 98.609C252.818 95.8495 252.818 93.0876 253.117 90.3282C253.316 89.662 253.316 88.9958 253.416 88.2349C253.718 84.9989 254.217 80.715 257.221 79.954C260.525 79.193 263.228 82.8083 264.23 84.8092C265.532 87.4739 266.634 90.3306 267.534 92.7108C268.135 94.2327 268.736 95.6623 269.437 96.9946C269.636 97.566 269.938 98.2321 270.237 98.8035C270.337 99.0879 270.536 99.4697 270.638 99.8514C271.14 101.565 272.139 103.182 273.441 104.422C273.842 104.707 274.142 104.801 274.443 104.612C274.945 104.422 275.044 103.469 274.842 101.471C274.743 100.899 274.643 100.328 274.643 99.7565C274.543 98.9007 274.443 98.1373 274.344 97.2815C274.144 94.9962 274.044 92.7132 274.144 90.4278V87.3815C274.044 84.5272 274.344 81.5757 275.144 78.7189C275.845 77.0997 277.346 76.0543 279.149 75.9595H279.248C280.35 75.9595 281.25 76.5308 281.652 77.4814C280.951 81.0043 280.752 84.6196 280.951 88.1425V88.9983C281.051 91.5681 281.051 94.1379 281.051 96.6129V100.42C281.051 102.324 281.151 104.322 281.353 106.226C281.453 107.748 281.552 109.367 281.652 110.986C281.652 112.224 281.652 113.461 281.552 114.699C281.552 115.555 281.652 116.508 281.954 117.458V117.454Z" fill="#FF1A66"/>
<path d="M247.432 109.839C248.033 113.17 249.634 116.882 248.534 120.31C247.432 124.023 242.026 123.833 240.024 120.882C238.421 118.312 239.722 114.218 239.825 111.458C239.825 107.841 239.323 104.223 239.124 100.608C239.024 96.5133 238.124 92.4216 238.022 88.2325C237.822 85.1862 237.822 82.2346 238.122 79.1907C238.321 77.3818 241.625 76.526 243.128 76.6209C246.834 77.0974 246.233 81.1892 246.13 83.8563C246.13 85.9496 246.532 88.1401 246.632 90.2334C246.731 92.6136 246.532 94.9938 246.731 97.374C246.831 99.3725 246.931 101.468 247.233 103.562C247.734 105.752 247.033 107.751 247.432 109.844V109.839Z" fill="#FF1A66"/>
<path d="M218.107 94.2257C216.606 95.6529 215.305 97.1773 214.203 98.8889C213.402 100.793 213.001 102.791 213.1 104.789C213.3 107.075 214.502 109.168 216.304 110.595C217.105 111.451 218.107 112.215 219.207 112.783C220.309 113.165 221.511 113.45 222.61 113.639C223.712 114.021 224.712 114.782 225.814 115.066C227.617 115.543 228.717 114.779 230.42 114.59C231.42 114.495 232.522 114.685 233.322 115.351C234.222 115.922 234.723 116.875 234.823 117.826C234.923 118.587 234.823 120.585 234.123 121.157C232.821 121.728 231.32 121.918 229.816 121.823C227.213 122.012 224.51 121.823 222.007 121.251C219.304 120.49 216.701 119.537 214.197 118.205C212.095 116.873 210.193 115.446 208.29 113.826C206.587 111.923 205.488 109.637 205.086 107.257C204.987 106.209 204.887 105.164 204.987 104.116C204.987 103.165 205.186 102.212 205.588 101.357C205.887 100.406 205.687 99.3581 205.989 98.3102C206.59 96.9779 207.39 95.7404 208.393 94.5977C210.295 92.0279 212.297 89.6477 214.499 87.2675C216.302 84.8873 218.805 83.0784 221.608 81.9358C224.51 80.7931 227.714 80.6034 230.619 81.5565C232.923 82.4123 236.025 83.2705 235.324 86.6013C234.524 90.3138 226.413 86.8858 222.71 89.9321C221.007 91.2645 219.506 92.5968 218.105 94.216L218.107 94.2257Z" fill="#FF1A66"/>
<path d="M186.918 94.2257C185.417 95.6529 184.115 97.1773 183.013 98.8889C182.213 100.793 181.811 102.791 181.911 104.789C182.11 107.075 183.312 109.168 185.115 110.595C185.915 111.451 186.918 112.215 188.017 112.783C189.119 113.165 190.321 113.45 191.421 113.639C192.523 114.021 193.523 114.782 194.625 115.066C196.428 115.543 197.527 114.779 199.23 114.59C200.23 114.495 201.332 114.685 202.133 115.351C203.033 115.922 203.534 116.875 203.634 117.826C203.733 118.587 203.634 120.585 202.933 121.157C201.632 121.728 200.13 121.918 198.627 121.823C196.024 122.012 193.321 121.823 190.817 121.251C188.115 120.49 185.511 119.537 183.008 118.205C180.906 116.873 179.003 115.446 177.101 113.826C175.398 111.923 174.298 109.637 173.897 107.257C173.797 106.209 173.697 105.164 173.797 104.116C173.797 103.165 173.997 102.212 174.398 101.357C174.697 100.406 174.498 99.3581 174.797 98.3102C175.398 96.9779 176.198 95.7404 177.201 94.5977C179.103 92.0279 181.105 89.6477 183.307 87.2675C185.11 84.8873 187.613 83.0784 190.416 81.9358C193.318 80.7931 196.522 80.6034 199.427 81.5565C201.729 82.4123 204.833 83.2705 204.132 86.6013C203.332 90.3138 195.221 86.8858 191.518 89.9321C189.815 91.2645 188.314 92.5968 186.913 94.216L186.918 94.2257Z" fill="#FF1A66"/>
<path d="M169.982 77.7589C171.383 78.9016 172.286 80.5184 172.386 82.2324C172.186 83.8516 171.785 85.3736 171.184 86.8955C170.885 88.5147 170.583 90.1315 170.483 91.7507C170.383 94.7971 170.383 97.9383 170.082 100.985C170.181 103.554 169.683 106.029 168.78 108.41C168.379 109.742 167.98 111.074 167.678 112.407C167.379 113.644 166.678 114.692 165.875 115.548C164.474 117.546 164.374 119.165 161.771 120.498C159.068 121.83 156.163 122.401 153.161 122.117C148.055 121.261 146.354 114.31 145.653 110.885C144.252 103.747 145.152 98.0331 143.551 90.8001C143.352 89.7522 143.15 88.5147 142.951 87.5641C142.851 86.4214 141.848 84.6126 142.15 83.4699C143.551 79.3757 149.86 81.3766 151.261 84.2309C152.264 86.2294 150.361 88.4199 150.361 90.608C150.361 93.3675 150.66 96.1294 151.261 98.8889C152.463 103.839 152.264 112.883 155.767 112.312C160.472 111.835 163.175 106.601 162.275 101.079C162.175 100.032 162.574 96.5111 162.674 95.2736C162.674 92.609 162.474 90.0391 162.073 87.3721C161.873 84.2309 161.572 79.2809 165.075 77.3772C166.277 76.8058 165.377 76.711 166.878 76.6162C168.079 76.711 169.079 77.0927 169.982 77.7589Z" fill="#FF1A66"/>
<path d="M140.823 79.3751C140.122 77.4715 135.517 77.2818 133.814 77.187C131.612 77.187 129.408 77.4715 127.306 78.2349C124.102 78.8062 120.898 79.0907 117.594 78.901C114.39 78.901 111.086 79.2827 107.982 80.1385C107.1 80.3574 106.159 80.5203 105.297 80.778C105.133 80.812 104.969 80.8485 104.814 80.8922C102.175 81.3323 92.0586 81.9425 89.9566 82.7035C86.7525 83.2749 83.5484 83.5593 80.2446 83.3697C77.0405 83.3697 73.7367 83.7489 70.6324 84.6072C68.3284 85.1785 65.6255 85.3682 65.0272 87.8432C64.526 90.3182 66.8299 91.6505 69.3334 91.5557C72.0362 91.4609 73.2381 89.652 75.6418 88.9859C79.4468 88.0352 79.0453 90.413 78.7461 92.7932C78.7461 95.5527 79.1476 98.3146 79.7485 100.979C80.15 104.12 78.9482 106.505 79.1476 109.741C79.3471 112.122 78.2475 114.502 78.5467 116.69C78.8459 117.927 79.1476 119.07 79.5491 120.116C80.0503 121.543 80.3495 121.543 81.9528 121.924C84.4562 122.401 86.4584 122.685 86.6579 120.116C86.6579 118.212 86.6579 116.308 86.4584 114.405C86.259 109.36 85.0571 105.355 85.456 100.311C85.6555 97.3591 86.2564 94.5048 86.3562 91.6481C86.3562 88.6965 89.8594 88.6965 92.5649 88.4121C95.2677 88.1252 103.709 88.361 106.212 87.5052C107.286 87.3205 110.027 86.365 110.626 85.6113C111.342 85.1834 112.081 84.7652 112.994 84.5124C116.799 83.5617 116.397 85.9395 116.098 88.3197C116.098 91.0792 116.5 93.8411 117.098 96.5057C117.499 99.6469 116.298 106.501 116.497 109.737C116.696 112.117 115.597 114.497 115.896 116.685C116.195 117.923 116.497 119.065 116.898 120.111C117.4 121.538 117.699 121.538 119.302 121.92C121.806 122.396 123.808 122.681 124.007 120.111C124.007 118.207 124.007 116.303 123.808 114.4C123.608 109.355 122.407 100.882 122.805 95.8371C123.005 92.8856 123.606 90.0313 123.706 87.1746C123.706 84.223 127.209 84.223 129.912 83.9386C132.615 83.6541 135.218 84.6047 137.721 83.7489C138.823 83.5593 139.723 82.988 140.225 82.227C140.826 81.3712 141.025 80.3233 140.826 79.3703L140.823 79.3751Z" fill="#FF1A66"/>
<path d="M65.3088 105.934C65.9098 108.409 67.7125 110.218 67.3111 113.075C66.9096 116.026 63.3066 119.834 60.8032 116.405C59.4019 113.644 58.6015 110.694 58.5018 107.648C58.3023 106.029 58.6015 102.888 57.2002 101.842C55.4971 100.51 50.3931 101.558 48.3909 101.558C48.4906 104.222 48.2911 106.792 47.8897 109.365C47.6902 110.887 47.5905 112.411 47.2887 113.933C46.7875 116.692 45.3862 122.406 41.4815 122.214C36.1755 121.929 38.8784 114.123 39.2798 111.266C39.8807 107.648 41.0826 104.03 41.883 100.318C42.3842 97.9377 42.6834 95.4627 42.9851 93.0825C42.8854 91.3685 42.9851 89.6569 43.1846 87.9428C43.8852 86.2288 44.4861 84.612 44.9873 82.8032C45.2865 81.0891 45.3888 79.1855 47.0893 78.2348C50.1936 76.5208 53.1957 79.1855 54.8988 81.2812C57.6016 84.612 59.8033 88.3245 61.5064 92.2291C63.2094 93.277 65.5108 92.9901 65.6106 95.2755C65.81 96.8947 65.0096 98.3218 63.5086 99.0828C64.309 101.368 64.9099 103.651 65.3114 105.936L65.3088 105.934ZM54.1956 95.3679C57.7985 94.7017 53.6944 88.7986 51.2907 86.7053C49.5876 88.7986 48.7872 91.4657 49.2884 94.1304C49.8893 95.9392 52.5922 95.7496 54.1956 95.3679Z" fill="#FF1A66"/>
<path d="M20.9527 79.2417C14.2888 83.545 10.0133 90.1215 8.88052 97.6535C8.50207 103.87 13.5345 109.73 19.444 112.839C21.8324 114.035 24.5992 114.274 27.2407 113.795C29.6291 113.675 30.8872 114.154 31.2656 116.306C33.0249 127.424 15.0432 121.207 10.0133 118.219C-4.44723 109.849 -1.30452 92.7521 7.24652 81.7531C9.00582 79.4824 11.0183 77.4498 13.2813 75.5364C15.0406 73.3848 17.1784 71.5905 19.5693 70.2752C22.3361 68.9599 25.3535 68.3618 28.3709 68.3618C30.3834 68.6001 34.2805 70.0345 34.7842 72.067C36.5435 79.7182 25.4788 76.2512 20.9527 79.2417Z" fill="#FF1A66"/>
</svg>
