<svg width="18" height="18" viewBox="0 0 18 18" fill="none" xmlns="http://www.w3.org/2000/svg">
<g id="Vector">
<path id="Vector_2" d="M17.71 4.0425C18.1 3.6525 18.1 3.0025 17.71 2.6325L15.37 0.2925C15 -0.0975 14.35 -0.0975 13.96 0.2925L12.831 1.4154C12.4386 1.80561 12.4378 2.44026 12.829 2.83154L15.87 5.8725M0.292574 13.9597C0.105233 14.1472 0 14.4014 0 14.6664V17.0025C0 17.5548 0.447715 18.0025 1 18.0025H3.33552C3.60089 18.0025 3.85539 17.897 4.04295 17.7093L14.1035 7.63961C14.4938 7.24903 14.4936 6.61611 14.1032 6.22571L11.7674 3.88993C11.3768 3.49928 10.7434 3.49942 10.3529 3.89025L0.292574 13.9597Z" fill="#FF1A66"/>
</g>
</svg>
