<svg width="29" height="28" viewBox="0 0 29 28" fill="none" xmlns="http://www.w3.org/2000/svg">
<path d="M14.0518 24.08C10.5518 24.08 7.45776 22.288 5.65176 19.6C5.69376 16.8 11.2518 15.26 14.0518 15.26C16.8518 15.26 22.4098 16.8 22.4518 19.6C20.6458 22.288 17.5518 24.08 14.0518 24.08ZM14.0518 4.2C15.1657 4.2 16.234 4.6425 17.0216 5.43015C17.8093 6.2178 18.2518 7.28609 18.2518 8.4C18.2518 9.51391 17.8093 10.5822 17.0216 11.3698C16.234 12.1575 15.1657 12.6 14.0518 12.6C12.9378 12.6 11.8696 12.1575 11.0819 11.3698C10.2943 10.5822 9.85176 9.51391 9.85176 8.4C9.85176 7.28609 10.2943 6.2178 11.0819 5.43015C11.8696 4.6425 12.9378 4.2 14.0518 4.2ZM14.0518 0C12.2133 0 10.3927 0.362121 8.69419 1.06569C6.99563 1.76925 5.45228 2.80048 4.15226 4.1005C1.52675 6.72601 0.0517578 10.287 0.0517578 14C0.0517578 17.713 1.52675 21.274 4.15226 23.8995C5.45228 25.1995 6.99563 26.2307 8.69419 26.9343C10.3927 27.6379 12.2133 28 14.0518 28C17.7648 28 21.3257 26.525 23.9513 23.8995C26.5768 21.274 28.0518 17.713 28.0518 14C28.0518 6.258 21.7518 0 14.0518 0Z" fill="#FF1A66"/>
</svg>
