<svg width="140" height="48" viewBox="0 0 140 48" fill="none" xmlns="http://www.w3.org/2000/svg">
<path d="M139.844 32.3865C139.591 31.3617 139.074 30.4117 138.456 29.547C138.138 29.1016 137.788 28.6753 137.42 28.2664C128.948 18.8501 115.655 18.8814 104.493 15.0936C99.0125 13.2319 98.9852 7.37021 94.5607 3.76166C87.74 -1.80255 82.9804 2.25316 78.9364 7.90784C76.0286 11.974 73.0643 11.2902 67.957 11.372C61.1491 11.4816 62.6057 4.42978 57.4128 1.12745C52.2272 -2.16967 47.7644 2.45847 44.0482 6.11401C42.5314 7.60336 41.0785 10.9649 39.5654 12.1271C37.608 13.6304 33.229 13.8583 30.8201 14.3959C24.7168 15.7565 19.4055 17.6287 13.792 20.3377C9.51497 22.403 2.22269 25.1851 0.44377 29.9733C-5.24803 45.2949 45.523 46.3632 54.8163 47.2644C63.7401 48.1309 73.2974 48.1379 82.1392 47.7673C87.587 47.5393 93.2624 47.4315 98.6629 47.0539C101.012 46.8903 103.355 46.6555 105.702 46.4745C106.684 46.3979 107.659 46.3214 108.635 46.2431C109.617 46.1648 110.611 46.1648 111.571 45.9438C111.769 45.8986 111.964 45.8447 112.16 45.7959C113.268 45.5158 114.407 45.3871 115.538 45.2183C115.851 45.1713 116.163 45.1209 116.474 45.0704C116.798 45.0165 117.122 44.966 117.45 44.9208C118.402 44.7903 119.353 44.6424 120.299 44.4771C121.401 44.2857 122.499 44.0734 123.591 43.8368C124.768 43.5828 125.938 43.3009 127.098 42.9825C128.275 42.6606 129.442 42.304 130.589 41.8968C131.696 41.5053 132.785 41.0686 133.839 40.5623C134.806 40.0978 135.745 39.5758 136.617 38.9616C137.386 38.4188 138.107 37.7994 138.695 37.0773C139.223 36.4283 139.638 35.6906 139.847 34.8902C140.057 34.0899 140.046 33.2095 139.844 32.3865ZM85.3948 28.2804C83.4848 29.5835 84.8376 31.9481 83.401 33.1643C81.3781 34.8798 79.3188 33.2756 79.3188 31.059C79.2587 18.0445 99.3129 24.844 96.782 30.7754C94.5916 35.9063 89.4388 25.5191 85.3948 28.2804ZM60.5664 31.9916C60.1276 32.8459 59.199 34.4814 58.0118 33.5975C56.9813 32.8302 56.4223 31.4365 55.7759 30.3909C55.2315 29.5087 54.332 27.9237 53.0757 27.8906C53.0265 27.8889 52.646 27.8941 52.595 27.8993C52.2818 27.9324 51.9195 28.0107 51.63 28.0942C51.2112 28.2125 50.8415 28.3239 50.4337 28.4683C49.607 28.7571 49.1063 29.1921 48.3926 29.6845C47.8882 30.0324 47.4348 30.4413 46.9287 30.7823C46.4207 31.1234 45.8416 31.4017 45.2226 31.4348C44.5744 31.4696 43.928 31.2034 43.4783 30.7615C43.0686 30.3561 42.9812 29.9541 43.0413 29.413C43.1268 28.6336 43.5584 27.9324 44.0864 27.3495C45.3737 25.9263 47.2437 24.9798 49.0462 24.289C50.3518 23.7897 51.9122 23.2329 53.3451 23.3251C56.9776 23.5617 62.6949 27.8349 60.5664 31.9916Z" fill="#FF1A66"/>
</svg>
