<svg width="30" height="30" viewBox="0 0 30 30" fill="none" xmlns="http://www.w3.org/2000/svg">
<path d="M22.5094 8.91888C22.3536 8.83865 22.202 8.75069 22.0551 8.65535C21.6279 8.37383 21.2361 8.04212 20.8884 7.66736C20.0183 6.67505 19.6933 5.66838 19.5736 4.96356H19.5784C19.4784 4.37852 19.5198 4 19.526 4H15.563V19.2741C15.563 19.4792 15.563 19.6819 15.5543 19.8821C15.5543 19.9071 15.5519 19.9301 15.5505 19.9569C15.5505 19.9679 15.5505 19.9794 15.5481 19.9909C15.5481 19.9938 15.5481 19.9967 15.5481 19.9995C15.5063 20.5476 15.33 21.077 15.0348 21.5412C14.7396 22.0054 14.3344 22.3902 13.8549 22.6617C13.3553 22.945 12.7901 23.0936 12.2152 23.0929C10.3688 23.0929 8.87227 21.5922 8.87227 19.7389C8.87227 17.8856 10.3688 16.3849 12.2152 16.3849C12.5647 16.3846 12.9121 16.4394 13.2444 16.5473L13.2492 12.5254C12.2404 12.3955 11.2155 12.4754 10.2391 12.7601C9.26282 13.0448 8.35628 13.528 7.57672 14.1794C6.89365 14.7709 6.31938 15.4768 5.87977 16.2651C5.71248 16.5526 5.0813 17.7078 5.00486 19.5827C4.95679 20.6469 5.27743 21.7494 5.4303 22.205V22.2146C5.52644 22.4829 5.899 23.3986 6.50615 24.1705C6.99574 24.7897 7.57417 25.3336 8.22281 25.7847V25.7751L8.23243 25.7847C10.151 27.0841 12.2782 26.9989 12.2782 26.9989C12.6464 26.984 13.8799 26.9989 15.2808 26.3372C16.8345 25.6036 17.719 24.5107 17.719 24.5107C18.2841 23.8576 18.7334 23.1134 19.0477 22.31C19.4063 21.3704 19.526 20.2434 19.526 19.793V11.6898C19.5741 11.7185 20.2144 12.1406 20.2144 12.1406C20.2144 12.1406 21.1369 12.73 22.5762 13.1138C23.6088 13.3869 25 13.4444 25 13.4444V9.52308C24.5125 9.57578 23.5227 9.42246 22.5094 8.91888Z" fill="#FF1A66"/>
</svg>
