<svg width="20" height="20" viewBox="0 0 20 20" fill="none" xmlns="http://www.w3.org/2000/svg">
<g id="Lixeira">
<path id="Vector" d="M6.80556 0C6.49873 0 6.25 0.248731 6.25 0.555556C6.25 0.86238 6.00127 1.11111 5.69444 1.11111H1C0.447715 1.11111 0 1.55883 0 2.11111V2.70833C0 3.05351 0.279822 3.33333 0.625 3.33333C0.970178 3.33333 1.25 3.61316 1.25 3.95833V17.7778C1.25 18.3671 1.51339 18.9324 1.98223 19.3491C2.45107 19.7659 3.08696 20 3.75 20H16.25C16.913 20 17.5489 19.7659 18.0178 19.3491C18.4866 18.9324 18.75 18.3671 18.75 17.7778V3.95833C18.75 3.61316 19.0298 3.33333 19.375 3.33333C19.7202 3.33333 20 3.05351 20 2.70833V2.11111C20 1.55883 19.5523 1.11111 19 1.11111H14.3056C13.9987 1.11111 13.75 0.86238 13.75 0.555556C13.75 0.248731 13.5013 0 13.1944 0H6.80556ZM3.75 4.33333C3.75 3.78105 4.19772 3.33333 4.75 3.33333H15.25C15.8023 3.33333 16.25 3.78105 16.25 4.33333V16.7778C16.25 17.3301 15.8023 17.7778 15.25 17.7778H4.75C4.19772 17.7778 3.75 17.3301 3.75 16.7778V4.33333ZM7.25 5.55556C6.69772 5.55556 6.25 6.00327 6.25 6.55556V14.5556C6.25 15.1078 6.69772 15.5556 7.25 15.5556H7.75C8.30229 15.5556 8.75 15.1078 8.75 14.5556V6.55556C8.75 6.00327 8.30229 5.55556 7.75 5.55556H7.25ZM12.25 5.55556C11.6977 5.55556 11.25 6.00327 11.25 6.55556V14.5556C11.25 15.1078 11.6977 15.5556 12.25 15.5556H12.75C13.3023 15.5556 13.75 15.1078 13.75 14.5556V6.55556C13.75 6.00327 13.3023 5.55556 12.75 5.55556H12.25Z" fill="#FF1A66"/>
</g>
</svg>
