<svg width="90" height="39" viewBox="0 0 90 39" fill="none" xmlns="http://www.w3.org/2000/svg">
<g filter="url(#filter0_d_259_1857)">
<rect x="6" y="2" width="28" height="28" rx="12" fill="white" shape-rendering="crispEdges"/>
<path d="M23.2 20.4V22H12V20.4C12 20.4 12 17.2 17.6 17.2C23.2 17.2 23.2 20.4 23.2 20.4ZM20.4 12.8C20.4 12.2462 20.2358 11.7049 19.9281 11.2444C19.6204 10.784 19.1831 10.4251 18.6715 10.2132C18.1599 10.0013 17.5969 9.9458 17.0537 10.0538C16.5106 10.1619 16.0117 10.4286 15.6201 10.8201C15.2285 11.2117 14.9618 11.7106 14.8538 12.2538C14.7458 12.7969 14.8012 13.3599 15.0131 13.8715C15.2251 14.3832 15.5839 14.8205 16.0444 15.1281C16.5049 15.4358 17.0462 15.6 17.6 15.6C18.3426 15.6 19.0548 15.305 19.5799 14.7799C20.105 14.2548 20.4 13.5426 20.4 12.8ZM23.152 17.2C23.6438 17.5806 24.0462 18.0644 24.3309 18.6172C24.6157 19.1701 24.7758 19.7786 24.8 20.4V22H28V20.4C28 20.4 28 17.496 23.152 17.2ZM22.4 10C21.8493 9.99698 21.3108 10.1616 20.856 10.472C21.342 11.151 21.6032 11.9651 21.6032 12.8C21.6032 13.635 21.342 14.449 20.856 15.128C21.3108 15.4385 21.8493 15.6031 22.4 15.6C23.1426 15.6 23.8548 15.305 24.3799 14.7799C24.905 14.2548 25.2 13.5426 25.2 12.8C25.2 12.0574 24.905 11.3452 24.3799 10.8201C23.8548 10.295 23.1426 10 22.4 10Z" fill="#FF1A66"/>
</g>
<path d="M43.056 20.144C42.44 20.144 41.884 20.024 41.388 19.784C40.892 19.536 40.496 19.164 40.2 18.668C39.912 18.172 39.768 17.544 39.768 16.784V11.6H41.304V16.796C41.304 17.452 41.46 17.94 41.772 18.26C42.092 18.58 42.532 18.74 43.092 18.74C43.644 18.74 44.08 18.58 44.4 18.26C44.72 17.94 44.88 17.452 44.88 16.796V11.6H46.416V16.784C46.416 17.544 46.264 18.172 45.96 18.668C45.656 19.164 45.248 19.536 44.736 19.784C44.232 20.024 43.672 20.144 43.056 20.144ZM50.408 20.144C49.88 20.144 49.416 20.06 49.016 19.892C48.616 19.716 48.296 19.476 48.056 19.172C47.816 18.868 47.672 18.516 47.624 18.116H49.172C49.22 18.348 49.348 18.548 49.556 18.716C49.772 18.876 50.048 18.956 50.384 18.956C50.72 18.956 50.964 18.888 51.116 18.752C51.276 18.616 51.356 18.46 51.356 18.284C51.356 18.028 51.244 17.856 51.02 17.768C50.796 17.672 50.484 17.58 50.084 17.492C49.828 17.436 49.568 17.368 49.304 17.288C49.04 17.208 48.796 17.108 48.572 16.988C48.356 16.86 48.18 16.7 48.044 16.508C47.908 16.308 47.84 16.064 47.84 15.776C47.84 15.248 48.048 14.804 48.464 14.444C48.888 14.084 49.48 13.904 50.24 13.904C50.944 13.904 51.504 14.068 51.92 14.396C52.344 14.724 52.596 15.176 52.676 15.752H51.224C51.136 15.312 50.804 15.092 50.228 15.092C49.94 15.092 49.716 15.148 49.556 15.26C49.404 15.372 49.328 15.512 49.328 15.68C49.328 15.856 49.444 15.996 49.676 16.1C49.908 16.204 50.216 16.3 50.6 16.388C51.016 16.484 51.396 16.592 51.74 16.712C52.092 16.824 52.372 16.996 52.58 17.228C52.788 17.452 52.892 17.776 52.892 18.2C52.9 18.568 52.804 18.9 52.604 19.196C52.404 19.492 52.116 19.724 51.74 19.892C51.364 20.06 50.92 20.144 50.408 20.144ZM56.4847 20.144C55.7407 20.144 55.1647 19.912 54.7567 19.448C54.3567 18.984 54.1567 18.304 54.1567 17.408V14.048H55.6807V17.264C55.6807 17.776 55.7847 18.168 55.9927 18.44C56.2007 18.712 56.5287 18.848 56.9767 18.848C57.4007 18.848 57.7487 18.696 58.0207 18.392C58.3007 18.088 58.4407 17.664 58.4407 17.12V14.048H59.9767V20H58.6207L58.5007 18.992C58.3167 19.344 58.0487 19.624 57.6967 19.832C57.3527 20.04 56.9487 20.144 56.4847 20.144ZM63.6054 20.144C63.0934 20.144 62.6734 20.064 62.3454 19.904C62.0174 19.736 61.7734 19.516 61.6134 19.244C61.4534 18.972 61.3734 18.672 61.3734 18.344C61.3734 17.792 61.5894 17.344 62.0214 17C62.4534 16.656 63.1014 16.484 63.9654 16.484H65.4774V16.34C65.4774 15.932 65.3614 15.632 65.1294 15.44C64.8974 15.248 64.6094 15.152 64.2654 15.152C63.9534 15.152 63.6814 15.228 63.4494 15.38C63.2174 15.524 63.0734 15.74 63.0174 16.028H61.5174C61.5574 15.596 61.7014 15.22 61.9494 14.9C62.2054 14.58 62.5334 14.336 62.9334 14.168C63.3334 13.992 63.7814 13.904 64.2774 13.904C65.1254 13.904 65.7934 14.116 66.2814 14.54C66.7694 14.964 67.0134 15.564 67.0134 16.34V20H65.7054L65.5614 19.04C65.3854 19.36 65.1374 19.624 64.8174 19.832C64.5054 20.04 64.1014 20.144 63.6054 20.144ZM63.9534 18.944C64.3934 18.944 64.7334 18.8 64.9734 18.512C65.2214 18.224 65.3774 17.868 65.4414 17.444H64.1334C63.7254 17.444 63.4334 17.52 63.2574 17.672C63.0814 17.816 62.9934 17.996 62.9934 18.212C62.9934 18.444 63.0814 18.624 63.2574 18.752C63.4334 18.88 63.6654 18.944 63.9534 18.944ZM63.8454 13.568V12.488L66.5574 11.024V12.272L63.8454 13.568ZM68.4792 20V14.048H69.8472L69.9912 15.164C70.2072 14.78 70.4992 14.476 70.8672 14.252C71.2432 14.02 71.6832 13.904 72.1872 13.904V15.524H71.7552C71.4192 15.524 71.1192 15.576 70.8552 15.68C70.5912 15.784 70.3832 15.964 70.2312 16.22C70.0872 16.476 70.0152 16.832 70.0152 17.288V20H68.4792ZM74.065 13.124C73.785 13.124 73.553 13.04 73.369 12.872C73.193 12.704 73.105 12.492 73.105 12.236C73.105 11.98 73.193 11.772 73.369 11.612C73.553 11.444 73.785 11.36 74.065 11.36C74.345 11.36 74.573 11.444 74.749 11.612C74.933 11.772 75.025 11.98 75.025 12.236C75.025 12.492 74.933 12.704 74.749 12.872C74.573 13.04 74.345 13.124 74.065 13.124ZM73.297 20V14.048H74.833V20H73.297ZM79.2923 20.144C78.7163 20.144 78.1963 20.012 77.7323 19.748C77.2763 19.484 76.9123 19.12 76.6403 18.656C76.3763 18.184 76.2443 17.64 76.2443 17.024C76.2443 16.408 76.3803 15.868 76.6523 15.404C76.9243 14.932 77.2883 14.564 77.7443 14.3C78.2083 14.036 78.7283 13.904 79.3043 13.904C79.8723 13.904 80.3843 14.036 80.8403 14.3C81.3043 14.564 81.6683 14.932 81.9323 15.404C82.2043 15.868 82.3403 16.408 82.3403 17.024C82.3403 17.64 82.2043 18.184 81.9323 18.656C81.6683 19.12 81.3043 19.484 80.8403 19.748C80.3763 20.012 79.8603 20.144 79.2923 20.144ZM79.2923 18.812C79.6923 18.812 80.0403 18.664 80.3363 18.368C80.6323 18.064 80.7803 17.616 80.7803 17.024C80.7803 16.432 80.6323 15.988 80.3363 15.692C80.0403 15.388 79.6963 15.236 79.3043 15.236C78.8963 15.236 78.5443 15.388 78.2483 15.692C77.9603 15.988 77.8163 16.432 77.8163 17.024C77.8163 17.616 77.9603 18.064 78.2483 18.368C78.5443 18.664 78.8923 18.812 79.2923 18.812ZM86.1736 20.144C85.6456 20.144 85.1816 20.06 84.7816 19.892C84.3816 19.716 84.0616 19.476 83.8216 19.172C83.5816 18.868 83.4376 18.516 83.3896 18.116H84.9376C84.9856 18.348 85.1136 18.548 85.3216 18.716C85.5376 18.876 85.8136 18.956 86.1496 18.956C86.4856 18.956 86.7296 18.888 86.8816 18.752C87.0416 18.616 87.1216 18.46 87.1216 18.284C87.1216 18.028 87.0096 17.856 86.7856 17.768C86.5616 17.672 86.2496 17.58 85.8496 17.492C85.5936 17.436 85.3336 17.368 85.0696 17.288C84.8056 17.208 84.5616 17.108 84.3376 16.988C84.1216 16.86 83.9456 16.7 83.8096 16.508C83.6736 16.308 83.6056 16.064 83.6056 15.776C83.6056 15.248 83.8136 14.804 84.2296 14.444C84.6536 14.084 85.2456 13.904 86.0056 13.904C86.7096 13.904 87.2696 14.068 87.6856 14.396C88.1096 14.724 88.3616 15.176 88.4416 15.752H86.9896C86.9016 15.312 86.5696 15.092 85.9936 15.092C85.7056 15.092 85.4816 15.148 85.3216 15.26C85.1696 15.372 85.0936 15.512 85.0936 15.68C85.0936 15.856 85.2096 15.996 85.4416 16.1C85.6736 16.204 85.9816 16.3 86.3656 16.388C86.7816 16.484 87.1616 16.592 87.5056 16.712C87.8576 16.824 88.1376 16.996 88.3456 17.228C88.5536 17.452 88.6576 17.776 88.6576 18.2C88.6656 18.568 88.5696 18.9 88.3696 19.196C88.1696 19.492 87.8816 19.724 87.5056 19.892C87.1296 20.06 86.6856 20.144 86.1736 20.144Z" fill="#B4ACAD"/>
<defs>
<filter id="filter0_d_259_1857" x="0.5" y="0" width="39" height="39" filterUnits="userSpaceOnUse" color-interpolation-filters="sRGB">
<feFlood flood-opacity="0" result="BackgroundImageFix"/>
<feColorMatrix in="SourceAlpha" type="matrix" values="0 0 0 0 0 0 0 0 0 0 0 0 0 0 0 0 0 0 127 0" result="hardAlpha"/>
<feOffset dy="3.5"/>
<feGaussianBlur stdDeviation="2.75"/>
<feComposite in2="hardAlpha" operator="out"/>
<feColorMatrix type="matrix" values="0 0 0 0 0 0 0 0 0 0 0 0 0 0 0 0 0 0 0.12 0"/>
<feBlend mode="normal" in2="BackgroundImageFix" result="effect1_dropShadow_259_1857"/>
<feBlend mode="normal" in="SourceGraphic" in2="effect1_dropShadow_259_1857" result="shape"/>
</filter>
</defs>
</svg>
