<svg width="52" height="51" viewBox="0 0 52 51" fill="none" xmlns="http://www.w3.org/2000/svg">
<g id="Frame 100" filter="url(#filter0_d_280_171)">
<rect x="6" y="2" width="40" height="40" rx="12" fill="white" shape-rendering="crispEdges"/>
<path id="Vector" d="M33 27V29H21V27C21 27 21 23 27 23C33 23 33 27 33 27ZM30 18C30 17.4067 29.8241 16.8266 29.4944 16.3333C29.1648 15.8399 28.6962 15.4554 28.1481 15.2284C27.5999 15.0013 26.9967 14.9419 26.4147 15.0576C25.8328 15.1734 25.2982 15.4591 24.8787 15.8787C24.4591 16.2982 24.1734 16.8328 24.0576 17.4147C23.9419 17.9967 24.0013 18.5999 24.2284 19.1481C24.4554 19.6962 24.8399 20.1648 25.3333 20.4944C25.8266 20.8241 26.4067 21 27 21C27.7956 21 28.5587 20.6839 29.1213 20.1213C29.6839 19.5587 30 18.7957 30 18ZM33.2 23.06C33.7466 23.5643 34.1873 24.1724 34.4964 24.8489C34.8054 25.5254 34.9766 26.2566 35 27V29H38V27C38 27 38 23.55 33.2 23.06ZM32 15C31.6979 15.0002 31.3976 15.0474 31.11 15.14C31.6951 15.979 32.0087 16.9772 32.0087 18C32.0087 19.0228 31.6951 20.021 31.11 20.86C31.3976 20.9526 31.6979 20.9998 32 21C32.7956 21 33.5587 20.6839 34.1213 20.1213C34.6839 19.5587 35 18.7957 35 18C35 17.2044 34.6839 16.4413 34.1213 15.8787C33.5587 15.3161 32.7956 15 32 15ZM22 20H19V17H17V20H14V22H17V25H19V22H22V20Z" fill="#FF1A66"/>
</g>
<defs>
<filter id="filter0_d_280_171" x="0.5" y="0" width="51" height="51" filterUnits="userSpaceOnUse" color-interpolation-filters="sRGB">
<feFlood flood-opacity="0" result="BackgroundImageFix"/>
<feColorMatrix in="SourceAlpha" type="matrix" values="0 0 0 0 0 0 0 0 0 0 0 0 0 0 0 0 0 0 127 0" result="hardAlpha"/>
<feOffset dy="3.5"/>
<feGaussianBlur stdDeviation="2.75"/>
<feComposite in2="hardAlpha" operator="out"/>
<feColorMatrix type="matrix" values="0 0 0 0 0 0 0 0 0 0 0 0 0 0 0 0 0 0 0.12 0"/>
<feBlend mode="normal" in2="BackgroundImageFix" result="effect1_dropShadow_280_171"/>
<feBlend mode="normal" in="SourceGraphic" in2="effect1_dropShadow_280_171" result="shape"/>
</filter>
</defs>
</svg>
