<svg width="214" height="56" viewBox="0 0 214 56" fill="none" xmlns="http://www.w3.org/2000/svg">
<g filter="url(#filter0_d_669_244)">
<rect x="6" y="1" width="44" height="44" rx="18" fill="white" shape-rendering="crispEdges"/>
<path d="M28.0032 27.9C26.6672 27.9 25.3859 27.3838 24.4412 26.4648C23.4964 25.5459 22.9657 24.2996 22.9657 23C22.9657 21.7004 23.4964 20.4541 24.4412 19.5352C25.3859 18.6162 26.6672 18.1 28.0032 18.1C29.3392 18.1 30.6205 18.6162 31.5652 19.5352C32.5099 20.4541 33.0406 21.7004 33.0406 23C33.0406 24.2996 32.5099 25.5459 31.5652 26.4648C30.6205 27.3838 29.3392 27.9 28.0032 27.9ZM39.7792 25.1861C39.1093 24.6735 38.7977 23.8435 38.7977 23C38.7977 22.1308 39.125 21.2784 39.8198 20.7563L41.7339 19.318C42.0073 19.108 42.0793 18.73 41.9066 18.422L39.028 13.578C38.8553 13.27 38.4667 13.144 38.1501 13.27L35.8273 14.1774C35.0417 14.4843 34.1785 14.3577 33.4495 13.9337C32.677 13.4843 32.0553 12.7502 31.9283 11.8656L31.6014 9.588C31.5438 9.252 31.2415 9 30.8817 9H25.1246C24.7648 9 24.4626 9.252 24.405 9.588L24.0781 11.8656C23.9511 12.7502 23.3294 13.4843 22.5569 13.9337C21.8279 14.3577 20.9646 14.4843 20.1791 14.1774L17.8563 13.27C17.5397 13.144 17.151 13.27 16.9783 13.578L14.0998 18.422C13.9127 18.73 13.999 19.108 14.2725 19.318L16.1866 20.7563C16.8814 21.2784 17.2086 22.1308 17.2086 23C17.2086 23.8435 16.897 24.6735 16.2272 25.1861L14.2725 26.682C13.999 26.892 13.9127 27.27 14.0998 27.578L16.9783 32.422C17.151 32.73 17.5397 32.842 17.8563 32.73L20.1654 31.819C20.9576 31.5063 21.8326 31.6409 22.5678 32.0708C23.3346 32.5192 23.9506 33.2464 24.0768 34.1257L24.405 36.412C24.4626 36.748 24.7648 37 25.1246 37H30.8817C31.2415 37 31.5438 36.748 31.6014 36.412L31.9311 34.1145C32.0566 33.2404 32.6649 32.5134 33.4293 32.0711C34.172 31.6412 35.0524 31.5078 35.8506 31.8228L38.1501 32.73C38.4667 32.842 38.8553 32.73 39.028 32.422L41.9066 27.578C42.0793 27.27 42.0073 26.892 41.7339 26.682L39.7792 25.1861Z" fill="#FF1A66"/>
</g>
<path d="M69.68 30.24C68.28 30.24 67.0733 29.94 66.06 29.34C65.0467 28.7267 64.2667 27.88 63.72 26.8C63.1733 25.7067 62.9 24.4467 62.9 23.02C62.9 21.5933 63.1733 20.3333 63.72 19.24C64.2667 18.1467 65.0467 17.2933 66.06 16.68C67.0733 16.0667 68.28 15.76 69.68 15.76C71.3867 15.76 72.78 16.18 73.86 17.02C74.94 17.86 75.6133 19.0467 75.88 20.58H72.92C72.7467 19.8333 72.3867 19.2533 71.84 18.84C71.2933 18.4133 70.5667 18.2 69.66 18.2C68.82 18.2 68.1 18.4 67.5 18.8C66.9 19.1867 66.44 19.74 66.12 20.46C65.8133 21.1667 65.66 22.02 65.66 23.02C65.66 24.0067 65.8133 24.86 66.12 25.58C66.44 26.3 66.9 26.8533 67.5 27.24C68.1 27.6267 68.82 27.82 69.66 27.82C70.5667 27.82 71.2933 27.6267 71.84 27.24C72.3867 26.84 72.7467 26.2867 72.92 25.58H75.88C75.6133 27.0333 74.94 28.1733 73.86 29C72.78 29.8267 71.3867 30.24 69.68 30.24ZM82.8652 30.24C81.9052 30.24 81.0385 30.02 80.2652 29.58C79.5052 29.1267 78.8985 28.5067 78.4452 27.72C77.9918 26.9333 77.7652 26.0333 77.7652 25.02C77.7652 23.98 77.9918 23.0667 78.4452 22.28C78.8985 21.4933 79.5118 20.88 80.2852 20.44C81.0585 20 81.9185 19.78 82.8652 19.78C83.8385 19.78 84.7118 20 85.4852 20.44C86.2585 20.88 86.8652 21.4933 87.3052 22.28C87.7585 23.0667 87.9852 23.98 87.9852 25.02C87.9852 26.0467 87.7585 26.9533 87.3052 27.74C86.8518 28.5133 86.2385 29.1267 85.4652 29.58C84.6918 30.02 83.8252 30.24 82.8652 30.24ZM82.8652 27.9C83.3052 27.9 83.6985 27.7933 84.0452 27.58C84.4052 27.3667 84.6918 27.0467 84.9052 26.62C85.1185 26.18 85.2252 25.64 85.2252 25C85.2252 24.36 85.1185 23.8267 84.9052 23.4C84.6918 22.9733 84.4052 22.6533 84.0452 22.44C83.6985 22.2267 83.3118 22.12 82.8852 22.12C82.4585 22.12 82.0652 22.2267 81.7052 22.44C81.3452 22.6533 81.0585 22.9733 80.8452 23.4C80.6318 23.8267 80.5252 24.3667 80.5252 25.02C80.5252 25.6467 80.6318 26.18 80.8452 26.62C81.0585 27.0467 81.3385 27.3667 81.6852 27.58C82.0452 27.7933 82.4385 27.9 82.8652 27.9ZM90.2727 30V20.02H92.6527L92.8527 21.68C93.1727 21.1067 93.6127 20.6467 94.1727 20.3C94.746 19.9533 95.4327 19.78 96.2327 19.78C97.0593 19.78 97.7593 19.9533 98.3327 20.3C98.906 20.6467 99.346 21.16 99.6527 21.84C99.9593 22.52 100.113 23.3533 100.113 24.34V30H97.4127V24.58C97.4127 23.7667 97.246 23.1467 96.9127 22.72C96.5793 22.28 96.0527 22.06 95.3327 22.06C94.8793 22.06 94.4727 22.1667 94.1127 22.38C93.766 22.5933 93.486 22.9067 93.2727 23.32C93.0727 23.72 92.9727 24.2067 92.9727 24.78V30H90.2727ZM103.017 30V22.28H101.677V20.02H103.017V19.02C103.017 18.18 103.157 17.5133 103.437 17.02C103.731 16.5267 104.137 16.1667 104.657 15.94C105.177 15.7133 105.791 15.6 106.497 15.6H107.617V17.9H106.917C106.491 17.9 106.184 17.9867 105.997 18.16C105.811 18.32 105.717 18.6 105.717 19V20.02H112.117V30H109.417V22.28H105.717V30H103.017ZM110.777 18.66C110.297 18.66 109.897 18.52 109.577 18.24C109.271 17.9467 109.117 17.58 109.117 17.14C109.117 16.7 109.271 16.34 109.577 16.06C109.897 15.7667 110.297 15.62 110.777 15.62C111.284 15.62 111.691 15.7667 111.997 16.06C112.304 16.34 112.457 16.7 112.457 17.14C112.457 17.58 112.304 17.9467 111.997 18.24C111.691 18.52 111.284 18.66 110.777 18.66ZM119.144 34.64C118.184 34.64 117.344 34.52 116.624 34.28C115.917 34.0533 115.364 33.7 114.964 33.22C114.577 32.7533 114.384 32.1733 114.384 31.48C114.384 31.0133 114.504 30.5733 114.744 30.16C114.984 29.7467 115.337 29.3733 115.804 29.04C116.271 28.7067 116.844 28.4133 117.524 28.16L118.524 29.5C117.924 29.7 117.491 29.9467 117.224 30.24C116.957 30.5467 116.824 30.8667 116.824 31.2C116.824 31.5067 116.924 31.7667 117.124 31.98C117.337 32.1933 117.617 32.3467 117.964 32.44C118.311 32.5467 118.704 32.6 119.144 32.6C119.557 32.6 119.917 32.5467 120.224 32.44C120.544 32.3333 120.791 32.1733 120.964 31.96C121.137 31.76 121.224 31.5267 121.224 31.26C121.224 30.9 121.097 30.6067 120.844 30.38C120.604 30.1533 120.111 30.0133 119.364 29.96C118.684 29.9067 118.077 29.8333 117.544 29.74C117.024 29.6333 116.564 29.5133 116.164 29.38C115.777 29.2333 115.444 29.0733 115.164 28.9C114.884 28.7267 114.657 28.5533 114.484 28.38V27.92L116.624 25.62L118.544 26.22L116.044 28.72L116.824 27.4C116.957 27.4933 117.091 27.58 117.224 27.66C117.371 27.7267 117.551 27.7867 117.764 27.84C117.977 27.8933 118.251 27.9467 118.584 28C118.931 28.0533 119.364 28.1 119.884 28.14C120.764 28.22 121.484 28.3867 122.044 28.64C122.617 28.8933 123.037 29.2333 123.304 29.66C123.571 30.0733 123.704 30.5867 123.704 31.2C123.704 31.7867 123.537 32.34 123.204 32.86C122.884 33.3933 122.384 33.82 121.704 34.14C121.037 34.4733 120.184 34.64 119.144 34.64ZM119.164 27.06C118.311 27.06 117.577 26.9 116.964 26.58C116.364 26.2467 115.904 25.8067 115.584 25.26C115.264 24.7 115.104 24.0867 115.104 23.42C115.104 22.74 115.264 22.1267 115.584 21.58C115.904 21.0333 116.371 20.6 116.984 20.28C117.597 19.9467 118.324 19.78 119.164 19.78C120.004 19.78 120.724 19.9467 121.324 20.28C121.937 20.6 122.404 21.0333 122.724 21.58C123.044 22.1267 123.204 22.74 123.204 23.42C123.204 24.0867 123.044 24.7 122.724 25.26C122.404 25.8067 121.937 26.2467 121.324 26.58C120.724 26.9 120.004 27.06 119.164 27.06ZM119.164 25C119.671 25 120.084 24.8667 120.404 24.6C120.724 24.32 120.884 23.9267 120.884 23.42C120.884 22.9267 120.724 22.5467 120.404 22.28C120.084 22.0133 119.671 21.88 119.164 21.88C118.644 21.88 118.217 22.0133 117.884 22.28C117.564 22.5467 117.404 22.9267 117.404 23.42C117.404 23.9267 117.564 24.32 117.884 24.6C118.217 24.8667 118.644 25 119.164 25ZM120.804 21.92L120.344 20.02H124.504V21.62L120.804 21.92ZM130.458 30.24C129.645 30.24 128.945 30.0667 128.358 29.72C127.785 29.3733 127.345 28.8667 127.038 28.2C126.731 27.52 126.578 26.6867 126.578 25.7V20.02H129.278V25.44C129.278 26.2533 129.445 26.88 129.778 27.32C130.111 27.7467 130.638 27.96 131.358 27.96C131.811 27.96 132.211 27.8533 132.558 27.64C132.918 27.4267 133.198 27.12 133.398 26.72C133.598 26.32 133.698 25.8267 133.698 25.24V20.02H136.398V30H134.038L133.818 28.34C133.511 28.9133 133.071 29.3733 132.498 29.72C131.925 30.0667 131.245 30.24 130.458 30.24ZM139.023 30V20.02H141.423L141.683 21.88C141.936 21.44 142.236 21.0667 142.583 20.76C142.943 20.4533 143.356 20.2133 143.823 20.04C144.289 19.8667 144.803 19.78 145.363 19.78V22.64H144.543C144.129 22.64 143.749 22.6867 143.403 22.78C143.056 22.86 142.756 23.0067 142.503 23.22C142.263 23.4333 142.069 23.7267 141.923 24.1C141.789 24.46 141.723 24.9133 141.723 25.46V30H139.023ZM150.529 30.24C149.689 30.24 148.995 30.1067 148.449 29.84C147.902 29.56 147.495 29.1933 147.229 28.74C146.962 28.2867 146.829 27.7867 146.829 27.24C146.829 26.6267 146.982 26.0867 147.289 25.62C147.609 25.1533 148.089 24.7933 148.729 24.54C149.369 24.2733 150.169 24.14 151.129 24.14H153.629C153.629 23.6467 153.555 23.2467 153.409 22.94C153.275 22.62 153.069 22.38 152.789 22.22C152.509 22.06 152.142 21.98 151.689 21.98C151.182 21.98 150.742 22.0933 150.369 22.32C150.009 22.5467 149.789 22.8867 149.709 23.34H147.089C147.155 22.6067 147.395 21.98 147.809 21.46C148.222 20.9267 148.762 20.5133 149.429 20.22C150.109 19.9267 150.869 19.78 151.709 19.78C152.655 19.78 153.469 19.94 154.149 20.26C154.842 20.5667 155.375 21.0267 155.749 21.64C156.135 22.24 156.329 22.9733 156.329 23.84V30H154.049L153.749 28.46C153.602 28.7267 153.429 28.9667 153.229 29.18C153.029 29.3933 152.795 29.58 152.529 29.74C152.262 29.9 151.962 30.02 151.629 30.1C151.295 30.1933 150.929 30.24 150.529 30.24ZM151.169 28.16C151.515 28.16 151.829 28.1 152.109 27.98C152.389 27.8467 152.622 27.6733 152.809 27.46C153.009 27.2333 153.162 26.98 153.269 26.7C153.389 26.42 153.469 26.12 153.509 25.8V25.78H151.429C151.029 25.78 150.695 25.8333 150.429 25.94C150.162 26.0467 149.969 26.1933 149.849 26.38C149.729 26.5533 149.669 26.76 149.669 27C149.669 27.2533 149.729 27.4667 149.849 27.64C149.982 27.8 150.155 27.9267 150.369 28.02C150.595 28.1133 150.862 28.16 151.169 28.16ZM163.688 30.24C162.675 30.24 161.775 30.02 160.988 29.58C160.202 29.1267 159.582 28.5067 159.128 27.72C158.688 26.9333 158.468 26.0333 158.468 25.02C158.468 23.9933 158.688 23.0933 159.128 22.32C159.582 21.5333 160.202 20.9133 160.988 20.46C161.775 20.0067 162.675 19.78 163.688 19.78C164.982 19.78 166.062 20.12 166.928 20.8C167.808 21.4667 168.368 22.3867 168.608 23.56H165.748C165.628 23.1067 165.382 22.7467 165.008 22.48C164.635 22.2133 164.188 22.08 163.668 22.08C163.202 22.08 162.782 22.2 162.408 22.44C162.048 22.6667 161.762 23 161.548 23.44C161.335 23.88 161.228 24.4 161.228 25C161.228 25.4667 161.288 25.88 161.408 26.24C161.542 26.6 161.715 26.9067 161.928 27.16C162.155 27.4133 162.415 27.6067 162.708 27.74C163.002 27.8733 163.322 27.94 163.668 27.94C164.015 27.94 164.328 27.8867 164.608 27.78C164.888 27.66 165.128 27.4867 165.328 27.26C165.528 27.0333 165.668 26.7667 165.748 26.46H168.608C168.368 27.6067 167.808 28.5267 166.928 29.22C166.048 29.9 164.968 30.24 163.688 30.24ZM161.768 35.34V33.8H164.068C164.402 33.8 164.655 33.74 164.828 33.62C165.002 33.5133 165.088 33.34 165.088 33.1C165.088 32.86 165.002 32.6867 164.828 32.58C164.655 32.4733 164.402 32.42 164.068 32.42H162.828V29.92H164.508V31.02C164.948 31.0067 165.362 31.0733 165.748 31.22C166.148 31.3667 166.468 31.5933 166.708 31.9C166.962 32.22 167.088 32.6333 167.088 33.14C167.088 33.6333 166.962 34.04 166.708 34.36C166.468 34.6933 166.148 34.94 165.748 35.1C165.362 35.26 164.935 35.34 164.468 35.34H161.768ZM175.678 30.24C174.718 30.24 173.851 30.02 173.078 29.58C172.318 29.1267 171.711 28.5067 171.258 27.72C170.804 26.9333 170.578 26.0333 170.578 25.02C170.578 23.98 170.804 23.0667 171.258 22.28C171.711 21.4933 172.324 20.88 173.098 20.44C173.871 20 174.731 19.78 175.678 19.78C176.651 19.78 177.524 20 178.298 20.44C179.071 20.88 179.678 21.4933 180.118 22.28C180.571 23.0667 180.798 23.98 180.798 25.02C180.798 26.0467 180.571 26.9533 180.118 27.74C179.664 28.5133 179.051 29.1267 178.278 29.58C177.504 30.02 176.638 30.24 175.678 30.24ZM175.678 27.9C176.118 27.9 176.511 27.7933 176.858 27.58C177.218 27.3667 177.504 27.0467 177.718 26.62C177.931 26.18 178.038 25.64 178.038 25C178.038 24.36 177.931 23.8267 177.718 23.4C177.504 22.9733 177.218 22.6533 176.858 22.44C176.511 22.2267 176.124 22.12 175.698 22.12C175.271 22.12 174.878 22.2267 174.518 22.44C174.158 22.6533 173.871 22.9733 173.658 23.4C173.444 23.8267 173.338 24.3667 173.338 25.02C173.338 25.6467 173.444 26.18 173.658 26.62C173.871 27.0467 174.151 27.3667 174.498 27.58C174.858 27.7933 175.251 27.9 175.678 27.9ZM176.878 18.7C176.491 18.7 176.158 18.6267 175.878 18.48C175.611 18.32 175.364 18.1667 175.138 18.02C174.911 17.86 174.658 17.78 174.378 17.78C174.164 17.78 173.978 17.8533 173.818 18C173.671 18.1467 173.571 18.3733 173.518 18.68H172.098C172.244 17.7867 172.524 17.14 172.938 16.74C173.364 16.3267 173.884 16.12 174.498 16.12C174.884 16.12 175.211 16.2 175.478 16.36C175.744 16.5067 175.991 16.6533 176.218 16.8C176.458 16.9467 176.718 17.02 176.998 17.02C177.224 17.02 177.411 16.9467 177.558 16.8C177.718 16.6533 177.818 16.4267 177.858 16.12H179.278C179.144 17.0133 178.864 17.6667 178.438 18.08C178.024 18.4933 177.504 18.7 176.878 18.7ZM187.945 30.24C186.932 30.24 186.032 30.0267 185.245 29.6C184.472 29.16 183.865 28.5533 183.425 27.78C182.985 27.0067 182.765 26.1133 182.765 25.1C182.765 24.06 182.978 23.14 183.405 22.34C183.845 21.54 184.452 20.9133 185.225 20.46C186.012 20.0067 186.918 19.78 187.945 19.78C188.945 19.78 189.818 20 190.565 20.44C191.312 20.8667 191.898 21.4533 192.325 22.2C192.752 22.9333 192.965 23.7733 192.965 24.72C192.965 24.8533 192.958 25 192.945 25.16C192.945 25.32 192.932 25.4933 192.905 25.68H184.705V24.02H190.225C190.185 23.3933 189.952 22.8933 189.525 22.52C189.112 22.1467 188.592 21.96 187.965 21.96C187.498 21.96 187.072 22.0667 186.685 22.28C186.298 22.48 185.992 22.7933 185.765 23.22C185.538 23.6333 185.425 24.16 185.425 24.8V25.38C185.425 25.9133 185.532 26.38 185.745 26.78C185.958 27.18 186.252 27.4933 186.625 27.72C187.012 27.9333 187.445 28.04 187.925 28.04C188.418 28.04 188.832 27.9333 189.165 27.72C189.498 27.5067 189.745 27.22 189.905 26.86H192.665C192.478 27.5 192.165 28.0733 191.725 28.58C191.285 29.0867 190.745 29.4933 190.105 29.8C189.465 30.0933 188.745 30.24 187.945 30.24ZM199.236 30.24C198.343 30.24 197.556 30.0933 196.876 29.8C196.21 29.5067 195.676 29.1067 195.276 28.6C194.876 28.08 194.643 27.4933 194.576 26.84H197.276C197.33 27.08 197.436 27.3067 197.596 27.52C197.77 27.72 197.99 27.88 198.256 28C198.536 28.12 198.856 28.18 199.216 28.18C199.576 28.18 199.87 28.1333 200.096 28.04C200.323 27.9333 200.49 27.8 200.596 27.64C200.703 27.4667 200.756 27.2867 200.756 27.1C200.756 26.82 200.676 26.6133 200.516 26.48C200.356 26.3333 200.116 26.2133 199.796 26.12C199.49 26.0267 199.123 25.9333 198.696 25.84C198.243 25.7333 197.79 25.6133 197.336 25.48C196.896 25.3467 196.49 25.1733 196.116 24.96C195.743 24.7467 195.443 24.48 195.216 24.16C195.003 23.8267 194.896 23.4133 194.896 22.92C194.896 22.3333 195.056 21.8 195.376 21.32C195.696 20.84 196.163 20.4667 196.776 20.2C197.39 19.92 198.123 19.78 198.976 19.78C200.176 19.78 201.13 20.0533 201.836 20.6C202.556 21.1467 202.976 21.9 203.096 22.86H200.556C200.49 22.54 200.316 22.2933 200.036 22.12C199.77 21.9467 199.41 21.86 198.956 21.86C198.49 21.86 198.13 21.9467 197.876 22.12C197.636 22.2933 197.516 22.5067 197.516 22.76C197.516 22.9467 197.596 23.1133 197.756 23.26C197.93 23.3933 198.17 23.5133 198.476 23.62C198.796 23.7267 199.163 23.8267 199.576 23.92C200.323 24.08 200.983 24.26 201.556 24.46C202.143 24.66 202.61 24.9467 202.956 25.32C203.303 25.6933 203.476 26.24 203.476 26.96C203.476 27.5867 203.303 28.1533 202.956 28.66C202.623 29.1533 202.136 29.54 201.496 29.82C200.87 30.1 200.116 30.24 199.236 30.24Z" fill="#B4ACAD"/>
<defs>
<filter id="filter0_d_669_244" x="0" y="0" width="56" height="56" filterUnits="userSpaceOnUse" color-interpolation-filters="sRGB">
<feFlood flood-opacity="0" result="BackgroundImageFix"/>
<feColorMatrix in="SourceAlpha" type="matrix" values="0 0 0 0 0 0 0 0 0 0 0 0 0 0 0 0 0 0 127 0" result="hardAlpha"/>
<feOffset dy="5"/>
<feGaussianBlur stdDeviation="3"/>
<feComposite in2="hardAlpha" operator="out"/>
<feColorMatrix type="matrix" values="0 0 0 0 0 0 0 0 0 0 0 0 0 0 0 0 0 0 0.2 0"/>
<feBlend mode="normal" in2="BackgroundImageFix" result="effect1_dropShadow_669_244"/>
<feBlend mode="normal" in="SourceGraphic" in2="effect1_dropShadow_669_244" result="shape"/>
</filter>
</defs>
</svg>
