<svg width="29" height="28" viewBox="0 0 29 28" fill="none" xmlns="http://www.w3.org/2000/svg">
<path d="M14.0549 18.9C12.7189 18.9 11.4376 18.3838 10.4929 17.4648C9.54821 16.5459 9.01748 15.2996 9.01748 14C9.01748 12.7004 9.54821 11.4541 10.4929 10.5352C11.4376 9.61625 12.7189 9.1 14.0549 9.1C15.391 9.1 16.6723 9.61625 17.617 10.5352C18.5617 11.4541 19.0924 12.7004 19.0924 14C19.0924 15.2996 18.5617 16.5459 17.617 17.4648C16.6723 18.3838 15.391 18.9 14.0549 18.9ZM25.8309 16.1861C25.1611 15.6735 24.8495 14.8435 24.8495 14C24.8495 13.1308 25.1767 12.2784 25.8716 11.7563L27.7856 10.318C28.0591 10.108 28.131 9.73 27.9583 9.422L25.0798 4.578C24.9071 4.27 24.5185 4.144 24.2018 4.27L21.879 5.17739C21.0935 5.48426 20.2302 5.35773 19.5012 4.93366C18.7287 4.48428 18.107 3.75021 17.98 2.86557L17.6531 0.588C17.5956 0.252 17.2933 0 16.9335 0H11.1764C10.8166 0 10.5143 0.252 10.4567 0.588L10.1298 2.86557C10.0028 3.75021 9.38115 4.48428 8.60864 4.93366C7.87964 5.35773 7.01639 5.48426 6.23083 5.17739L3.90805 4.27C3.59141 4.144 3.20281 4.27 3.03009 4.578L0.151545 9.422C-0.0355607 9.73 0.0507959 10.108 0.324258 10.318L2.23831 11.7563C2.93316 12.2784 3.26038 13.1308 3.26038 14C3.26038 14.8435 2.94879 15.6735 2.27896 16.1861L0.324258 17.682C0.0507959 17.892 -0.0355607 18.27 0.151545 18.578L3.03009 23.422C3.20281 23.73 3.59141 23.842 3.90805 23.73L6.21711 22.819C7.0094 22.5063 7.88432 22.6409 8.6196 23.0708C9.3864 23.5192 10.0024 24.2464 10.1286 25.1257L10.4567 27.412C10.5143 27.748 10.8166 28 11.1764 28H16.9335C17.2933 28 17.5956 27.748 17.6531 27.412L17.9829 25.1145C18.1084 24.2404 18.7167 23.5134 19.481 23.0711C20.2238 22.6412 21.1041 22.5078 21.9024 22.8228L24.2018 23.73C24.5185 23.842 24.9071 23.73 25.0798 23.422L27.9583 18.578C28.131 18.27 28.0591 17.892 27.7856 17.682L25.8309 16.1861Z" fill="#FF1A66"/>
</svg>
