<svg width="50" height="55" viewBox="0 0 50 55" fill="none" xmlns="http://www.w3.org/2000/svg">
<g filter="url(#filter0_d_713_1362)">
<rect width="44" height="44" rx="18" fill="#FF1A66" shape-rendering="crispEdges"/>
<path d="M8 14C8 13.4477 8.44772 13 9 13H35C35.5523 13 36 13.4477 36 14V30C36 30.5523 35.5523 31 35 31H9C8.44771 31 8 30.5523 8 30V14ZM22 17.5C23.2377 17.5 24.4247 17.9741 25.2998 18.818C26.175 19.6619 26.6667 20.8065 26.6667 22C26.6667 23.1935 26.175 24.3381 25.2998 25.182C24.4247 26.0259 23.2377 26.5 22 26.5C20.7623 26.5 19.5753 26.0259 18.7002 25.182C17.825 24.3381 17.3333 23.1935 17.3333 22C17.3333 20.8065 17.825 19.6619 18.7002 18.818C19.5753 17.9741 20.7623 17.5 22 17.5ZM15.2222 16C14.6699 16 14.2379 16.4604 14.0514 16.9803C13.8988 17.4058 13.6474 17.7969 13.311 18.1213C12.9663 18.4537 12.549 18.7 12.0951 18.846C11.5694 19.015 11.1111 19.4477 11.1111 20V24C11.1111 24.5523 11.5694 24.985 12.0951 25.154C12.549 25.3 12.9663 25.5463 13.311 25.8787C13.6474 26.2031 13.8988 26.5942 14.0514 27.0197C14.2379 27.5396 14.6699 28 15.2222 28H28.7778C29.3301 28 29.7622 27.5396 29.9486 27.0197C30.1012 26.5942 30.3526 26.2031 30.689 25.8787C31.0337 25.5463 31.451 25.3 31.9049 25.154C32.4306 24.985 32.8889 24.5523 32.8889 24V20C32.8889 19.4477 32.4306 19.015 31.9049 18.846C31.451 18.7 31.0337 18.4537 30.689 18.1213C30.3526 17.7969 30.1012 17.4058 29.9486 16.9803C29.7622 16.4604 29.3301 16 28.7778 16H15.2222Z" fill="#FFF3FA"/>
</g>
<defs>
<filter id="filter0_d_713_1362" x="-6" y="-1" width="56" height="56" filterUnits="userSpaceOnUse" color-interpolation-filters="sRGB">
<feFlood flood-opacity="0" result="BackgroundImageFix"/>
<feColorMatrix in="SourceAlpha" type="matrix" values="0 0 0 0 0 0 0 0 0 0 0 0 0 0 0 0 0 0 127 0" result="hardAlpha"/>
<feOffset dy="5"/>
<feGaussianBlur stdDeviation="3"/>
<feComposite in2="hardAlpha" operator="out"/>
<feColorMatrix type="matrix" values="0 0 0 0 0 0 0 0 0 0 0 0 0 0 0 0 0 0 0.2 0"/>
<feBlend mode="normal" in2="BackgroundImageFix" result="effect1_dropShadow_713_1362"/>
<feBlend mode="normal" in="SourceGraphic" in2="effect1_dropShadow_713_1362" result="shape"/>
</filter>
</defs>
</svg>
