<svg width="167" height="56" viewBox="0 0 167 56" fill="none" xmlns="http://www.w3.org/2000/svg">
<g filter="url(#filter0_d_669_581)">
<rect x="6" y="1" width="44" height="44" rx="18" fill="#FF1A66" shape-rendering="crispEdges"/>
<path d="M14 15C14 14.4477 14.4477 14 15 14H41C41.5523 14 42 14.4477 42 15V31C42 31.5523 41.5523 32 41 32H15C14.4477 32 14 31.5523 14 31V15ZM28 18.5C29.2377 18.5 30.4247 18.9741 31.2998 19.818C32.175 20.6619 32.6667 21.8065 32.6667 23C32.6667 24.1935 32.175 25.3381 31.2998 26.182C30.4247 27.0259 29.2377 27.5 28 27.5C26.7623 27.5 25.5753 27.0259 24.7002 26.182C23.825 25.3381 23.3333 24.1935 23.3333 23C23.3333 21.8065 23.825 20.6619 24.7002 19.818C25.5753 18.9741 26.7623 18.5 28 18.5ZM21.2222 17C20.6699 17 20.2379 17.4604 20.0514 17.9803C19.8988 18.4058 19.6474 18.7969 19.311 19.1213C18.9663 19.4537 18.549 19.7 18.0951 19.846C17.5694 20.015 17.1111 20.4477 17.1111 21V25C17.1111 25.5523 17.5694 25.985 18.0951 26.154C18.549 26.3 18.9663 26.5463 19.311 26.8787C19.6474 27.2031 19.8988 27.5942 20.0514 28.0197C20.2379 28.5396 20.6699 29 21.2222 29H34.7778C35.3301 29 35.7621 28.5396 35.9486 28.0197C36.1012 27.5942 36.3526 27.2031 36.689 26.8787C37.0337 26.5463 37.451 26.3 37.9049 26.154C38.4306 25.985 38.8889 25.5523 38.8889 25V21C38.8889 20.4477 38.4306 20.015 37.9049 19.846C37.451 19.7 37.0337 19.4537 36.689 19.1213C36.3526 18.7969 36.1012 18.4058 35.9486 17.9803C35.7621 17.4604 35.3301 17 34.7778 17H21.2222Z" fill="#FFF3FA"/>
</g>
<path d="M63.36 29.5V15.5H72.48V17.68H66.06V21.42H71.2V23.54H66.06V29.5H63.36ZM74.4738 29.5V19.52H77.1738V29.5H74.4738ZM75.8338 18.1C75.3404 18.1 74.9404 17.96 74.6338 17.68C74.3271 17.3867 74.1738 17.02 74.1738 16.58C74.1738 16.14 74.3271 15.78 74.6338 15.5C74.9404 15.2067 75.3404 15.06 75.8338 15.06C76.3271 15.06 76.7271 15.2067 77.0338 15.5C77.3538 15.78 77.5138 16.14 77.5138 16.58C77.5138 17.02 77.3538 17.3867 77.0338 17.68C76.7271 17.96 76.3271 18.1 75.8338 18.1ZM79.8625 29.5V19.52H82.2425L82.4425 21.18C82.7625 20.6067 83.2025 20.1467 83.7625 19.8C84.3358 19.4533 85.0225 19.28 85.8225 19.28C86.6492 19.28 87.3492 19.4533 87.9225 19.8C88.4958 20.1467 88.9358 20.66 89.2425 21.34C89.5492 22.02 89.7025 22.8533 89.7025 23.84V29.5H87.0025V24.08C87.0025 23.2667 86.8358 22.6467 86.5025 22.22C86.1692 21.78 85.6425 21.56 84.9225 21.56C84.4692 21.56 84.0625 21.6667 83.7025 21.88C83.3558 22.0933 83.0758 22.4067 82.8625 22.82C82.6625 23.22 82.5625 23.7067 82.5625 24.28V29.5H79.8625ZM95.5872 29.74C94.7472 29.74 94.0539 29.6067 93.5072 29.34C92.9605 29.06 92.5539 28.6933 92.2872 28.24C92.0205 27.7867 91.8872 27.2867 91.8872 26.74C91.8872 26.1267 92.0405 25.5867 92.3472 25.12C92.6672 24.6533 93.1472 24.2933 93.7872 24.04C94.4272 23.7733 95.2272 23.64 96.1872 23.64H98.6872C98.6872 23.1467 98.6139 22.7467 98.4672 22.44C98.3339 22.12 98.1272 21.88 97.8472 21.72C97.5672 21.56 97.2005 21.48 96.7472 21.48C96.2405 21.48 95.8005 21.5933 95.4272 21.82C95.0672 22.0467 94.8472 22.3867 94.7672 22.84H92.1472C92.2139 22.1067 92.4539 21.48 92.8672 20.96C93.2805 20.4267 93.8205 20.0133 94.4872 19.72C95.1672 19.4267 95.9272 19.28 96.7672 19.28C97.7139 19.28 98.5272 19.44 99.2072 19.76C99.9005 20.0667 100.434 20.5267 100.807 21.14C101.194 21.74 101.387 22.4733 101.387 23.34V29.5H99.1072L98.8072 27.96C98.6605 28.2267 98.4872 28.4667 98.2872 28.68C98.0872 28.8933 97.8539 29.08 97.5872 29.24C97.3205 29.4 97.0205 29.52 96.6872 29.6C96.3539 29.6933 95.9872 29.74 95.5872 29.74ZM96.2272 27.66C96.5739 27.66 96.8872 27.6 97.1672 27.48C97.4472 27.3467 97.6805 27.1733 97.8672 26.96C98.0672 26.7333 98.2205 26.48 98.3272 26.2C98.4472 25.92 98.5272 25.62 98.5672 25.3V25.28H96.4872C96.0872 25.28 95.7539 25.3333 95.4872 25.44C95.2205 25.5467 95.0272 25.6933 94.9072 25.88C94.7872 26.0533 94.7272 26.26 94.7272 26.5C94.7272 26.7533 94.7872 26.9667 94.9072 27.14C95.0405 27.3 95.2139 27.4267 95.4272 27.52C95.6539 27.6133 95.9205 27.66 96.2272 27.66ZM103.847 29.5V19.52H106.227L106.427 21.18C106.747 20.6067 107.187 20.1467 107.747 19.8C108.32 19.4533 109.007 19.28 109.807 19.28C110.634 19.28 111.334 19.4533 111.907 19.8C112.48 20.1467 112.92 20.66 113.227 21.34C113.534 22.02 113.687 22.8533 113.687 23.84V29.5H110.987V24.08C110.987 23.2667 110.82 22.6467 110.487 22.22C110.154 21.78 109.627 21.56 108.907 21.56C108.454 21.56 108.047 21.6667 107.687 21.88C107.34 22.0933 107.06 22.4067 106.847 22.82C106.647 23.22 106.547 23.7067 106.547 24.28V29.5H103.847ZM121.052 29.74C120.038 29.74 119.138 29.52 118.352 29.08C117.565 28.6267 116.945 28.0067 116.492 27.22C116.052 26.4333 115.832 25.5333 115.832 24.52C115.832 23.4933 116.052 22.5933 116.492 21.82C116.945 21.0333 117.565 20.4133 118.352 19.96C119.138 19.5067 120.038 19.28 121.052 19.28C122.345 19.28 123.425 19.62 124.292 20.3C125.172 20.9667 125.732 21.8867 125.972 23.06H123.112C122.992 22.6067 122.745 22.2467 122.372 21.98C121.998 21.7133 121.552 21.58 121.032 21.58C120.565 21.58 120.145 21.7 119.772 21.94C119.412 22.1667 119.125 22.5 118.912 22.94C118.698 23.38 118.592 23.9 118.592 24.5C118.592 24.9667 118.652 25.38 118.772 25.74C118.905 26.1 119.078 26.4067 119.292 26.66C119.518 26.9133 119.778 27.1067 120.072 27.24C120.365 27.3733 120.685 27.44 121.032 27.44C121.378 27.44 121.692 27.3867 121.972 27.28C122.252 27.16 122.492 26.9867 122.692 26.76C122.892 26.5333 123.032 26.2667 123.112 25.96H125.972C125.732 27.1067 125.172 28.0267 124.292 28.72C123.412 29.4 122.332 29.74 121.052 29.74ZM133.121 29.74C132.108 29.74 131.208 29.5267 130.421 29.1C129.648 28.66 129.041 28.0533 128.601 27.28C128.161 26.5067 127.941 25.6133 127.941 24.6C127.941 23.56 128.154 22.64 128.581 21.84C129.021 21.04 129.628 20.4133 130.401 19.96C131.188 19.5067 132.094 19.28 133.121 19.28C134.121 19.28 134.994 19.5 135.741 19.94C136.488 20.3667 137.074 20.9533 137.501 21.7C137.928 22.4333 138.141 23.2733 138.141 24.22C138.141 24.3533 138.134 24.5 138.121 24.66C138.121 24.82 138.108 24.9933 138.081 25.18H129.881V23.52H135.401C135.361 22.8933 135.128 22.3933 134.701 22.02C134.288 21.6467 133.768 21.46 133.141 21.46C132.674 21.46 132.248 21.5667 131.861 21.78C131.474 21.98 131.168 22.2933 130.941 22.72C130.714 23.1333 130.601 23.66 130.601 24.3V24.88C130.601 25.4133 130.708 25.88 130.921 26.28C131.134 26.68 131.428 26.9933 131.801 27.22C132.188 27.4333 132.621 27.54 133.101 27.54C133.594 27.54 134.008 27.4333 134.341 27.22C134.674 27.0067 134.921 26.72 135.081 26.36H137.841C137.654 27 137.341 27.5733 136.901 28.08C136.461 28.5867 135.921 28.9933 135.281 29.3C134.641 29.5933 133.921 29.74 133.121 29.74ZM140.372 29.5V19.52H143.072V29.5H140.372ZM141.732 18.1C141.239 18.1 140.839 17.96 140.532 17.68C140.226 17.3867 140.072 17.02 140.072 16.58C140.072 16.14 140.226 15.78 140.532 15.5C140.839 15.2067 141.239 15.06 141.732 15.06C142.226 15.06 142.626 15.2067 142.932 15.5C143.252 15.78 143.412 16.14 143.412 16.58C143.412 17.02 143.252 17.3867 142.932 17.68C142.626 17.96 142.226 18.1 141.732 18.1ZM145.761 29.5V19.52H148.161L148.421 21.38C148.674 20.94 148.974 20.5667 149.321 20.26C149.681 19.9533 150.094 19.7133 150.561 19.54C151.028 19.3667 151.541 19.28 152.101 19.28V22.14H151.281C150.868 22.14 150.488 22.1867 150.141 22.28C149.794 22.36 149.494 22.5067 149.241 22.72C149.001 22.9333 148.808 23.2267 148.661 23.6C148.528 23.96 148.461 24.4133 148.461 24.96V29.5H145.761ZM158.471 29.74C157.511 29.74 156.644 29.52 155.871 29.08C155.111 28.6267 154.504 28.0067 154.051 27.22C153.597 26.4333 153.371 25.5333 153.371 24.52C153.371 23.48 153.597 22.5667 154.051 21.78C154.504 20.9933 155.117 20.38 155.891 19.94C156.664 19.5 157.524 19.28 158.471 19.28C159.444 19.28 160.317 19.5 161.091 19.94C161.864 20.38 162.471 20.9933 162.911 21.78C163.364 22.5667 163.591 23.48 163.591 24.52C163.591 25.5467 163.364 26.4533 162.911 27.24C162.457 28.0133 161.844 28.6267 161.071 29.08C160.297 29.52 159.431 29.74 158.471 29.74ZM158.471 27.4C158.911 27.4 159.304 27.2933 159.651 27.08C160.011 26.8667 160.297 26.5467 160.511 26.12C160.724 25.68 160.831 25.14 160.831 24.5C160.831 23.86 160.724 23.3267 160.511 22.9C160.297 22.4733 160.011 22.1533 159.651 21.94C159.304 21.7267 158.917 21.62 158.491 21.62C158.064 21.62 157.671 21.7267 157.311 21.94C156.951 22.1533 156.664 22.4733 156.451 22.9C156.237 23.3267 156.131 23.8667 156.131 24.52C156.131 25.1467 156.237 25.68 156.451 26.12C156.664 26.5467 156.944 26.8667 157.291 27.08C157.651 27.2933 158.044 27.4 158.471 27.4Z" fill="#500124"/>
<defs>
<filter id="filter0_d_669_581" x="0" y="0" width="56" height="56" filterUnits="userSpaceOnUse" color-interpolation-filters="sRGB">
<feFlood flood-opacity="0" result="BackgroundImageFix"/>
<feColorMatrix in="SourceAlpha" type="matrix" values="0 0 0 0 0 0 0 0 0 0 0 0 0 0 0 0 0 0 127 0" result="hardAlpha"/>
<feOffset dy="5"/>
<feGaussianBlur stdDeviation="3"/>
<feComposite in2="hardAlpha" operator="out"/>
<feColorMatrix type="matrix" values="0 0 0 0 0 0 0 0 0 0 0 0 0 0 0 0 0 0 0.2 0"/>
<feBlend mode="normal" in2="BackgroundImageFix" result="effect1_dropShadow_669_581"/>
<feBlend mode="normal" in="SourceGraphic" in2="effect1_dropShadow_669_581" result="shape"/>
</filter>
</defs>
</svg>
