<svg width="141" height="140" viewBox="0 0 141 140" fill="none" xmlns="http://www.w3.org/2000/svg">
<path d="M70.1797 0C71.263 0 72.3448 0.0260334 73.4266 0.0752072C74.507 0.125828 75.5874 0.201035 76.6649 0.300829C77.7438 0.402069 78.8184 0.52645 79.8901 0.676865C80.9618 0.827279 82.0306 1.00228 83.0951 1.20187C84.1581 1.40146 85.2183 1.62563 86.2712 1.87439C87.3255 2.1246 88.3726 2.39651 89.4125 2.69444C90.4538 2.99238 91.4879 3.31346 92.5134 3.65912C93.5402 4.00478 94.557 4.37359 95.5665 4.76553C96.5746 5.15892 97.574 5.57401 98.5647 6.01368C99.5539 6.45191 100.533 6.91472 101.501 7.39778C102.47 7.88229 103.426 8.38994 104.37 8.91784C105.315 9.44718 106.247 9.99677 107.166 10.5695C108.086 11.1422 108.991 11.7352 109.882 12.3484C110.774 12.9631 111.651 13.5966 112.513 14.2518C113.375 14.9069 114.222 15.5809 115.052 16.2751C115.884 16.9693 116.698 17.6824 117.495 18.4142C118.294 19.146 119.075 19.8952 119.837 20.6632C120.6 21.4312 121.345 22.2165 122.071 23.0192C122.799 23.8219 123.506 24.6405 124.194 25.4764C124.883 26.3109 125.553 27.1628 126.202 28.0291C126.85 28.8955 127.479 29.7763 128.088 30.6715C128.695 31.5682 129.283 32.4765 129.849 33.3992C130.415 34.322 130.959 35.2577 131.482 36.2065C132.004 37.1538 132.505 38.1141 132.984 39.0846C133.461 40.0565 133.916 41.0385 134.349 42.0307C134.781 43.0229 135.191 44.0251 135.577 45.0375C135.963 46.0485 136.326 47.0681 136.664 48.0964C137.003 49.1248 137.318 50.1603 137.609 51.2031C137.9 52.2459 138.166 53.2944 138.409 54.3502C138.65 55.406 138.867 56.4661 139.061 57.5306C139.253 58.5965 139.421 59.6653 139.564 60.7385C139.707 61.8116 139.826 62.8877 139.92 63.9666C140.013 65.0455 140.081 66.1245 140.124 67.2063C140.167 68.2881 140.185 69.3714 140.179 70.4532C140.172 71.5365 140.14 72.6183 140.082 73.6987C140.024 74.7805 139.943 75.8595 139.835 76.937C139.728 78.0144 139.596 79.0876 139.438 80.1593C139.282 81.231 139.1 82.2969 138.893 83.3599C138.686 84.423 138.455 85.4802 138.199 86.5317C137.944 87.5846 137.664 88.6302 137.36 89.6687C137.055 90.7085 136.728 91.7398 136.375 92.7637C136.024 93.7863 135.648 94.8016 135.248 95.8082C134.849 96.8148 134.427 97.8113 133.982 98.7977C133.536 99.7855 133.069 100.76 132.577 101.726C132.087 102.691 131.575 103.644 131.04 104.586C130.505 105.526 129.948 106.454 129.371 107.37C128.792 108.285 128.193 109.188 127.573 110.074C126.954 110.962 126.313 111.836 125.654 112.694C124.993 113.551 124.313 114.393 123.613 115.22C122.914 116.046 122.196 116.856 121.46 117.649C120.722 118.443 119.967 119.218 119.195 119.976C118.421 120.734 117.631 121.474 116.824 122.196C116.017 122.916 115.193 123.619 114.354 124.302C113.514 124.986 112.659 125.648 111.788 126.292C110.917 126.935 110.032 127.559 109.133 128.162C108.233 128.763 107.321 129.345 106.393 129.905C105.466 130.466 104.528 131.004 103.576 131.52C102.624 132.036 101.663 132.531 100.688 133.002C99.713 133.474 98.7281 133.924 97.733 134.349C96.738 134.776 95.7328 135.178 94.719 135.558C93.7051 135.937 92.684 136.293 91.6528 136.625C90.6231 136.958 89.5846 137.266 88.5404 137.55C87.4947 137.833 86.4447 138.093 85.3875 138.328C84.3317 138.563 83.2701 138.775 82.2027 138.96L70.1797 70.0005V0Z" fill="#500124"/>
<path d="M82.2028 138.96C80.972 139.176 79.7354 139.356 78.4945 139.505C77.2536 139.653 76.0098 139.769 74.7631 139.851C73.5149 139.932 72.2668 139.981 71.0172 139.996C69.7676 140.01 68.518 139.993 67.2698 139.941C66.0217 139.889 64.775 139.803 63.5312 139.685C62.2859 139.565 61.0464 139.413 59.8098 139.228C58.5747 139.043 57.3439 138.826 56.1203 138.574C54.8953 138.322 53.679 138.039 52.4699 137.724C51.2608 137.407 50.0604 137.058 48.8701 136.678C47.6798 136.298 46.4996 135.885 45.3324 135.443C44.1638 134.999 43.0082 134.524 41.8642 134.018C40.7216 133.513 39.5935 132.977 38.4784 132.411C37.3648 131.844 36.2656 131.25 35.1838 130.625C34.102 130 33.036 129.347 31.9889 128.664C30.9418 127.983 29.9135 127.274 28.904 126.537C27.8945 125.799 26.9052 125.037 25.9376 124.246C24.9686 123.456 24.0213 122.642 23.0971 121.8C22.1715 120.96 21.2704 120.095 20.3925 119.207C19.5132 118.317 18.6599 117.405 17.8297 116.47C16.9995 115.536 16.1954 114.58 15.4173 113.602C14.6392 112.625 13.8871 111.627 13.1625 110.609C12.4365 109.59 11.7394 108.553 11.0697 107.499C10.4015 106.443 9.76082 105.37 9.14759 104.281C8.53581 103.19 7.95295 102.086 7.40047 100.965C6.84798 99.8438 6.32587 98.7099 5.83413 97.5601C5.34094 96.4117 4.88102 95.2503 4.45003 94.0774C4.02048 92.903 3.62275 91.7185 3.25539 90.5239C2.88947 89.3292 2.55538 88.1259 2.25311 86.9125C1.95228 85.7005 1.68182 84.4798 1.44607 83.2533C1.20888 82.0254 1.00495 80.7932 0.83429 79.5552C0.663627 78.3172 0.527676 77.0748 0.423543 75.8295C0.31941 74.5843 0.248541 73.3361 0.210938 72.088L70.1798 70.001L82.2028 138.96Z" fill="#A8094F"/>
<path d="M0.210817 72.0874C0.161643 70.4213 0.170321 68.7551 0.239743 67.0905C0.309165 65.4243 0.437886 63.764 0.625904 62.108C0.813922 60.452 1.06124 58.8046 1.36641 57.166C1.67157 55.5273 2.03604 53.9017 2.45691 52.2905C2.87923 50.6779 3.35795 49.0827 3.89308 47.5033C4.42821 45.9254 5.01975 44.3678 5.66624 42.8318C6.31418 41.2958 7.01419 39.7859 7.76915 38.2991C8.52412 36.8138 9.33115 35.3559 10.1902 33.927C11.0493 32.4995 11.9576 31.1038 12.9165 29.74C13.8754 28.3761 14.8806 27.0484 15.9349 25.7569C16.9878 24.4653 18.0856 23.2128 19.2281 22.0008C20.3722 20.7874 21.5567 19.6159 22.7831 18.4878C24.0096 17.3597 25.2751 16.2764 26.5782 15.238C27.8828 14.1996 29.222 13.2088 30.596 12.2673C31.9714 11.3243 33.3772 10.432 34.8163 9.59022C36.2539 8.74848 37.7205 7.9588 39.2159 7.22119L70.1796 70.0004L0.210817 72.0874Z" fill="#ED1164"/>
<path d="M39.2158 7.22134C41.6152 6.03827 44.0739 4.99549 46.5919 4.09445C49.1114 3.19197 51.6728 2.43845 54.279 1.83101C56.8838 1.22212 59.516 0.765089 62.1729 0.459921C64.8311 0.153307 67.4967 0 70.1723 0L70.1795 70.0005L39.2158 7.22134Z" fill="#FF9FBA"/>
</svg>
