<svg width="120" height="56" viewBox="0 0 120 56" fill="none" xmlns="http://www.w3.org/2000/svg">
<g filter="url(#filter0_d_669_576)">
<rect x="6" y="1" width="44" height="44" rx="18" fill="white" shape-rendering="crispEdges"/>
<path d="M24.2 35C24.7523 35 25.2 34.5523 25.2 34V27.5294C25.2 26.9771 25.6477 26.5294 26.2 26.5294H29.8C30.3523 26.5294 30.8 26.9771 30.8 27.5294V34C30.8 34.5523 31.2477 35 31.8 35H36.8C37.3523 35 37.8 34.5523 37.8 34V24.7059C37.8 24.1536 38.2477 23.7059 38.8 23.7059H39.4102C40.3246 23.7059 40.7594 22.5799 40.0822 21.9654L28.6721 11.6099C28.2908 11.2639 27.7092 11.2639 27.3279 11.6099L15.9178 21.9654C15.2406 22.5799 15.6754 23.7059 16.5898 23.7059H17.2C17.7523 23.7059 18.2 24.1536 18.2 24.7059V34C18.2 34.5523 18.6477 35 19.2 35H24.2Z" fill="#FF1A66"/>
</g>
<path d="M72.18 30V16H74.88V30H72.18ZM63.36 30V16H66.06V30H63.36ZM65.68 23.94V21.76H72.64V23.94H65.68ZM82.2988 30.24C81.3388 30.24 80.4721 30.02 79.6988 29.58C78.9388 29.1267 78.3321 28.5067 77.8788 27.72C77.4254 26.9333 77.1988 26.0333 77.1988 25.02C77.1988 23.98 77.4254 23.0667 77.8788 22.28C78.3321 21.4933 78.9454 20.88 79.7188 20.44C80.4921 20 81.3521 19.78 82.2988 19.78C83.2721 19.78 84.1454 20 84.9188 20.44C85.6921 20.88 86.2988 21.4933 86.7388 22.28C87.1921 23.0667 87.4188 23.98 87.4188 25.02C87.4188 26.0467 87.1921 26.9533 86.7388 27.74C86.2854 28.5133 85.6721 29.1267 84.8988 29.58C84.1254 30.02 83.2588 30.24 82.2988 30.24ZM82.2988 27.9C82.7388 27.9 83.1321 27.7933 83.4788 27.58C83.8388 27.3667 84.1254 27.0467 84.3388 26.62C84.5521 26.18 84.6588 25.64 84.6588 25C84.6588 24.36 84.5521 23.8267 84.3388 23.4C84.1254 22.9733 83.8388 22.6533 83.4788 22.44C83.1321 22.2267 82.7454 22.12 82.3188 22.12C81.8921 22.12 81.4988 22.2267 81.1388 22.44C80.7788 22.6533 80.4921 22.9733 80.2788 23.4C80.0654 23.8267 79.9588 24.3667 79.9588 25.02C79.9588 25.6467 80.0654 26.18 80.2788 26.62C80.4921 27.0467 80.7721 27.3667 81.1188 27.58C81.4788 27.7933 81.8721 27.9 82.2988 27.9ZM89.7063 30V20.02H92.0863L92.3063 21.36C92.6263 20.8667 93.0463 20.48 93.5663 20.2C94.0996 19.92 94.7129 19.78 95.4063 19.78C95.9129 19.78 96.3663 19.8467 96.7663 19.98C97.1796 20.1 97.5396 20.2933 97.8463 20.56C98.1663 20.8133 98.4263 21.1333 98.6263 21.52C98.9996 20.9733 99.4863 20.5467 100.086 20.24C100.7 19.9333 101.36 19.78 102.066 19.78C102.946 19.78 103.68 19.96 104.266 20.32C104.866 20.6667 105.32 21.18 105.626 21.86C105.933 22.5267 106.086 23.3533 106.086 24.34V30H103.406V24.58C103.406 23.7667 103.246 23.1467 102.926 22.72C102.606 22.28 102.12 22.06 101.466 22.06C101.026 22.06 100.64 22.1667 100.306 22.38C99.9729 22.5933 99.7129 22.9067 99.5263 23.32C99.3396 23.72 99.2463 24.2067 99.2463 24.78V30H96.5663V24.58C96.5663 23.7667 96.4063 23.1467 96.0863 22.72C95.7663 22.28 95.2663 22.06 94.5863 22.06C94.1596 22.06 93.7796 22.1667 93.4463 22.38C93.1263 22.5933 92.8729 22.9067 92.6863 23.32C92.4996 23.72 92.4063 24.2067 92.4063 24.78V30H89.7063ZM113.414 30.24C112.401 30.24 111.501 30.0267 110.714 29.6C109.941 29.16 109.334 28.5533 108.894 27.78C108.454 27.0067 108.234 26.1133 108.234 25.1C108.234 24.06 108.447 23.14 108.874 22.34C109.314 21.54 109.921 20.9133 110.694 20.46C111.481 20.0067 112.387 19.78 113.414 19.78C114.414 19.78 115.287 20 116.034 20.44C116.781 20.8667 117.367 21.4533 117.794 22.2C118.221 22.9333 118.434 23.7733 118.434 24.72C118.434 24.8533 118.427 25 118.414 25.16C118.414 25.32 118.401 25.4933 118.374 25.68H110.174V24.02H115.694C115.654 23.3933 115.421 22.8933 114.994 22.52C114.581 22.1467 114.061 21.96 113.434 21.96C112.967 21.96 112.541 22.0667 112.154 22.28C111.767 22.48 111.461 22.7933 111.234 23.22C111.007 23.6333 110.894 24.16 110.894 24.8V25.38C110.894 25.9133 111.001 26.38 111.214 26.78C111.427 27.18 111.721 27.4933 112.094 27.72C112.481 27.9333 112.914 28.04 113.394 28.04C113.887 28.04 114.301 27.9333 114.634 27.72C114.967 27.5067 115.214 27.22 115.374 26.86H118.134C117.947 27.5 117.634 28.0733 117.194 28.58C116.754 29.0867 116.214 29.4933 115.574 29.8C114.934 30.0933 114.214 30.24 113.414 30.24Z" fill="#B4ACAD"/>
<defs>
<filter id="filter0_d_669_576" x="0" y="0" width="56" height="56" filterUnits="userSpaceOnUse" color-interpolation-filters="sRGB">
<feFlood flood-opacity="0" result="BackgroundImageFix"/>
<feColorMatrix in="SourceAlpha" type="matrix" values="0 0 0 0 0 0 0 0 0 0 0 0 0 0 0 0 0 0 127 0" result="hardAlpha"/>
<feOffset dy="5"/>
<feGaussianBlur stdDeviation="3"/>
<feComposite in2="hardAlpha" operator="out"/>
<feColorMatrix type="matrix" values="0 0 0 0 0 0 0 0 0 0 0 0 0 0 0 0 0 0 0.2 0"/>
<feBlend mode="normal" in2="BackgroundImageFix" result="effect1_dropShadow_669_576"/>
<feBlend mode="normal" in="SourceGraphic" in2="effect1_dropShadow_669_576" result="shape"/>
</filter>
</defs>
</svg>
