<svg width="21" height="20" viewBox="0 0 21 20" fill="none" xmlns="http://www.w3.org/2000/svg">
<path d="M18.6803 16.4301L15.0227 12.7725C15.9033 11.6002 16.3786 10.1733 16.377 8.70708C16.377 4.96197 13.3301 1.91504 9.585 1.91504C5.8399 1.91504 2.79297 4.96197 2.79297 8.70708C2.79297 12.4522 5.8399 15.4991 9.585 15.4991C11.0512 15.5007 12.4781 15.0253 13.6504 14.1447L17.3081 17.8024C17.4932 17.9679 17.7347 18.0562 17.9829 18.0493C18.2312 18.0423 18.4674 17.9406 18.643 17.765C18.8186 17.5894 18.9203 17.3533 18.9272 17.105C18.9342 16.8568 18.8458 16.6153 18.6803 16.4301ZM4.73355 8.70708C4.73355 7.74755 5.01808 6.80957 5.55117 6.01175C6.08425 5.21393 6.84195 4.59211 7.72843 4.22492C8.61492 3.85772 9.59039 3.76165 10.5315 3.94884C11.4726 4.13603 12.337 4.59809 13.0155 5.27658C13.694 5.95507 14.156 6.81951 14.3432 7.7606C14.5304 8.70169 14.4344 9.67716 14.0672 10.5636C13.7 11.4501 13.0781 12.2078 12.2803 12.7409C11.4825 13.274 10.5445 13.5585 9.585 13.5585C8.29879 13.557 7.0657 13.0454 6.15621 12.1359C5.24672 11.2264 4.73509 9.99329 4.73355 8.70708Z" fill="#500124"/>
</svg>
