<svg width="68" height="39" viewBox="0 0 68 39" fill="none" xmlns="http://www.w3.org/2000/svg">
<g filter="url(#filter0_d_259_1887)">
<rect x="5.97559" y="2" width="28" height="28" rx="12" fill="white" shape-rendering="crispEdges"/>
<path d="M12 24V8H28V24L25.3333 22.3158L22.6667 24L20 22.3158L17.3333 24L14.6667 22.3158L12 24ZM24.4444 13.0526V11.3684H22.6667V13.0526H24.4444ZM20.8889 13.0526V11.3684H15.5556V13.0526H20.8889ZM20.8889 14.7368H15.5556V16.4211H20.8889V14.7368ZM22.6667 16.4211H24.4444V14.7368H22.6667V16.4211Z" fill="#FF1A66"/>
</g>
<path d="M39.7916 20V11.6H41.3276V20H39.7916ZM45.5716 20C44.9476 20 44.4476 19.848 44.0716 19.544C43.6956 19.24 43.5076 18.7 43.5076 17.924V15.332H42.4876V14.048H43.5076L43.6876 12.452H45.0436V14.048H46.6516V15.332H45.0436V17.936C45.0436 18.224 45.1036 18.424 45.2236 18.536C45.3516 18.64 45.5676 18.692 45.8716 18.692H46.6156V20H45.5716ZM50.7101 20.144C50.1101 20.144 49.5781 20.016 49.1141 19.76C48.6501 19.504 48.2861 19.144 48.0221 18.68C47.7581 18.216 47.6261 17.68 47.6261 17.072C47.6261 16.456 47.7541 15.908 48.0101 15.428C48.2741 14.948 48.6341 14.576 49.0901 14.312C49.5541 14.04 50.0981 13.904 50.7221 13.904C51.3061 13.904 51.8221 14.032 52.2701 14.288C52.7181 14.544 53.0661 14.896 53.3141 15.344C53.5701 15.784 53.6981 16.276 53.6981 16.82C53.6981 16.908 53.6941 17 53.6861 17.096C53.6861 17.192 53.6821 17.292 53.6741 17.396H49.1501C49.1821 17.86 49.3421 18.224 49.6301 18.488C49.9261 18.752 50.2821 18.884 50.6981 18.884C51.0101 18.884 51.2701 18.816 51.4781 18.68C51.6941 18.536 51.8541 18.352 51.9581 18.128H53.5181C53.4061 18.504 53.2181 18.848 52.9541 19.16C52.6981 19.464 52.3781 19.704 51.9941 19.88C51.6181 20.056 51.1901 20.144 50.7101 20.144ZM50.7221 15.152C50.3461 15.152 50.0141 15.26 49.7261 15.476C49.4381 15.684 49.2541 16.004 49.1741 16.436H52.1381C52.1141 16.044 51.9701 15.732 51.7061 15.5C51.4421 15.268 51.1141 15.152 50.7221 15.152ZM54.99 20V14.048H56.346L56.466 15.056C56.65 14.704 56.914 14.424 57.258 14.216C57.61 14.008 58.022 13.904 58.494 13.904C59.23 13.904 59.802 14.136 60.21 14.6C60.618 15.064 60.822 15.744 60.822 16.64V20H59.286V16.784C59.286 16.272 59.182 15.88 58.974 15.608C58.766 15.336 58.442 15.2 58.002 15.2C57.57 15.2 57.214 15.352 56.934 15.656C56.662 15.96 56.526 16.384 56.526 16.928V20H54.99ZM64.7507 20.144C64.2227 20.144 63.7587 20.06 63.3587 19.892C62.9587 19.716 62.6387 19.476 62.3987 19.172C62.1587 18.868 62.0147 18.516 61.9667 18.116H63.5147C63.5627 18.348 63.6907 18.548 63.8987 18.716C64.1147 18.876 64.3907 18.956 64.7267 18.956C65.0627 18.956 65.3067 18.888 65.4587 18.752C65.6187 18.616 65.6987 18.46 65.6987 18.284C65.6987 18.028 65.5867 17.856 65.3627 17.768C65.1387 17.672 64.8267 17.58 64.4267 17.492C64.1707 17.436 63.9107 17.368 63.6467 17.288C63.3827 17.208 63.1387 17.108 62.9147 16.988C62.6987 16.86 62.5227 16.7 62.3867 16.508C62.2507 16.308 62.1827 16.064 62.1827 15.776C62.1827 15.248 62.3907 14.804 62.8067 14.444C63.2307 14.084 63.8227 13.904 64.5827 13.904C65.2867 13.904 65.8467 14.068 66.2627 14.396C66.6867 14.724 66.9387 15.176 67.0187 15.752H65.5667C65.4787 15.312 65.1467 15.092 64.5707 15.092C64.2827 15.092 64.0587 15.148 63.8987 15.26C63.7467 15.372 63.6707 15.512 63.6707 15.68C63.6707 15.856 63.7867 15.996 64.0187 16.1C64.2507 16.204 64.5587 16.3 64.9427 16.388C65.3587 16.484 65.7387 16.592 66.0827 16.712C66.4347 16.824 66.7147 16.996 66.9227 17.228C67.1307 17.452 67.2347 17.776 67.2347 18.2C67.2427 18.568 67.1467 18.9 66.9467 19.196C66.7467 19.492 66.4587 19.724 66.0827 19.892C65.7067 20.06 65.2627 20.144 64.7507 20.144Z" fill="#B4ACAD"/>
<defs>
<filter id="filter0_d_259_1887" x="0.475586" y="0" width="39" height="39" filterUnits="userSpaceOnUse" color-interpolation-filters="sRGB">
<feFlood flood-opacity="0" result="BackgroundImageFix"/>
<feColorMatrix in="SourceAlpha" type="matrix" values="0 0 0 0 0 0 0 0 0 0 0 0 0 0 0 0 0 0 127 0" result="hardAlpha"/>
<feOffset dy="3.5"/>
<feGaussianBlur stdDeviation="2.75"/>
<feComposite in2="hardAlpha" operator="out"/>
<feColorMatrix type="matrix" values="0 0 0 0 0 0 0 0 0 0 0 0 0 0 0 0 0 0 0.12 0"/>
<feBlend mode="normal" in2="BackgroundImageFix" result="effect1_dropShadow_259_1887"/>
<feBlend mode="normal" in="SourceGraphic" in2="effect1_dropShadow_259_1887" result="shape"/>
</filter>
</defs>
</svg>
