<svg width="131" height="56" viewBox="0 0 131 56" fill="none" xmlns="http://www.w3.org/2000/svg">
<g filter="url(#filter0_d_670_249)">
<rect x="6" y="1" width="44" height="44" rx="18" fill="#FF1A66" shape-rendering="crispEdges"/>
<path d="M40.59 13.23C41.3687 12.4513 41.3687 11.1887 40.59 10.41V10.41C39.8113 9.63128 38.5487 9.63128 37.77 10.41L29.4142 18.7658C28.6332 19.5468 27.3668 19.5468 26.5858 18.7658L18.23 10.41C17.4513 9.63128 16.1887 9.63128 15.41 10.41V10.41C14.6313 11.1887 14.6313 12.4513 15.41 13.23L23.7658 21.5858C24.5468 22.3668 24.5468 23.6332 23.7658 24.4142L15.41 32.77C14.6313 33.5487 14.6313 34.8113 15.41 35.59V35.59C16.1887 36.3687 17.4513 36.3687 18.23 35.59L26.5858 27.2342C27.3668 26.4532 28.6332 26.4532 29.4142 27.2342L37.77 35.59C38.5487 36.3687 39.8113 36.3687 40.59 35.59V35.59C41.3687 34.8113 41.3687 33.5487 40.59 32.77L32.2342 24.4142C31.4532 23.6332 31.4532 22.3668 32.2342 21.5858L40.59 13.23Z" fill="#FFF3FA"/>
</g>
<path d="M68.18 29.74C67.1667 29.74 66.26 29.5667 65.46 29.22C64.6733 28.8733 64.0467 28.3667 63.58 27.7C63.1267 27.0333 62.8933 26.2267 62.88 25.28H65.74C65.7533 25.6933 65.86 26.0667 66.06 26.4C66.26 26.7333 66.5333 27 66.88 27.2C67.24 27.3867 67.6667 27.48 68.16 27.48C68.5867 27.48 68.9533 27.4133 69.26 27.28C69.58 27.1333 69.8267 26.9333 70 26.68C70.1733 26.4267 70.26 26.1267 70.26 25.78C70.26 25.3667 70.16 25.0267 69.96 24.76C69.7733 24.4933 69.5067 24.2667 69.16 24.08C68.8133 23.8933 68.4133 23.7267 67.96 23.58C67.52 23.42 67.0533 23.26 66.56 23.1C65.4667 22.74 64.6267 22.26 64.04 21.66C63.4667 21.06 63.18 20.2667 63.18 19.28C63.18 18.44 63.38 17.72 63.78 17.12C64.1933 16.52 64.76 16.06 65.48 15.74C66.2 15.42 67.02 15.26 67.94 15.26C68.8867 15.26 69.7133 15.4267 70.42 15.76C71.14 16.08 71.7067 16.5467 72.12 17.16C72.5467 17.7733 72.7667 18.4933 72.78 19.32H69.9C69.8867 19.0133 69.7933 18.7267 69.62 18.46C69.46 18.18 69.2333 17.96 68.94 17.8C68.6467 17.6267 68.3 17.54 67.9 17.54C67.5533 17.5267 67.2333 17.58 66.94 17.7C66.66 17.82 66.4333 18 66.26 18.24C66.1 18.4667 66.02 18.7533 66.02 19.1C66.02 19.4333 66.1 19.7133 66.26 19.94C66.4333 20.1667 66.6667 20.3667 66.96 20.54C67.2533 20.7 67.6 20.8533 68 21C68.4 21.1333 68.8333 21.2733 69.3 21.42C69.9933 21.66 70.6333 21.9467 71.22 22.28C71.8067 22.6 72.2733 23.02 72.62 23.54C72.9667 24.06 73.14 24.7467 73.14 25.6C73.14 26.3333 72.9467 27.0133 72.56 27.64C72.1733 28.2667 71.6133 28.7733 70.88 29.16C70.16 29.5467 69.26 29.74 68.18 29.74ZM78.7513 29.74C77.9113 29.74 77.2179 29.6067 76.6712 29.34C76.1246 29.06 75.7179 28.6933 75.4513 28.24C75.1846 27.7867 75.0513 27.2867 75.0513 26.74C75.0513 26.1267 75.2046 25.5867 75.5113 25.12C75.8313 24.6533 76.3113 24.2933 76.9513 24.04C77.5913 23.7733 78.3913 23.64 79.3513 23.64H81.8513C81.8513 23.1467 81.7779 22.7467 81.6313 22.44C81.4979 22.12 81.2913 21.88 81.0113 21.72C80.7313 21.56 80.3646 21.48 79.9112 21.48C79.4046 21.48 78.9646 21.5933 78.5913 21.82C78.2313 22.0467 78.0113 22.3867 77.9313 22.84H75.3113C75.3779 22.1067 75.6179 21.48 76.0313 20.96C76.4446 20.4267 76.9846 20.0133 77.6513 19.72C78.3313 19.4267 79.0913 19.28 79.9313 19.28C80.8779 19.28 81.6913 19.44 82.3713 19.76C83.0646 20.0667 83.5979 20.5267 83.9713 21.14C84.3579 21.74 84.5513 22.4733 84.5513 23.34V29.5H82.2713L81.9713 27.96C81.8246 28.2267 81.6513 28.4667 81.4513 28.68C81.2513 28.8933 81.0179 29.08 80.7513 29.24C80.4846 29.4 80.1846 29.52 79.8513 29.6C79.5179 29.6933 79.1513 29.74 78.7513 29.74ZM79.3913 27.66C79.7379 27.66 80.0513 27.6 80.3313 27.48C80.6113 27.3467 80.8446 27.1733 81.0313 26.96C81.2313 26.7333 81.3846 26.48 81.4913 26.2C81.6113 25.92 81.6913 25.62 81.7313 25.3V25.28H79.6513C79.2513 25.28 78.9179 25.3333 78.6513 25.44C78.3846 25.5467 78.1913 25.6933 78.0713 25.88C77.9513 26.0533 77.8913 26.26 77.8913 26.5C77.8913 26.7533 77.9513 26.9667 78.0713 27.14C78.2046 27.3 78.3779 27.4267 78.5913 27.52C78.8179 27.6133 79.0846 27.66 79.3913 27.66ZM87.0909 29.5V19.52H89.7909V29.5H87.0909ZM88.4509 18.1C87.9576 18.1 87.5576 17.96 87.2509 17.68C86.9443 17.3867 86.7909 17.02 86.7909 16.58C86.7909 16.14 86.9443 15.78 87.2509 15.5C87.5576 15.2067 87.9576 15.06 88.4509 15.06C88.9443 15.06 89.3443 15.2067 89.6509 15.5C89.9709 15.78 90.1309 16.14 90.1309 16.58C90.1309 17.02 89.9709 17.3867 89.6509 17.68C89.3443 17.96 88.9443 18.1 88.4509 18.1ZM92.4797 29.5V19.52H94.8797L95.1397 21.38C95.393 20.94 95.693 20.5667 96.0397 20.26C96.3997 19.9533 96.813 19.7133 97.2797 19.54C97.7464 19.3667 98.2597 19.28 98.8197 19.28V22.14H97.9997C97.5864 22.14 97.2064 22.1867 96.8597 22.28C96.513 22.36 96.213 22.5067 95.9597 22.72C95.7197 22.9333 95.5264 23.2267 95.3797 23.6C95.2464 23.96 95.1797 24.4133 95.1797 24.96V29.5H92.4797Z" fill="#500124"/>
<defs>
<filter id="filter0_d_670_249" x="0" y="0" width="56" height="56" filterUnits="userSpaceOnUse" color-interpolation-filters="sRGB">
<feFlood flood-opacity="0" result="BackgroundImageFix"/>
<feColorMatrix in="SourceAlpha" type="matrix" values="0 0 0 0 0 0 0 0 0 0 0 0 0 0 0 0 0 0 127 0" result="hardAlpha"/>
<feOffset dy="5"/>
<feGaussianBlur stdDeviation="3"/>
<feComposite in2="hardAlpha" operator="out"/>
<feColorMatrix type="matrix" values="0 0 0 0 0 0 0 0 0 0 0 0 0 0 0 0 0 0 0.2 0"/>
<feBlend mode="normal" in2="BackgroundImageFix" result="effect1_dropShadow_670_249"/>
<feBlend mode="normal" in="SourceGraphic" in2="effect1_dropShadow_670_249" result="shape"/>
</filter>
</defs>
</svg>
