<svg width="56" height="56" viewBox="0 0 56 56" fill="none" xmlns="http://www.w3.org/2000/svg">
<g filter="url(#filter0_d_710_552)">
<rect x="6" y="1" width="44" height="44" rx="18" fill="#FF1A66" shape-rendering="crispEdges"/>
<path d="M28 15C29.083 15 30.1216 15.4069 30.8874 16.1312C31.6531 16.8555 32.0833 17.8378 32.0833 18.8621C32.0833 19.8864 31.6531 20.8687 30.8874 21.593C30.1216 22.3172 29.083 22.7241 28 22.7241C26.917 22.7241 25.8784 22.3172 25.1126 21.593C24.3469 20.8687 23.9167 19.8864 23.9167 18.8621C23.9167 17.8378 24.3469 16.8555 25.1126 16.1312C25.8784 15.4069 26.917 15 28 15ZM19.8333 17.7586C20.4867 17.7586 21.0933 17.9241 21.6183 18.2221C21.4433 19.8 21.9333 21.3669 22.9367 22.5917C22.3533 23.651 21.1867 24.3793 19.8333 24.3793C18.9051 24.3793 18.0148 24.0305 17.3585 23.4097C16.7021 22.7889 16.3333 21.9469 16.3333 21.069C16.3333 20.191 16.7021 19.349 17.3585 18.7282C18.0148 18.1074 18.9051 17.7586 19.8333 17.7586ZM36.1667 17.7586C37.0949 17.7586 37.9852 18.1074 38.6415 18.7282C39.2979 19.349 39.6667 20.191 39.6667 21.069C39.6667 21.9469 39.2979 22.7889 38.6415 23.4097C37.9852 24.0305 37.0949 24.3793 36.1667 24.3793C34.8133 24.3793 33.6467 23.651 33.0633 22.5917C34.0667 21.3669 34.5567 19.8 34.3817 18.2221C34.9067 17.9241 35.5133 17.7586 36.1667 17.7586ZM20.4167 29.069C20.4167 26.7848 23.8117 24.931 28 24.931C32.1883 24.931 35.5833 26.7848 35.5833 29.069V31H20.4167V29.069ZM14 31V29.3448C14 27.811 16.205 26.52 19.1917 26.1448C18.5033 26.8952 18.0833 27.9324 18.0833 29.069V31H14ZM42 31H37.9167V29.069C37.9167 27.9324 37.4967 26.8952 36.8083 26.1448C39.795 26.52 42 27.811 42 29.3448V31Z" fill="#FFF3FA"/>
</g>
<defs>
<filter id="filter0_d_710_552" x="0" y="0" width="56" height="56" filterUnits="userSpaceOnUse" color-interpolation-filters="sRGB">
<feFlood flood-opacity="0" result="BackgroundImageFix"/>
<feColorMatrix in="SourceAlpha" type="matrix" values="0 0 0 0 0 0 0 0 0 0 0 0 0 0 0 0 0 0 127 0" result="hardAlpha"/>
<feOffset dy="5"/>
<feGaussianBlur stdDeviation="3"/>
<feComposite in2="hardAlpha" operator="out"/>
<feColorMatrix type="matrix" values="0 0 0 0 0 0 0 0 0 0 0 0 0 0 0 0 0 0 0.2 0"/>
<feBlend mode="normal" in2="BackgroundImageFix" result="effect1_dropShadow_710_552"/>
<feBlend mode="normal" in="SourceGraphic" in2="effect1_dropShadow_710_552" result="shape"/>
</filter>
</defs>
</svg>
