<svg width="214" height="56" viewBox="0 0 214 56" fill="none" xmlns="http://www.w3.org/2000/svg">
<g filter="url(#filter0_d_669_229)">
<rect x="6" y="1" width="44" height="44" rx="18" fill="white" shape-rendering="crispEdges"/>
<path d="M28 15C29.083 15 30.1216 15.4069 30.8874 16.1312C31.6531 16.8555 32.0833 17.8378 32.0833 18.8621C32.0833 19.8864 31.6531 20.8687 30.8874 21.593C30.1216 22.3172 29.083 22.7241 28 22.7241C26.917 22.7241 25.8784 22.3172 25.1126 21.593C24.3469 20.8687 23.9167 19.8864 23.9167 18.8621C23.9167 17.8378 24.3469 16.8555 25.1126 16.1312C25.8784 15.4069 26.917 15 28 15ZM19.8333 17.7586C20.4867 17.7586 21.0933 17.9241 21.6183 18.2221C21.4433 19.8 21.9333 21.3669 22.9367 22.5917C22.3533 23.651 21.1867 24.3793 19.8333 24.3793C18.9051 24.3793 18.0148 24.0305 17.3585 23.4097C16.7021 22.7889 16.3333 21.9469 16.3333 21.069C16.3333 20.191 16.7021 19.349 17.3585 18.7282C18.0148 18.1074 18.9051 17.7586 19.8333 17.7586ZM36.1667 17.7586C37.0949 17.7586 37.9852 18.1074 38.6415 18.7282C39.2979 19.349 39.6667 20.191 39.6667 21.069C39.6667 21.9469 39.2979 22.7889 38.6415 23.4097C37.9852 24.0305 37.0949 24.3793 36.1667 24.3793C34.8133 24.3793 33.6467 23.651 33.0633 22.5917C34.0667 21.3669 34.5567 19.8 34.3817 18.2221C34.9067 17.9241 35.5133 17.7586 36.1667 17.7586ZM20.4167 29.069C20.4167 26.7848 23.8117 24.931 28 24.931C32.1883 24.931 35.5833 26.7848 35.5833 29.069V31H20.4167V29.069ZM14 31V29.3448C14 27.811 16.205 26.52 19.1917 26.1448C18.5033 26.8952 18.0833 27.9324 18.0833 29.069V31H14ZM42 31H37.9167V29.069C37.9167 27.9324 37.4967 26.8952 36.8083 26.1448C39.795 26.52 42 27.811 42 29.3448V31Z" fill="#FF1A66"/>
</g>
<path d="M69.5 30.24C68.18 30.24 67.02 29.9467 66.02 29.36C65.0333 28.76 64.2667 27.9267 63.72 26.86C63.1733 25.78 62.9 24.5267 62.9 23.1C62.9 21.66 63.18 20.3933 63.74 19.3C64.3133 18.1933 65.1267 17.3267 66.18 16.7C67.2333 16.0733 68.4867 15.76 69.94 15.76C71.5933 15.76 72.96 16.1533 74.04 16.94C75.1333 17.7267 75.84 18.82 76.16 20.22H73.14C72.94 19.6067 72.5667 19.1267 72.02 18.78C71.4733 18.42 70.7733 18.24 69.92 18.24C69.0133 18.24 68.24 18.44 67.6 18.84C66.96 19.24 66.4733 19.8 66.14 20.52C65.82 21.24 65.66 22.1 65.66 23.1C65.66 24.1133 65.82 24.9733 66.14 25.68C66.4733 26.3867 66.9467 26.9267 67.56 27.3C68.1867 27.66 68.92 27.84 69.76 27.84C70.9867 27.84 71.9133 27.5133 72.54 26.86C73.18 26.1933 73.56 25.3333 73.68 24.28H70.24V22.26H76.4V30H73.92L73.7 28.22C73.4067 28.66 73.0667 29.0333 72.68 29.34C72.2933 29.6333 71.8333 29.8533 71.3 30C70.78 30.16 70.18 30.24 69.5 30.24ZM83.6873 30.24C82.674 30.24 81.774 30.0267 80.9873 29.6C80.214 29.16 79.6073 28.5533 79.1673 27.78C78.7273 27.0067 78.5073 26.1133 78.5073 25.1C78.5073 24.06 78.7207 23.14 79.1473 22.34C79.5873 21.54 80.194 20.9133 80.9673 20.46C81.754 20.0067 82.6607 19.78 83.6873 19.78C84.6873 19.78 85.5607 20 86.3073 20.44C87.054 20.8667 87.6407 21.4533 88.0673 22.2C88.494 22.9333 88.7073 23.7733 88.7073 24.72C88.7073 24.8533 88.7007 25 88.6873 25.16C88.6873 25.32 88.674 25.4933 88.6473 25.68H80.4473V24.02H85.9673C85.9273 23.3933 85.694 22.8933 85.2673 22.52C84.854 22.1467 84.334 21.96 83.7073 21.96C83.2407 21.96 82.814 22.0667 82.4273 22.28C82.0407 22.48 81.734 22.7933 81.5073 23.22C81.2807 23.6333 81.1673 24.16 81.1673 24.8V25.38C81.1673 25.9133 81.274 26.38 81.4873 26.78C81.7007 27.18 81.994 27.4933 82.3673 27.72C82.754 27.9333 83.1873 28.04 83.6673 28.04C84.1607 28.04 84.574 27.9333 84.9073 27.72C85.2407 27.5067 85.4873 27.22 85.6473 26.86H88.4073C88.2207 27.5 87.9073 28.0733 87.4673 28.58C87.0273 29.0867 86.4873 29.4933 85.8473 29.8C85.2073 30.0933 84.4873 30.24 83.6873 30.24ZM90.8586 30V20.02H93.2586L93.5186 21.88C93.7719 21.44 94.0719 21.0667 94.4186 20.76C94.7786 20.4533 95.1919 20.2133 95.6586 20.04C96.1253 19.8667 96.6386 19.78 97.1986 19.78V22.64H96.3786C95.9653 22.64 95.5853 22.6867 95.2386 22.78C94.8919 22.86 94.5919 23.0067 94.3386 23.22C94.0986 23.4333 93.9053 23.7267 93.7586 24.1C93.6253 24.46 93.5586 24.9133 93.5586 25.46V30H90.8586ZM103.648 30.24C102.635 30.24 101.735 30.0267 100.948 29.6C100.175 29.16 99.5683 28.5533 99.1283 27.78C98.6883 27.0067 98.4683 26.1133 98.4683 25.1C98.4683 24.06 98.6816 23.14 99.1083 22.34C99.5483 21.54 100.155 20.9133 100.928 20.46C101.715 20.0067 102.622 19.78 103.648 19.78C104.648 19.78 105.522 20 106.268 20.44C107.015 20.8667 107.602 21.4533 108.028 22.2C108.455 22.9333 108.668 23.7733 108.668 24.72C108.668 24.8533 108.662 25 108.648 25.16C108.648 25.32 108.635 25.4933 108.608 25.68H100.408V24.02H105.928C105.888 23.3933 105.655 22.8933 105.228 22.52C104.815 22.1467 104.295 21.96 103.668 21.96C103.202 21.96 102.775 22.0667 102.388 22.28C102.002 22.48 101.695 22.7933 101.468 23.22C101.242 23.6333 101.128 24.16 101.128 24.8V25.38C101.128 25.9133 101.235 26.38 101.448 26.78C101.662 27.18 101.955 27.4933 102.328 27.72C102.715 27.9333 103.148 28.04 103.628 28.04C104.122 28.04 104.535 27.9333 104.868 27.72C105.202 27.5067 105.448 27.22 105.608 26.86H108.368C108.182 27.5 107.868 28.0733 107.428 28.58C106.988 29.0867 106.448 29.4933 105.808 29.8C105.168 30.0933 104.448 30.24 103.648 30.24ZM110.82 30V20.02H113.2L113.4 21.68C113.72 21.1067 114.16 20.6467 114.72 20.3C115.293 19.9533 115.98 19.78 116.78 19.78C117.606 19.78 118.306 19.9533 118.88 20.3C119.453 20.6467 119.893 21.16 120.2 21.84C120.506 22.52 120.66 23.3533 120.66 24.34V30H117.96V24.58C117.96 23.7667 117.793 23.1467 117.46 22.72C117.126 22.28 116.6 22.06 115.88 22.06C115.426 22.06 115.02 22.1667 114.66 22.38C114.313 22.5933 114.033 22.9067 113.82 23.32C113.62 23.72 113.52 24.2067 113.52 24.78V30H110.82ZM128.024 30.24C127.011 30.24 126.111 30.02 125.324 29.58C124.538 29.1267 123.918 28.5067 123.464 27.72C123.024 26.9333 122.804 26.0333 122.804 25.02C122.804 23.9933 123.024 23.0933 123.464 22.32C123.918 21.5333 124.538 20.9133 125.324 20.46C126.111 20.0067 127.011 19.78 128.024 19.78C129.318 19.78 130.398 20.12 131.264 20.8C132.144 21.4667 132.704 22.3867 132.944 23.56H130.084C129.964 23.1067 129.718 22.7467 129.344 22.48C128.971 22.2133 128.524 22.08 128.004 22.08C127.538 22.08 127.118 22.2 126.744 22.44C126.384 22.6667 126.098 23 125.884 23.44C125.671 23.88 125.564 24.4 125.564 25C125.564 25.4667 125.624 25.88 125.744 26.24C125.878 26.6 126.051 26.9067 126.264 27.16C126.491 27.4133 126.751 27.6067 127.044 27.74C127.338 27.8733 127.658 27.94 128.004 27.94C128.351 27.94 128.664 27.8867 128.944 27.78C129.224 27.66 129.464 27.4867 129.664 27.26C129.864 27.0333 130.004 26.7667 130.084 26.46H132.944C132.704 27.6067 132.144 28.5267 131.264 29.22C130.384 29.9 129.304 30.24 128.024 30.24ZM135.314 30V20.02H138.014V30H135.314ZM136.674 18.6C136.18 18.6 135.78 18.46 135.474 18.18C135.167 17.8867 135.014 17.52 135.014 17.08C135.014 16.64 135.167 16.28 135.474 16C135.78 15.7067 136.18 15.56 136.674 15.56C137.167 15.56 137.567 15.7067 137.874 16C138.194 16.28 138.354 16.64 138.354 17.08C138.354 17.52 138.194 17.8867 137.874 18.18C137.567 18.46 137.167 18.6 136.674 18.6ZM144.122 30.24C143.282 30.24 142.589 30.1067 142.042 29.84C141.496 29.56 141.089 29.1933 140.822 28.74C140.556 28.2867 140.422 27.7867 140.422 27.24C140.422 26.6267 140.576 26.0867 140.882 25.62C141.202 25.1533 141.682 24.7933 142.322 24.54C142.962 24.2733 143.762 24.14 144.722 24.14H147.222C147.222 23.6467 147.149 23.2467 147.002 22.94C146.869 22.62 146.662 22.38 146.382 22.22C146.102 22.06 145.736 21.98 145.282 21.98C144.776 21.98 144.336 22.0933 143.962 22.32C143.602 22.5467 143.382 22.8867 143.302 23.34H140.682C140.749 22.6067 140.989 21.98 141.402 21.46C141.816 20.9267 142.356 20.5133 143.022 20.22C143.702 19.9267 144.462 19.78 145.302 19.78C146.249 19.78 147.062 19.94 147.742 20.26C148.436 20.5667 148.969 21.0267 149.342 21.64C149.729 22.24 149.922 22.9733 149.922 23.84V30H147.642L147.342 28.46C147.196 28.7267 147.022 28.9667 146.822 29.18C146.622 29.3933 146.389 29.58 146.122 29.74C145.856 29.9 145.556 30.02 145.222 30.1C144.889 30.1933 144.522 30.24 144.122 30.24ZM144.762 28.16C145.109 28.16 145.422 28.1 145.702 27.98C145.982 27.8467 146.216 27.6733 146.402 27.46C146.602 27.2333 146.756 26.98 146.862 26.7C146.982 26.42 147.062 26.12 147.102 25.8V25.78H145.022C144.622 25.78 144.289 25.8333 144.022 25.94C143.756 26.0467 143.562 26.1933 143.442 26.38C143.322 26.5533 143.262 26.76 143.262 27C143.262 27.2533 143.322 27.4667 143.442 27.64C143.576 27.8 143.749 27.9267 143.962 28.02C144.189 28.1133 144.456 28.16 144.762 28.16ZM152.382 30V20.02H154.762L154.982 21.36C155.302 20.8667 155.722 20.48 156.242 20.2C156.775 19.92 157.389 19.78 158.082 19.78C158.589 19.78 159.042 19.8467 159.442 19.98C159.855 20.1 160.215 20.2933 160.522 20.56C160.842 20.8133 161.102 21.1333 161.302 21.52C161.675 20.9733 162.162 20.5467 162.762 20.24C163.375 19.9333 164.035 19.78 164.742 19.78C165.622 19.78 166.355 19.96 166.942 20.32C167.542 20.6667 167.995 21.18 168.302 21.86C168.609 22.5267 168.762 23.3533 168.762 24.34V30H166.082V24.58C166.082 23.7667 165.922 23.1467 165.602 22.72C165.282 22.28 164.795 22.06 164.142 22.06C163.702 22.06 163.315 22.1667 162.982 22.38C162.649 22.5933 162.389 22.9067 162.202 23.32C162.015 23.72 161.922 24.2067 161.922 24.78V30H159.242V24.58C159.242 23.7667 159.082 23.1467 158.762 22.72C158.442 22.28 157.942 22.06 157.262 22.06C156.835 22.06 156.455 22.1667 156.122 22.38C155.802 22.5933 155.549 22.9067 155.362 23.32C155.175 23.72 155.082 24.2067 155.082 24.78V30H152.382ZM176.09 30.24C175.076 30.24 174.176 30.0267 173.39 29.6C172.616 29.16 172.01 28.5533 171.57 27.78C171.13 27.0067 170.91 26.1133 170.91 25.1C170.91 24.06 171.123 23.14 171.55 22.34C171.99 21.54 172.596 20.9133 173.37 20.46C174.156 20.0067 175.063 19.78 176.09 19.78C177.09 19.78 177.963 20 178.71 20.44C179.456 20.8667 180.043 21.4533 180.47 22.2C180.896 22.9333 181.11 23.7733 181.11 24.72C181.11 24.8533 181.103 25 181.09 25.16C181.09 25.32 181.076 25.4933 181.05 25.68H172.85V24.02H178.37C178.33 23.3933 178.096 22.8933 177.67 22.52C177.256 22.1467 176.736 21.96 176.11 21.96C175.643 21.96 175.216 22.0667 174.83 22.28C174.443 22.48 174.136 22.7933 173.91 23.22C173.683 23.6333 173.57 24.16 173.57 24.8V25.38C173.57 25.9133 173.676 26.38 173.89 26.78C174.103 27.18 174.396 27.4933 174.77 27.72C175.156 27.9333 175.59 28.04 176.07 28.04C176.563 28.04 176.976 27.9333 177.31 27.72C177.643 27.5067 177.89 27.22 178.05 26.86H180.81C180.623 27.5 180.31 28.0733 179.87 28.58C179.43 29.0867 178.89 29.4933 178.25 29.8C177.61 30.0933 176.89 30.24 176.09 30.24ZM183.261 30V20.02H185.641L185.841 21.68C186.161 21.1067 186.601 20.6467 187.161 20.3C187.734 19.9533 188.421 19.78 189.221 19.78C190.048 19.78 190.748 19.9533 191.321 20.3C191.894 20.6467 192.334 21.16 192.641 21.84C192.948 22.52 193.101 23.3533 193.101 24.34V30H190.401V24.58C190.401 23.7667 190.234 23.1467 189.901 22.72C189.568 22.28 189.041 22.06 188.321 22.06C187.868 22.06 187.461 22.1667 187.101 22.38C186.754 22.5933 186.474 22.9067 186.261 23.32C186.061 23.72 185.961 24.2067 185.961 24.78V30H183.261ZM200.086 30C199.379 30 198.759 29.8933 198.226 29.68C197.706 29.4533 197.299 29.0867 197.006 28.58C196.712 28.06 196.566 27.3533 196.566 26.46V22.28H194.866V20.02H196.566L196.866 17.3H199.266V20.02H201.906V22.28H199.266V26.5C199.266 26.9533 199.366 27.2667 199.566 27.44C199.766 27.6133 200.106 27.7 200.586 27.7H201.866V30H200.086ZM208.666 30.24C207.706 30.24 206.839 30.02 206.066 29.58C205.306 29.1267 204.699 28.5067 204.246 27.72C203.793 26.9333 203.566 26.0333 203.566 25.02C203.566 23.98 203.793 23.0667 204.246 22.28C204.699 21.4933 205.313 20.88 206.086 20.44C206.859 20 207.719 19.78 208.666 19.78C209.639 19.78 210.513 20 211.286 20.44C212.059 20.88 212.666 21.4933 213.106 22.28C213.559 23.0667 213.786 23.98 213.786 25.02C213.786 26.0467 213.559 26.9533 213.106 27.74C212.653 28.5133 212.039 29.1267 211.266 29.58C210.493 30.02 209.626 30.24 208.666 30.24ZM208.666 27.9C209.106 27.9 209.499 27.7933 209.846 27.58C210.206 27.3667 210.493 27.0467 210.706 26.62C210.919 26.18 211.026 25.64 211.026 25C211.026 24.36 210.919 23.8267 210.706 23.4C210.493 22.9733 210.206 22.6533 209.846 22.44C209.499 22.2267 209.113 22.12 208.686 22.12C208.259 22.12 207.866 22.2267 207.506 22.44C207.146 22.6533 206.859 22.9733 206.646 23.4C206.433 23.8267 206.326 24.3667 206.326 25.02C206.326 25.6467 206.433 26.18 206.646 26.62C206.859 27.0467 207.139 27.3667 207.486 27.58C207.846 27.7933 208.239 27.9 208.666 27.9Z" fill="#B4ACAD"/>
<defs>
<filter id="filter0_d_669_229" x="0" y="0" width="56" height="56" filterUnits="userSpaceOnUse" color-interpolation-filters="sRGB">
<feFlood flood-opacity="0" result="BackgroundImageFix"/>
<feColorMatrix in="SourceAlpha" type="matrix" values="0 0 0 0 0 0 0 0 0 0 0 0 0 0 0 0 0 0 127 0" result="hardAlpha"/>
<feOffset dy="5"/>
<feGaussianBlur stdDeviation="3"/>
<feComposite in2="hardAlpha" operator="out"/>
<feColorMatrix type="matrix" values="0 0 0 0 0 0 0 0 0 0 0 0 0 0 0 0 0 0 0.2 0"/>
<feBlend mode="normal" in2="BackgroundImageFix" result="effect1_dropShadow_669_229"/>
<feBlend mode="normal" in="SourceGraphic" in2="effect1_dropShadow_669_229" result="shape"/>
</filter>
</defs>
</svg>
