<svg width="126" height="108" viewBox="0 0 126 108" fill="none" xmlns="http://www.w3.org/2000/svg">
<g id="Group 68">
<path id="Vector" d="M108 99.2443C107.533 99.8229 107.222 100.479 107.106 101.211C107.456 100.594 107.767 99.9386 108 99.2443ZM92.5992 105.416L92.0547 101.597C91.9381 100.826 91.3547 100.093 90.4991 99.5529C89.7213 99.1286 88.8657 99.0129 88.1656 99.2829L84.3154 100.787C82.8376 101.327 81.2042 100.71 80.4652 99.4371L75.6817 91.4529C74.865 90.1414 75.215 88.4057 76.4595 87.48L79.7263 85.0114C80.2708 84.5872 80.5819 83.8157 80.5819 82.9286C80.5819 81.9643 80.2708 81.1929 79.6485 80.73L76.4595 78.3771C75.215 77.4129 74.865 75.6771 75.6817 74.3271L78.1707 70.2C70.9759 68.4643 62.9255 67.5 54.4472 67.5C39.3965 67.5 25.7847 70.5086 15.9453 75.4071C6.06698 80.2671 0 87.0557 0 94.5C0 101.944 6.06698 108 13.6118 108H95.516C94.0771 107.884 92.8714 106.804 92.5992 105.416ZM73.6982 7.90714C68.5646 2.81571 61.6421 0 54.4472 0C47.2524 0 40.291 2.81571 35.1963 7.90714C30.0627 12.96 27.2236 19.8257 27.2236 27C27.2236 34.1743 30.0627 41.0014 35.1963 46.0929C40.3299 51.1843 47.2135 54 54.4472 54C61.681 54 68.5646 51.1457 73.6982 46.0929C78.7929 41.0014 81.6709 34.1357 81.6709 27C81.6709 19.8643 78.7929 12.96 73.6982 7.90714Z" fill="#FF1A66"/>
<path id="Vector_2" d="M102.02 90.4C99.7436 90.4 97.5472 89.52 95.9098 87.92C94.3124 86.36 93.3938 84.2 93.3938 82C93.3938 79.8 94.3124 77.64 95.9098 76.08C97.5072 74.52 99.7037 73.6 102.02 73.6C104.336 73.6 106.493 74.48 108.13 76.08C109.728 77.64 110.646 79.8 110.646 82C110.646 84.2 109.728 86.36 108.13 87.92C106.533 89.48 104.336 90.4 102.02 90.4ZM122.188 85.76C121.029 84.88 120.51 83.44 120.51 82C120.51 80.56 121.069 79.04 122.267 78.16L125.542 75.68C126.021 75.32 126.141 74.68 125.822 74.16L120.91 65.84C120.63 65.32 119.951 65.08 119.392 65.32L115.398 66.88C114.041 67.4 112.563 67.2 111.325 66.48C110.007 65.72 108.929 64.44 108.729 62.92L108.17 59C108.09 58.44 107.571 58 106.932 58H97.0679C96.4689 58 95.9497 58.44 95.8299 59L95.2708 62.92C95.0711 64.44 93.9929 65.68 92.675 66.48C91.437 67.2 89.9594 67.44 88.6015 66.88L84.608 65.32C84.0489 65.12 83.4099 65.32 83.0904 65.84L78.1783 74.16C77.8588 74.68 78.0186 75.32 78.4579 75.68L81.7326 78.16C82.9307 79.04 83.4898 80.52 83.4898 82C83.4898 83.48 82.9706 84.88 81.8125 85.76L78.4579 88.32C77.9786 88.68 77.8588 89.32 78.1783 89.84L83.0904 98.16C83.37 98.68 84.0489 98.88 84.608 98.68L88.5616 97.12C89.9194 96.6 91.3971 96.8 92.675 97.56C93.9929 98.32 95.0312 99.56 95.2708 101.08L95.8299 105C95.9098 105.56 96.429 106 97.0679 106H106.932C107.531 106 108.05 105.56 108.17 105L108.729 101.08C108.929 99.6 109.967 98.32 111.285 97.56C112.563 96.84 114.081 96.6 115.438 97.12L119.392 98.68C119.951 98.88 120.59 98.68 120.91 98.16L125.822 89.84C126.101 89.32 125.981 88.68 125.542 88.32L122.188 85.76Z" fill="#FF1A66"/>
</g>
</svg>
