<svg width="161" height="56" viewBox="0 0 161 56" fill="none" xmlns="http://www.w3.org/2000/svg">
<g filter="url(#filter0_d_669_224)">
<rect x="6" y="1" width="44" height="44" rx="18" fill="white" shape-rendering="crispEdges"/>
<path d="M42 35C42 36.1046 41.1046 37 40 37H16C14.8954 37 14 36.1046 14 35V10.4C14 9.6268 14.6268 9 15.4 9C16.1732 9 16.8 9.6268 16.8 10.4V32.4889C16.8 33.2621 17.4268 33.8889 18.2 33.8889C18.9732 33.8889 19.6 33.2621 19.6 32.4889V21.8889C19.6 20.7843 20.4954 19.8889 21.6 19.8889H23.2C24.3046 19.8889 25.2 20.7843 25.2 21.8889V32.4889C25.2 33.2621 25.8268 33.8889 26.6 33.8889C27.3732 33.8889 28 33.2621 28 32.4889V15.6667C28 14.5621 28.8954 13.6667 30 13.6667H31.6C32.7046 13.6667 33.6 14.5621 33.6 15.6667V32.4889C33.6 33.2621 34.2268 33.8889 35 33.8889C35.7732 33.8889 36.4 33.2621 36.4 32.4889V28.1111C36.4 27.0065 37.2954 26.1111 38.4 26.1111H40C41.1046 26.1111 42 27.0065 42 28.1111V35Z" fill="#FF1A66"/>
</g>
<path d="M63.36 30V16H66.58L70.9 24.72L75.18 16H78.4V30H75.7V20.58L71.96 28.02H69.82L66.06 20.58V30H63.36ZM84.4739 30.24C83.6339 30.24 82.9406 30.1067 82.3939 29.84C81.8472 29.56 81.4406 29.1933 81.1739 28.74C80.9072 28.2867 80.7739 27.7867 80.7739 27.24C80.7739 26.6267 80.9272 26.0867 81.2339 25.62C81.5539 25.1533 82.0339 24.7933 82.6739 24.54C83.3139 24.2733 84.1139 24.14 85.0739 24.14H87.5739C87.5739 23.6467 87.5006 23.2467 87.3539 22.94C87.2206 22.62 87.0139 22.38 86.7339 22.22C86.4539 22.06 86.0872 21.98 85.6339 21.98C85.1272 21.98 84.6872 22.0933 84.3139 22.32C83.9539 22.5467 83.7339 22.8867 83.6539 23.34H81.0339C81.1006 22.6067 81.3406 21.98 81.7539 21.46C82.1672 20.9267 82.7072 20.5133 83.3739 20.22C84.0539 19.9267 84.8139 19.78 85.6539 19.78C86.6006 19.78 87.4139 19.94 88.0939 20.26C88.7872 20.5667 89.3206 21.0267 89.6939 21.64C90.0806 22.24 90.2739 22.9733 90.2739 23.84V30H87.9939L87.6939 28.46C87.5472 28.7267 87.3739 28.9667 87.1739 29.18C86.9739 29.3933 86.7406 29.58 86.4739 29.74C86.2072 29.9 85.9072 30.02 85.5739 30.1C85.2406 30.1933 84.8739 30.24 84.4739 30.24ZM85.1139 28.16C85.4606 28.16 85.7739 28.1 86.0539 27.98C86.3339 27.8467 86.5672 27.6733 86.7539 27.46C86.9539 27.2333 87.1072 26.98 87.2139 26.7C87.3339 26.42 87.4139 26.12 87.4539 25.8V25.78H85.3739C84.9739 25.78 84.6406 25.8333 84.3739 25.94C84.1072 26.0467 83.9139 26.1933 83.7939 26.38C83.6739 26.5533 83.6139 26.76 83.6139 27C83.6139 27.2533 83.6739 27.4667 83.7939 27.64C83.9272 27.8 84.1006 27.9267 84.3139 28.02C84.5406 28.1133 84.8072 28.16 85.1139 28.16ZM92.7336 30V20.02H95.1336L95.3936 21.88C95.6469 21.44 95.9469 21.0667 96.2936 20.76C96.6536 20.4533 97.0669 20.2133 97.5336 20.04C98.0003 19.8667 98.5136 19.78 99.0736 19.78V22.64H98.2536C97.8403 22.64 97.4603 22.6867 97.1136 22.78C96.7669 22.86 96.4669 23.0067 96.2136 23.22C95.9736 23.4333 95.7803 23.7267 95.6336 24.1C95.5003 24.46 95.4336 24.9133 95.4336 25.46V30H92.7336ZM107.44 30L103.12 24.52L106.96 20.02H110.16L105.2 25.64V23.5L110.8 30H107.44ZM100.82 30V15.6H103.52V30H100.82ZM116.402 30.24C115.389 30.24 114.489 30.0267 113.702 29.6C112.929 29.16 112.322 28.5533 111.882 27.78C111.442 27.0067 111.222 26.1133 111.222 25.1C111.222 24.06 111.436 23.14 111.862 22.34C112.302 21.54 112.909 20.9133 113.682 20.46C114.469 20.0067 115.376 19.78 116.402 19.78C117.402 19.78 118.276 20 119.022 20.44C119.769 20.8667 120.356 21.4533 120.782 22.2C121.209 22.9333 121.422 23.7733 121.422 24.72C121.422 24.8533 121.416 25 121.402 25.16C121.402 25.32 121.389 25.4933 121.362 25.68H113.162V24.02H118.682C118.642 23.3933 118.409 22.8933 117.982 22.52C117.569 22.1467 117.049 21.96 116.422 21.96C115.956 21.96 115.529 22.0667 115.142 22.28C114.756 22.48 114.449 22.7933 114.222 23.22C113.996 23.6333 113.882 24.16 113.882 24.8V25.38C113.882 25.9133 113.989 26.38 114.202 26.78C114.416 27.18 114.709 27.4933 115.082 27.72C115.469 27.9333 115.902 28.04 116.382 28.04C116.876 28.04 117.289 27.9333 117.622 27.72C117.956 27.5067 118.202 27.22 118.362 26.86H121.122C120.936 27.5 120.622 28.0733 120.182 28.58C119.742 29.0867 119.202 29.4933 118.562 29.8C117.922 30.0933 117.202 30.24 116.402 30.24ZM127.957 30C127.25 30 126.63 29.8933 126.097 29.68C125.577 29.4533 125.17 29.0867 124.877 28.58C124.583 28.06 124.437 27.3533 124.437 26.46V22.28H122.737V20.02H124.437L124.737 17.3H127.137V20.02H129.777V22.28H127.137V26.5C127.137 26.9533 127.237 27.2667 127.437 27.44C127.637 27.6133 127.977 27.7 128.457 27.7H129.737V30H127.957ZM132.091 30V20.02H134.791V30H132.091ZM133.451 18.6C132.958 18.6 132.558 18.46 132.251 18.18C131.944 17.8867 131.791 17.52 131.791 17.08C131.791 16.64 131.944 16.28 132.251 16C132.558 15.7067 132.958 15.56 133.451 15.56C133.944 15.56 134.344 15.7067 134.651 16C134.971 16.28 135.131 16.64 135.131 17.08C135.131 17.52 134.971 17.8867 134.651 18.18C134.344 18.46 133.944 18.6 133.451 18.6ZM137.48 30V20.02H139.86L140.06 21.68C140.38 21.1067 140.82 20.6467 141.38 20.3C141.953 19.9533 142.64 19.78 143.44 19.78C144.266 19.78 144.966 19.9533 145.54 20.3C146.113 20.6467 146.553 21.16 146.86 21.84C147.166 22.52 147.32 23.3533 147.32 24.34V30H144.62V24.58C144.62 23.7667 144.453 23.1467 144.12 22.72C143.786 22.28 143.26 22.06 142.54 22.06C142.086 22.06 141.68 22.1667 141.32 22.38C140.973 22.5933 140.693 22.9067 140.48 23.32C140.28 23.72 140.18 24.2067 140.18 24.78V30H137.48ZM154.124 34.64C153.164 34.64 152.324 34.52 151.604 34.28C150.898 34.0533 150.344 33.7 149.944 33.22C149.558 32.7533 149.364 32.1733 149.364 31.48C149.364 31.0133 149.484 30.5733 149.724 30.16C149.964 29.7467 150.318 29.3733 150.784 29.04C151.251 28.7067 151.824 28.4133 152.504 28.16L153.504 29.5C152.904 29.7 152.471 29.9467 152.204 30.24C151.938 30.5467 151.804 30.8667 151.804 31.2C151.804 31.5067 151.904 31.7667 152.104 31.98C152.318 32.1933 152.598 32.3467 152.944 32.44C153.291 32.5467 153.684 32.6 154.124 32.6C154.538 32.6 154.898 32.5467 155.204 32.44C155.524 32.3333 155.771 32.1733 155.944 31.96C156.118 31.76 156.204 31.5267 156.204 31.26C156.204 30.9 156.078 30.6067 155.824 30.38C155.584 30.1533 155.091 30.0133 154.344 29.96C153.664 29.9067 153.058 29.8333 152.524 29.74C152.004 29.6333 151.544 29.5133 151.144 29.38C150.758 29.2333 150.424 29.0733 150.144 28.9C149.864 28.7267 149.638 28.5533 149.464 28.38V27.92L151.604 25.62L153.524 26.22L151.024 28.72L151.804 27.4C151.938 27.4933 152.071 27.58 152.204 27.66C152.351 27.7267 152.531 27.7867 152.744 27.84C152.958 27.8933 153.231 27.9467 153.564 28C153.911 28.0533 154.344 28.1 154.864 28.14C155.744 28.22 156.464 28.3867 157.024 28.64C157.598 28.8933 158.018 29.2333 158.284 29.66C158.551 30.0733 158.684 30.5867 158.684 31.2C158.684 31.7867 158.518 32.34 158.184 32.86C157.864 33.3933 157.364 33.82 156.684 34.14C156.018 34.4733 155.164 34.64 154.124 34.64ZM154.144 27.06C153.291 27.06 152.558 26.9 151.944 26.58C151.344 26.2467 150.884 25.8067 150.564 25.26C150.244 24.7 150.084 24.0867 150.084 23.42C150.084 22.74 150.244 22.1267 150.564 21.58C150.884 21.0333 151.351 20.6 151.964 20.28C152.578 19.9467 153.304 19.78 154.144 19.78C154.984 19.78 155.704 19.9467 156.304 20.28C156.918 20.6 157.384 21.0333 157.704 21.58C158.024 22.1267 158.184 22.74 158.184 23.42C158.184 24.0867 158.024 24.7 157.704 25.26C157.384 25.8067 156.918 26.2467 156.304 26.58C155.704 26.9 154.984 27.06 154.144 27.06ZM154.144 25C154.651 25 155.064 24.8667 155.384 24.6C155.704 24.32 155.864 23.9267 155.864 23.42C155.864 22.9267 155.704 22.5467 155.384 22.28C155.064 22.0133 154.651 21.88 154.144 21.88C153.624 21.88 153.198 22.0133 152.864 22.28C152.544 22.5467 152.384 22.9267 152.384 23.42C152.384 23.9267 152.544 24.32 152.864 24.6C153.198 24.8667 153.624 25 154.144 25ZM155.784 21.92L155.324 20.02H159.484V21.62L155.784 21.92Z" fill="#B4ACAD"/>
<defs>
<filter id="filter0_d_669_224" x="0" y="0" width="56" height="56" filterUnits="userSpaceOnUse" color-interpolation-filters="sRGB">
<feFlood flood-opacity="0" result="BackgroundImageFix"/>
<feColorMatrix in="SourceAlpha" type="matrix" values="0 0 0 0 0 0 0 0 0 0 0 0 0 0 0 0 0 0 127 0" result="hardAlpha"/>
<feOffset dy="5"/>
<feGaussianBlur stdDeviation="3"/>
<feComposite in2="hardAlpha" operator="out"/>
<feColorMatrix type="matrix" values="0 0 0 0 0 0 0 0 0 0 0 0 0 0 0 0 0 0 0.2 0"/>
<feBlend mode="normal" in2="BackgroundImageFix" result="effect1_dropShadow_669_224"/>
<feBlend mode="normal" in="SourceGraphic" in2="effect1_dropShadow_669_224" result="shape"/>
</filter>
</defs>
</svg>
