<svg width="29" height="28" viewBox="0 0 29 28" fill="none" xmlns="http://www.w3.org/2000/svg">
<g id="Notifica&#195;&#167;&#195;&#163;o">
<path id="Vector" d="M27.4631 19.3315C27.3422 19.2065 27.2234 19.0815 27.1069 18.9609C25.504 17.2978 24.5343 16.294 24.5343 11.586C24.5343 9.14856 23.8546 7.1486 22.5148 5.64863C21.5269 4.54053 20.1914 3.69992 18.4313 3.07869C18.4086 3.06788 18.3884 3.0537 18.3715 3.03681C17.7384 1.2181 16.0059 0 14.0519 0C12.098 0 10.3662 1.2181 9.73308 3.03494C9.71618 3.0512 9.69624 3.06493 9.67407 3.07556C5.56649 4.52616 3.57026 7.30923 3.57026 11.5841C3.57026 16.294 2.60201 17.2978 0.997742 18.959C0.881173 19.0796 0.762419 19.2021 0.64148 19.3296C0.329077 19.6528 0.131144 20.046 0.0711061 20.4627C0.0110678 20.8794 0.0914371 21.3021 0.302703 21.6808C0.752219 22.4933 1.71027 22.9977 2.80382 22.9977H25.3081C26.3965 22.9977 27.348 22.4939 27.799 21.6852C28.0112 21.3064 28.0923 20.8833 28.0328 20.4661C27.9732 20.049 27.7756 19.6552 27.4631 19.3315Z" fill="#FF1A66"/>
<path id="Vector_2" d="M14.0517 27.9999C15.1045 27.9992 16.1374 27.7541 17.0409 27.2905C17.9445 26.8269 18.6849 26.1622 19.1836 25.3669C19.2071 25.3288 19.2187 25.2861 19.2173 25.243C19.2159 25.1999 19.2015 25.1578 19.1756 25.1209C19.1496 25.084 19.113 25.0534 19.0692 25.0323C19.0254 25.0111 18.976 25 18.9257 25H9.17916C9.12884 24.9999 9.07933 25.0109 9.03545 25.032C8.99157 25.0532 8.95482 25.0837 8.92877 25.1206C8.90273 25.1576 8.88828 25.1997 8.88684 25.2428C8.88539 25.286 8.897 25.3287 8.92053 25.3669C9.41925 26.1621 10.1595 26.8268 11.0629 27.2903C11.9663 27.7539 12.9991 27.9991 14.0517 27.9999Z" fill="#FF1A66"/>
</g>
</svg>
