<svg width="17" height="20" viewBox="0 0 17 20" fill="none" xmlns="http://www.w3.org/2000/svg">
<path id="Vector" d="M8.38483 15.2381C8.92886 15.2381 9.45061 15.0374 9.8353 14.6802C10.22 14.323 10.4361 13.8385 10.4361 13.3333C10.4361 12.2762 9.51303 11.4286 8.38483 11.4286C7.84079 11.4286 7.31904 11.6293 6.93435 11.9865C6.54966 12.3437 6.33354 12.8282 6.33354 13.3333C6.33354 13.8385 6.54966 14.323 6.93435 14.6802C7.31904 15.0374 7.84079 15.2381 8.38483 15.2381ZM14.5387 6.66667C15.0827 6.66667 15.6045 6.86735 15.9892 7.22456C16.3738 7.58177 16.59 8.06625 16.59 8.57143V18.0952C16.59 18.6004 16.3738 19.0849 15.9892 19.4421C15.6045 19.7993 15.0827 20 14.5387 20H2.23097C1.68694 20 1.16519 19.7993 0.780495 19.4421C0.395804 19.0849 0.179688 18.6004 0.179688 18.0952V8.57143C0.179688 7.51429 1.10277 6.66667 2.23097 6.66667H2.25661C2.8089 6.66667 3.25661 6.21895 3.25661 5.66667V4.7619C3.25661 3.49897 3.79691 2.28776 4.75863 1.39473C5.72036 0.501699 7.02474 0 8.38483 0C9.05827 0 9.72512 0.12317 10.3473 0.362478C10.9695 0.601787 11.5348 0.952546 12.011 1.39473C12.4872 1.83691 12.865 2.36186 13.1227 2.9396C13.3804 3.51734 13.513 4.13656 13.513 4.7619V5.66667C13.513 6.21895 13.9608 6.66667 14.513 6.66667H14.5387ZM8.38483 1.90476C7.56877 1.90476 6.78615 2.20578 6.20911 2.7416C5.63207 3.27742 5.3079 4.00414 5.3079 4.7619V5.66667C5.3079 6.21895 5.75561 6.66667 6.3079 6.66667H10.4618C11.014 6.66667 11.4618 6.21895 11.4618 5.66667V4.7619C11.4618 4.00414 11.1376 3.27742 10.5605 2.7416C9.98351 2.20578 9.20088 1.90476 8.38483 1.90476Z" fill="#FF1A66"/>
</svg>
