<svg width="119" height="56" viewBox="0 0 119 56" fill="none" xmlns="http://www.w3.org/2000/svg">
<g filter="url(#filter0_d_670_237)">
<rect x="6" y="1" width="44" height="44" rx="18" fill="#FF1A66" shape-rendering="crispEdges"/>
<path d="M28 9C29.8565 9 31.637 9.7375 32.9497 11.0503C34.2625 12.363 35 14.1435 35 16C35 17.8565 34.2625 19.637 32.9497 20.9497C31.637 22.2625 29.8565 23 28 23C26.1435 23 24.363 22.2625 23.0503 20.9497C21.7375 19.637 21 17.8565 21 16C21 14.1435 21.7375 12.363 23.0503 11.0503C24.363 9.7375 26.1435 9 28 9ZM28 26.5C35.735 26.5 42 29.6325 42 33.5V33.5C42 35.433 40.433 37 38.5 37H17.5C15.567 37 14 35.433 14 33.5V33.5C14 29.6325 20.265 26.5 28 26.5Z" fill="#FFF3FA"/>
</g>
<path d="M63.36 29.5V15.5H68.62C69.74 15.5 70.6733 15.6933 71.42 16.08C72.1667 16.4533 72.72 16.9667 73.08 17.62C73.44 18.2733 73.62 19.02 73.62 19.86C73.62 20.62 73.4467 21.3333 73.1 22C72.7533 22.6533 72.2067 23.18 71.46 23.58C70.7267 23.98 69.78 24.18 68.62 24.18H66.06V29.5H63.36ZM66.06 22H68.44C69.3067 22 69.9267 21.8067 70.3 21.42C70.6867 21.0333 70.88 20.5133 70.88 19.86C70.88 19.18 70.6867 18.6533 70.3 18.28C69.9267 17.8933 69.3067 17.7 68.44 17.7H66.06V22ZM79.8983 29.74C78.8849 29.74 77.9849 29.5267 77.1983 29.1C76.4249 28.66 75.8183 28.0533 75.3783 27.28C74.9383 26.5067 74.7183 25.6133 74.7183 24.6C74.7183 23.56 74.9316 22.64 75.3583 21.84C75.7983 21.04 76.4049 20.4133 77.1783 19.96C77.9649 19.5067 78.8716 19.28 79.8983 19.28C80.8983 19.28 81.7716 19.5 82.5183 19.94C83.2649 20.3667 83.8516 20.9533 84.2783 21.7C84.7049 22.4333 84.9183 23.2733 84.9183 24.22C84.9183 24.3533 84.9116 24.5 84.8983 24.66C84.8983 24.82 84.8849 24.9933 84.8583 25.18H76.6583V23.52H82.1783C82.1383 22.8933 81.9049 22.3933 81.4783 22.02C81.0649 21.6467 80.5449 21.46 79.9183 21.46C79.4516 21.46 79.0249 21.5667 78.6383 21.78C78.2516 21.98 77.9449 22.2933 77.7183 22.72C77.4916 23.1333 77.3783 23.66 77.3783 24.3V24.88C77.3783 25.4133 77.4849 25.88 77.6983 26.28C77.9116 26.68 78.2049 26.9933 78.5783 27.22C78.9649 27.4333 79.3983 27.54 79.8783 27.54C80.3716 27.54 80.7849 27.4333 81.1183 27.22C81.4516 27.0067 81.6983 26.72 81.8583 26.36H84.6183C84.4316 27 84.1183 27.5733 83.6783 28.08C83.2383 28.5867 82.6983 28.9933 82.0583 29.3C81.4183 29.5933 80.6983 29.74 79.8983 29.74ZM87.0695 29.5V19.52H89.4695L89.7295 21.38C89.9829 20.94 90.2829 20.5667 90.6295 20.26C90.9895 19.9533 91.4029 19.7133 91.8695 19.54C92.3362 19.3667 92.8495 19.28 93.4095 19.28V22.14H92.5895C92.1762 22.14 91.7962 22.1867 91.4495 22.28C91.1029 22.36 90.8029 22.5067 90.5495 22.72C90.3095 22.9333 90.1162 23.2267 89.9695 23.6C89.8362 23.96 89.7695 24.4133 89.7695 24.96V29.5H87.0695ZM95.5955 29.5V21.78H94.2555V19.52H95.5955V18.52C95.5955 17.68 95.7355 17.0133 96.0155 16.52C96.3088 16.0267 96.7155 15.6667 97.2355 15.44C97.7555 15.2133 98.3688 15.1 99.0755 15.1H100.195V17.4H99.4955C99.0688 17.4 98.7621 17.4867 98.5755 17.66C98.3888 17.82 98.2955 18.1 98.2955 18.5V19.52H104.695V29.5H101.995V21.78H98.2955V29.5H95.5955ZM103.355 18.16C102.875 18.16 102.475 18.02 102.155 17.74C101.849 17.4467 101.695 17.08 101.695 16.64C101.695 16.2 101.849 15.84 102.155 15.56C102.475 15.2667 102.875 15.12 103.355 15.12C103.862 15.12 104.269 15.2667 104.575 15.56C104.882 15.84 105.035 16.2 105.035 16.64C105.035 17.08 104.882 17.4467 104.575 17.74C104.269 18.02 103.862 18.16 103.355 18.16ZM107.382 29.5V15.1H110.082V29.5H107.382Z" fill="#500124"/>
<defs>
<filter id="filter0_d_670_237" x="0" y="0" width="56" height="56" filterUnits="userSpaceOnUse" color-interpolation-filters="sRGB">
<feFlood flood-opacity="0" result="BackgroundImageFix"/>
<feColorMatrix in="SourceAlpha" type="matrix" values="0 0 0 0 0 0 0 0 0 0 0 0 0 0 0 0 0 0 127 0" result="hardAlpha"/>
<feOffset dy="5"/>
<feGaussianBlur stdDeviation="3"/>
<feComposite in2="hardAlpha" operator="out"/>
<feColorMatrix type="matrix" values="0 0 0 0 0 0 0 0 0 0 0 0 0 0 0 0 0 0 0.2 0"/>
<feBlend mode="normal" in2="BackgroundImageFix" result="effect1_dropShadow_670_237"/>
<feBlend mode="normal" in="SourceGraphic" in2="effect1_dropShadow_670_237" result="shape"/>
</filter>
</defs>
</svg>
