<svg width="780" height="136" viewBox="0 0 780 136" fill="none" xmlns="http://www.w3.org/2000/svg">
<g filter="url(#filter0_d_320_687)">
<rect x="29" y="28" width="720" height="72" rx="14.5349" fill="white"/>
<path d="M85.5094 56.9189C85.3536 56.8386 85.202 56.7507 85.0551 56.6554C84.6279 56.3738 84.2361 56.0421 83.8884 55.6674C83.0183 54.6751 82.6933 53.6684 82.5736 52.9636H82.5784C82.4784 52.3785 82.5198 52 82.526 52H78.563V67.2741C78.563 67.4792 78.563 67.6819 78.5543 67.8821C78.5543 67.9071 78.5519 67.9301 78.5505 67.9569C78.5505 67.9679 78.5505 67.9794 78.5481 67.9909C78.5481 67.9938 78.5481 67.9967 78.5481 67.9995C78.5063 68.5476 78.33 69.077 78.0348 69.5412C77.7396 70.0054 77.3344 70.3902 76.8549 70.6617C76.3553 70.945 75.7901 71.0936 75.2152 71.0929C73.3688 71.0929 71.8723 69.5922 71.8723 67.7389C71.8723 65.8856 73.3688 64.3849 75.2152 64.3849C75.5647 64.3846 75.9121 64.4394 76.2444 64.5473L76.2492 60.5254C75.2404 60.3955 74.2155 60.4754 73.2391 60.7601C72.2628 61.0448 71.3563 61.528 70.5767 62.1794C69.8936 62.7709 69.3194 63.4768 68.8798 64.2651C68.7125 64.5526 68.0813 65.7078 68.0049 67.5827C67.9568 68.6469 68.2774 69.7494 68.4303 70.205V70.2146C68.5264 70.4829 68.899 71.3986 69.5062 72.1705C69.9957 72.7897 70.5742 73.3336 71.2228 73.7847V73.7751L71.2324 73.7847C73.151 75.0841 75.2782 74.9989 75.2782 74.9989C75.6464 74.984 76.8799 74.9989 78.2808 74.3372C79.8345 73.6036 80.719 72.5107 80.719 72.5107C81.2841 71.8576 81.7334 71.1134 82.0477 70.31C82.4063 69.3704 82.526 68.2434 82.526 67.793V59.6898C82.5741 59.7185 83.2144 60.1406 83.2144 60.1406C83.2144 60.1406 84.1369 60.73 85.5762 61.1138C86.6088 61.3869 88 61.4444 88 61.4444V57.5231C87.5125 57.5758 86.5227 57.4225 85.5094 56.9189Z" fill="#FF1A66"/>
<circle cx="104.876" cy="51.8447" r="3.87597" fill="#8F0C49"/>
<path d="M116.485 56V48.8605H114.078V47.8605H120.112V48.8605H117.717V56H116.485ZM121.684 49.1395C121.452 49.1395 121.258 49.0698 121.103 48.9302C120.956 48.7829 120.882 48.6008 120.882 48.3837C120.882 48.1667 120.956 47.9884 121.103 47.8488C121.258 47.7016 121.452 47.6279 121.684 47.6279C121.917 47.6279 122.107 47.7016 122.254 47.8488C122.409 47.9884 122.487 48.1667 122.487 48.3837C122.487 48.6008 122.409 48.7829 122.254 48.9302C122.107 49.0698 121.917 49.1395 121.684 49.1395ZM121.068 56V50.2326H122.301V56H121.068ZM123.695 56V47.6279H124.928V52.6163L127.137 50.2326H128.614L126.16 52.8488L128.974 56H127.416L124.928 53.0465V56H123.695ZM131.65 56V48.8605H129.243V47.8605H135.278V48.8605H132.883V56H131.65ZM137.806 56.1395C137.255 56.1395 136.759 56.0155 136.317 55.7674C135.883 55.5116 135.538 55.1589 135.282 54.7093C135.026 54.2519 134.899 53.7209 134.899 53.1163C134.899 52.5116 135.026 51.9845 135.282 51.5349C135.546 51.0775 135.899 50.7248 136.34 50.4767C136.782 50.2209 137.275 50.093 137.817 50.093C138.368 50.093 138.86 50.2209 139.294 50.4767C139.736 50.7248 140.085 51.0775 140.34 51.5349C140.604 51.9845 140.736 52.5116 140.736 53.1163C140.736 53.7209 140.604 54.2519 140.34 54.7093C140.085 55.1589 139.736 55.5116 139.294 55.7674C138.852 56.0155 138.356 56.1395 137.806 56.1395ZM137.806 55.0814C138.1 55.0814 138.371 55.0078 138.62 54.8605C138.875 54.7132 139.081 54.4961 139.236 54.2093C139.391 53.9147 139.468 53.5504 139.468 53.1163C139.468 52.6822 139.391 52.3217 139.236 52.0349C139.088 51.7403 138.887 51.5194 138.631 51.3721C138.383 51.2248 138.112 51.1512 137.817 51.1512C137.523 51.1512 137.247 51.2248 136.992 51.3721C136.744 51.5194 136.542 51.7403 136.387 52.0349C136.232 52.3217 136.154 52.6822 136.154 53.1163C136.154 53.5504 136.232 53.9147 136.387 54.2093C136.542 54.4961 136.744 54.7132 136.992 54.8605C137.24 55.0078 137.511 55.0814 137.806 55.0814ZM141.836 56V47.6279H143.069V52.6163L145.278 50.2326H146.755L144.301 52.8488L147.115 56H145.557L143.069 53.0465V56H141.836Z" fill="#8D8385"/>
<path d="M120.871 74.8992C119.953 74.8992 119.179 74.7306 118.551 74.3934C117.923 74.0562 117.418 73.6027 117.034 73.033C116.65 72.4632 116.371 71.8295 116.197 71.1318C116.034 70.4341 115.953 69.719 115.953 68.9865C115.953 67.626 116.144 66.4458 116.528 65.4458C116.912 64.4341 117.464 63.6551 118.185 63.1085C118.906 62.5504 119.778 62.2713 120.801 62.2713C121.639 62.2713 122.348 62.4399 122.929 62.7772C123.522 63.1027 123.982 63.533 124.307 64.0678C124.633 64.6027 124.825 65.1783 124.883 65.7946H122.807C122.703 65.2597 122.476 64.8469 122.127 64.5562C121.778 64.2655 121.33 64.1202 120.784 64.1202C120.005 64.1202 119.377 64.4806 118.9 65.2016C118.423 65.9109 118.168 66.9981 118.133 68.4632C118.412 67.9865 118.83 67.5911 119.389 67.2772C119.947 66.9632 120.569 66.8062 121.255 66.8062C121.929 66.8062 122.563 66.969 123.156 67.2946C123.749 67.6202 124.226 68.0795 124.586 68.6725C124.958 69.2655 125.144 69.9632 125.144 70.7655C125.144 71.4981 124.964 72.1783 124.604 72.8062C124.255 73.4341 123.755 73.9399 123.104 74.3237C122.464 74.7074 121.72 74.8992 120.871 74.8992ZM120.749 72.9806C121.4 72.9806 121.935 72.783 122.354 72.3876C122.784 71.9806 122.999 71.469 122.999 70.8527C122.999 70.2016 122.784 69.6783 122.354 69.283C121.923 68.8876 121.377 68.6899 120.714 68.6899C120.284 68.6899 119.894 68.7888 119.546 68.9865C119.208 69.1725 118.941 69.4283 118.743 69.7539C118.546 70.0678 118.447 70.4225 118.447 70.8178C118.447 71.4458 118.662 71.9632 119.092 72.3702C119.534 72.7772 120.086 72.9806 120.749 72.9806ZM130.984 74.8992C130.181 74.8992 129.455 74.7597 128.804 74.4806C128.152 74.1899 127.629 73.7481 127.234 73.1551C126.838 72.562 126.629 71.8178 126.606 70.9225H128.804C128.815 71.5155 129.007 72.0155 129.379 72.4225C129.763 72.8178 130.298 73.0155 130.984 73.0155C131.635 73.0155 132.135 72.8353 132.484 72.4748C132.833 72.1144 133.007 71.6609 133.007 71.1144C133.007 70.4748 132.774 69.9923 132.309 69.6667C131.856 69.3295 131.269 69.1609 130.548 69.1609H129.641V67.3295H130.565C131.158 67.3295 131.652 67.1899 132.048 66.9109C132.443 66.6318 132.641 66.219 132.641 65.6725C132.641 65.219 132.49 64.8585 132.187 64.5911C131.897 64.312 131.49 64.1725 130.966 64.1725C130.397 64.1725 129.949 64.3411 129.623 64.6783C129.309 65.0155 129.135 65.4283 129.1 65.9167H126.92C126.966 64.7888 127.356 63.8992 128.088 63.2481C128.833 62.5969 129.792 62.2713 130.966 62.2713C131.804 62.2713 132.507 62.4225 133.077 62.7248C133.658 63.0155 134.094 63.4051 134.385 63.8934C134.687 64.3818 134.838 64.9225 134.838 65.5155C134.838 66.2016 134.647 66.783 134.263 67.2597C133.891 67.7248 133.426 68.0388 132.867 68.2016C133.554 68.3411 134.112 68.6783 134.542 69.2132C134.972 69.7365 135.187 70.3992 135.187 71.2016C135.187 71.876 135.024 72.4923 134.699 73.0504C134.373 73.6085 133.897 74.0562 133.269 74.3934C132.652 74.7306 131.891 74.8992 130.984 74.8992ZM139.389 68.4806C138.831 68.4806 138.325 68.3585 137.872 68.1144C137.418 67.8585 137.058 67.4981 136.79 67.033C136.523 66.5678 136.389 66.0155 136.389 65.376C136.389 64.7365 136.523 64.1841 136.79 63.719C137.058 63.2539 137.418 62.8992 137.872 62.6551C138.325 62.3992 138.837 62.2713 139.407 62.2713C139.965 62.2713 140.465 62.3992 140.907 62.6551C141.36 62.8992 141.721 63.2539 141.988 63.719C142.256 64.1841 142.389 64.7365 142.389 65.376C142.389 66.0155 142.256 66.5678 141.988 67.033C141.721 67.4981 141.36 67.8585 140.907 68.1144C140.453 68.3585 139.947 68.4806 139.389 68.4806ZM138.726 74.6899L145.616 62.4806H147.796L140.907 74.6899H138.726ZM139.389 66.9283C139.726 66.9283 140.017 66.8004 140.261 66.5446C140.506 66.2772 140.628 65.8876 140.628 65.376C140.628 64.8644 140.506 64.4748 140.261 64.2074C140.029 63.9399 139.738 63.8062 139.389 63.8062C139.04 63.8062 138.744 63.9399 138.5 64.2074C138.267 64.4748 138.151 64.8644 138.151 65.376C138.151 65.8876 138.267 66.2772 138.5 66.5446C138.744 66.8004 139.04 66.9283 139.389 66.9283ZM147.203 74.8992C146.645 74.8992 146.139 74.7772 145.686 74.533C145.232 74.2772 144.872 73.9167 144.604 73.4516C144.337 72.9865 144.203 72.4341 144.203 71.7946C144.203 71.1551 144.337 70.6085 144.604 70.1551C144.872 69.6899 145.232 69.3353 145.686 69.0911C146.139 68.8353 146.651 68.7074 147.221 68.7074C147.779 68.7074 148.279 68.8353 148.721 69.0911C149.174 69.3353 149.535 69.6899 149.802 70.1551C150.069 70.6085 150.203 71.1551 150.203 71.7946C150.203 72.4341 150.069 72.9865 149.802 73.4516C149.535 73.9167 149.174 74.2772 148.721 74.533C148.279 74.7772 147.773 74.8992 147.203 74.8992ZM147.203 73.3469C147.552 73.3469 147.843 73.219 148.075 72.9632C148.319 72.6958 148.442 72.3062 148.442 71.7946C148.442 71.283 148.319 70.8934 148.075 70.626C147.843 70.3585 147.552 70.2248 147.203 70.2248C146.854 70.2248 146.558 70.3585 146.314 70.626C146.081 70.8934 145.965 71.283 145.965 71.7946C145.965 72.3062 146.081 72.6958 146.314 72.9632C146.558 73.219 146.854 73.3469 147.203 73.3469Z" fill="#500124"/>
<line x1="250.516" y1="85" x2="250.516" y2="41" stroke="#500124" stroke-width="0.968992"/>
<path d="M345.96 51H356.04C359.88 51 363 54.12 363 57.96V68.04C363 69.8859 362.267 71.6562 360.961 72.9615C359.656 74.2667 357.886 75 356.04 75H345.96C342.12 75 339 71.88 339 68.04V57.96C339 56.1141 339.733 54.3438 341.039 53.0385C342.344 51.7333 344.114 51 345.96 51ZM345.72 53.4C344.574 53.4 343.475 53.8551 342.665 54.6653C341.855 55.4755 341.4 56.5743 341.4 57.72V68.28C341.4 70.668 343.332 72.6 345.72 72.6H356.28C357.426 72.6 358.525 72.1449 359.335 71.3347C360.145 70.5245 360.6 69.4257 360.6 68.28V57.72C360.6 55.332 358.668 53.4 356.28 53.4H345.72ZM357.3 55.2C357.698 55.2 358.079 55.358 358.361 55.6393C358.642 55.9206 358.8 56.3022 358.8 56.7C358.8 57.0978 358.642 57.4794 358.361 57.7607C358.079 58.042 357.698 58.2 357.3 58.2C356.902 58.2 356.521 58.042 356.239 57.7607C355.958 57.4794 355.8 57.0978 355.8 56.7C355.8 56.3022 355.958 55.9206 356.239 55.6393C356.521 55.358 356.902 55.2 357.3 55.2ZM351 57C352.591 57 354.117 57.6321 355.243 58.7574C356.368 59.8826 357 61.4087 357 63C357 64.5913 356.368 66.1174 355.243 67.2426C354.117 68.3679 352.591 69 351 69C349.409 69 347.883 68.3679 346.757 67.2426C345.632 66.1174 345 64.5913 345 63C345 61.4087 345.632 59.8826 346.757 58.7574C347.883 57.6321 349.409 57 351 57ZM351 59.4C350.045 59.4 349.13 59.7793 348.454 60.4544C347.779 61.1295 347.4 62.0452 347.4 63C347.4 63.9548 347.779 64.8705 348.454 65.5456C349.13 66.2207 350.045 66.6 351 66.6C351.955 66.6 352.87 66.2207 353.546 65.5456C354.221 64.8705 354.6 63.9548 354.6 63C354.6 62.0452 354.221 61.1295 353.546 60.4544C352.87 59.7793 351.955 59.4 351 59.4Z" fill="#FF1A66"/>
<circle cx="374.876" cy="54.748" r="3.87597" fill="#FF1A66"/>
<path d="M384.578 58.748V50.6085H385.81V58.748H384.578ZM387.183 58.748V52.9806H388.276L388.369 53.9922C388.547 53.6356 388.807 53.3566 389.148 53.155C389.497 52.9457 389.896 52.8411 390.346 52.8411C391.043 52.8411 391.59 53.0581 391.985 53.4922C392.388 53.9263 392.59 54.5736 392.59 55.4341V58.748H391.369V55.562C391.369 54.4457 390.911 53.8876 389.997 53.8876C389.539 53.8876 389.159 54.0504 388.857 54.376C388.563 54.7015 388.415 55.1667 388.415 55.7713V58.748H387.183ZM396.111 58.8876C395.382 58.8876 394.782 58.7093 394.309 58.3527C393.836 57.9961 393.565 57.5232 393.495 56.9341H394.739C394.801 57.1977 394.948 57.4263 395.181 57.6201C395.413 57.8062 395.72 57.8992 396.1 57.8992C396.472 57.8992 396.743 57.8217 396.913 57.6667C397.084 57.5116 397.169 57.3333 397.169 57.1318C397.169 56.8372 397.049 56.6395 396.809 56.5387C396.576 56.4302 396.251 56.3333 395.832 56.248C395.506 56.1783 395.181 56.0853 394.855 55.969C394.538 55.8527 394.27 55.6899 394.053 55.4806C393.844 55.2636 393.739 54.9729 393.739 54.6085C393.739 54.1046 393.933 53.686 394.32 53.3527C394.708 53.0116 395.251 52.8411 395.948 52.8411C396.592 52.8411 397.111 52.9961 397.506 53.3062C397.91 53.6163 398.146 54.0542 398.216 54.6201H397.03C396.991 54.3721 396.875 54.1783 396.681 54.0387C396.495 53.8992 396.243 53.8294 395.925 53.8294C395.615 53.8294 395.375 53.8953 395.204 54.0271C395.034 54.1511 394.948 54.3139 394.948 54.5155C394.948 54.717 395.065 54.876 395.297 54.9922C395.538 55.1085 395.851 55.2132 396.239 55.3062C396.627 55.3915 396.983 55.4922 397.309 55.6085C397.642 55.717 397.91 55.8798 398.111 56.0969C398.313 56.3139 398.413 56.6318 398.413 57.0504C398.421 57.5775 398.216 58.0155 397.797 58.3643C397.386 58.7132 396.824 58.8876 396.111 58.8876ZM401.729 58.748C401.163 58.748 400.714 58.6124 400.38 58.3411C400.047 58.062 399.88 57.5698 399.88 56.8643V54.0155H398.892V52.9806H399.88L400.032 51.5155H401.113V52.9806H402.741V54.0155H401.113V56.8643C401.113 57.1822 401.179 57.4031 401.311 57.5271C401.45 57.6434 401.687 57.7015 402.02 57.7015H402.683V58.748H401.729ZM405.733 58.8876C405.244 58.8876 404.841 58.8062 404.523 58.6434C404.206 58.4806 403.969 58.2674 403.814 58.0039C403.659 57.7325 403.582 57.438 403.582 57.1201C403.582 56.562 403.799 56.1201 404.233 55.7946C404.667 55.469 405.287 55.3062 406.093 55.3062H407.605V55.2015C407.605 54.7519 407.481 54.4147 407.233 54.1899C406.992 53.9651 406.679 53.8527 406.291 53.8527C405.95 53.8527 405.651 53.938 405.396 54.1085C405.148 54.2713 404.996 54.5155 404.942 54.8411H403.71C403.748 54.4225 403.888 54.0659 404.128 53.7713C404.376 53.469 404.686 53.2403 405.058 53.0853C405.438 52.9225 405.853 52.8411 406.303 52.8411C407.109 52.8411 407.733 53.0542 408.175 53.4806C408.617 53.8992 408.837 54.4729 408.837 55.2015V58.748H407.768L407.663 57.7597C407.5 58.0775 407.264 58.3449 406.954 58.562C406.644 58.7791 406.237 58.8876 405.733 58.8876ZM405.977 57.8876C406.31 57.8876 406.589 57.8101 406.814 57.655C407.047 57.4922 407.225 57.2791 407.349 57.0155C407.481 56.7519 407.562 56.4612 407.593 56.1434H406.221C405.733 56.1434 405.384 56.2287 405.175 56.3992C404.973 56.5698 404.872 56.7829 404.872 57.0387C404.872 57.3023 404.969 57.5116 405.163 57.6667C405.365 57.8139 405.636 57.8876 405.977 57.8876ZM412.402 56.9806C412.1 56.9806 411.821 56.9457 411.565 56.876L411.065 57.3643C411.151 57.4186 411.255 57.4651 411.379 57.5039C411.503 57.5426 411.678 57.5775 411.902 57.6085C412.127 57.6395 412.433 57.6705 412.821 57.7015C413.589 57.7713 414.143 57.9573 414.484 58.2597C414.825 58.5542 414.996 58.9496 414.996 59.4457C414.996 59.7868 414.902 60.1085 414.716 60.4108C414.538 60.7209 414.255 60.969 413.868 61.155C413.488 61.3488 412.999 61.4457 412.402 61.4457C411.596 61.4457 410.941 61.2907 410.437 60.9806C409.941 60.6783 409.693 60.217 409.693 59.5969C409.693 59.3566 409.755 59.1163 409.879 58.876C410.011 58.6434 410.216 58.4225 410.496 58.2132C410.333 58.1434 410.189 58.0698 410.065 57.9922C409.949 57.907 409.844 57.8217 409.751 57.7364V57.4573L410.751 56.4341C410.302 56.0465 410.077 55.5387 410.077 54.9108C410.077 54.531 410.166 54.186 410.344 53.876C410.53 53.5581 410.798 53.3062 411.147 53.1201C411.496 52.9341 411.914 52.8411 412.402 52.8411C412.728 52.8411 413.03 52.8876 413.309 52.9806H415.461V53.7946L414.437 53.8527C414.623 54.1705 414.716 54.5232 414.716 54.9108C414.716 55.2984 414.623 55.6473 414.437 55.9573C414.259 56.2674 413.996 56.5155 413.647 56.7015C413.306 56.8876 412.891 56.9806 412.402 56.9806ZM412.402 56.0155C412.759 56.0155 413.046 55.9225 413.263 55.7364C413.488 55.5426 413.6 55.2713 413.6 54.9225C413.6 54.5659 413.488 54.2946 413.263 54.1085C413.046 53.9225 412.759 53.8294 412.402 53.8294C412.038 53.8294 411.744 53.9225 411.519 54.1085C411.302 54.2946 411.193 54.5659 411.193 54.9225C411.193 55.2713 411.302 55.5426 411.519 55.7364C411.744 55.9225 412.038 56.0155 412.402 56.0155ZM410.856 59.4806C410.856 59.8139 411.003 60.062 411.298 60.2248C411.592 60.3953 411.961 60.4806 412.402 60.4806C412.829 60.4806 413.174 60.3876 413.437 60.2015C413.701 60.0232 413.833 59.7829 413.833 59.4806C413.833 59.2558 413.744 59.062 413.565 58.8992C413.387 58.7442 413.05 58.6473 412.554 58.6085C412.182 58.5853 411.852 58.5504 411.565 58.5039C411.294 58.6511 411.108 58.8101 411.007 58.9806C410.906 59.1511 410.856 59.3178 410.856 59.4806ZM416.327 58.748V52.9806H417.432L417.537 54.0736C417.738 53.6938 418.017 53.3953 418.374 53.1783C418.738 52.9535 419.176 52.8411 419.688 52.8411V54.1318H419.351C419.01 54.1318 418.703 54.1899 418.432 54.3062C418.169 54.4147 417.955 54.6046 417.793 54.876C417.638 55.1395 417.56 55.5077 417.56 55.9806V58.748H416.327ZM422.466 58.8876C421.977 58.8876 421.574 58.8062 421.256 58.6434C420.938 58.4806 420.702 58.2674 420.547 58.0039C420.392 57.7325 420.314 57.438 420.314 57.1201C420.314 56.562 420.532 56.1201 420.966 55.7946C421.4 55.469 422.02 55.3062 422.826 55.3062H424.338V55.2015C424.338 54.7519 424.214 54.4147 423.966 54.1899C423.725 53.9651 423.411 53.8527 423.024 53.8527C422.683 53.8527 422.384 53.938 422.128 54.1085C421.88 54.2713 421.729 54.5155 421.675 54.8411H420.442C420.481 54.4225 420.621 54.0659 420.861 53.7713C421.109 53.469 421.419 53.2403 421.791 53.0853C422.171 52.9225 422.586 52.8411 423.035 52.8411C423.842 52.8411 424.466 53.0542 424.907 53.4806C425.349 53.8992 425.57 54.4729 425.57 55.2015V58.748H424.501L424.396 57.7597C424.233 58.0775 423.997 58.3449 423.687 58.562C423.376 58.7791 422.969 58.8876 422.466 58.8876ZM422.71 57.8876C423.043 57.8876 423.322 57.8101 423.547 57.655C423.78 57.4922 423.958 57.2791 424.082 57.0155C424.214 56.7519 424.295 56.4612 424.326 56.1434H422.954C422.466 56.1434 422.117 56.2287 421.907 56.3992C421.706 56.5698 421.605 56.7829 421.605 57.0387C421.605 57.3023 421.702 57.5116 421.896 57.6667C422.097 57.8139 422.369 57.8876 422.71 57.8876ZM426.775 58.748V52.9806H427.868L427.973 53.7946C428.159 53.5 428.403 53.2674 428.705 53.0969C429.015 52.9263 429.372 52.8411 429.775 52.8411C430.69 52.8411 431.325 53.2015 431.682 53.9225C431.891 53.5891 432.17 53.3256 432.519 53.1318C432.876 52.938 433.259 52.8411 433.67 52.8411C434.391 52.8411 434.957 53.0581 435.368 53.4922C435.779 53.9263 435.984 54.5736 435.984 55.4341V58.748H434.752V55.562C434.752 54.4457 434.325 53.8876 433.473 53.8876C433.038 53.8876 432.682 54.0504 432.403 54.376C432.131 54.7015 431.996 55.1667 431.996 55.7713V58.748H430.763V55.562C430.763 54.4457 430.333 53.8876 429.473 53.8876C429.046 53.8876 428.693 54.0504 428.414 54.376C428.143 54.7015 428.007 55.1667 428.007 55.7713V58.748H426.775Z" fill="#8D8385"/>
<path d="M387.119 79.748V78.126C387.863 77.5097 388.584 76.8992 389.282 76.2946C389.991 75.6899 390.619 75.0911 391.165 74.498C391.724 73.905 392.165 73.3294 392.491 72.7713C392.828 72.2015 392.997 71.6492 392.997 71.1143C392.997 70.6143 392.857 70.1725 392.578 69.7887C392.311 69.405 391.863 69.2132 391.235 69.2132C390.596 69.2132 390.113 69.4225 389.788 69.8411C389.462 70.2597 389.299 70.7655 389.299 71.3585H387.136C387.16 70.4632 387.357 69.719 387.729 69.126C388.101 68.5213 388.596 68.0736 389.212 67.7829C389.828 67.4806 390.52 67.3294 391.288 67.3294C392.532 67.3294 393.497 67.6725 394.183 68.3585C394.881 69.0329 395.229 69.9108 395.229 70.9922C395.229 71.6667 395.072 72.3236 394.758 72.9632C394.456 73.6027 394.055 74.219 393.555 74.812C393.055 75.405 392.514 75.9632 391.933 76.4864C391.351 76.998 390.788 77.4748 390.241 77.9167H395.526V79.748H387.119ZM401.409 79.9573C400.513 79.9573 399.74 79.8004 399.089 79.4864C398.45 79.1725 397.944 78.7422 397.572 78.1957C397.211 77.6376 397.002 77.0097 396.944 76.312H399.124C399.229 76.812 399.484 77.2306 399.891 77.5678C400.298 77.8934 400.804 78.0562 401.409 78.0562C402.06 78.0562 402.589 77.8178 402.996 77.3411C403.415 76.8643 403.624 76.2713 403.624 75.562C403.624 74.8294 403.415 74.248 402.996 73.8178C402.589 73.3876 402.072 73.1725 401.444 73.1725C400.92 73.1725 400.467 73.3004 400.083 73.5562C399.7 73.812 399.426 74.1318 399.263 74.5155H397.118L398.165 67.5387H404.932V69.4922H399.839L399.281 72.3178C399.537 72.0387 399.886 71.812 400.327 71.6376C400.769 71.4515 401.263 71.3585 401.81 71.3585C402.682 71.3585 403.409 71.5562 403.99 71.9515C404.572 72.3353 405.013 72.8469 405.316 73.4864C405.618 74.1143 405.769 74.8004 405.769 75.5446C405.769 76.3934 405.583 77.1492 405.211 77.812C404.851 78.4748 404.339 78.998 403.676 79.3818C403.025 79.7655 402.269 79.9573 401.409 79.9573ZM410.01 73.5387C409.452 73.5387 408.946 73.4167 408.492 73.1725C408.039 72.9167 407.678 72.5562 407.411 72.0911C407.143 71.626 407.01 71.0736 407.01 70.4341C407.01 69.7946 407.143 69.2422 407.411 68.7771C407.678 68.312 408.039 67.9573 408.492 67.7132C408.946 67.4573 409.457 67.3294 410.027 67.3294C410.585 67.3294 411.085 67.4573 411.527 67.7132C411.981 67.9573 412.341 68.312 412.609 68.7771C412.876 69.2422 413.01 69.7946 413.01 70.4341C413.01 71.0736 412.876 71.626 412.609 72.0911C412.341 72.5562 411.981 72.9167 411.527 73.1725C411.074 73.4167 410.568 73.5387 410.01 73.5387ZM409.347 79.748L416.236 67.5387H418.417L411.527 79.748H409.347ZM410.01 71.9864C410.347 71.9864 410.638 71.8585 410.882 71.6027C411.126 71.3353 411.248 70.9457 411.248 70.4341C411.248 69.9225 411.126 69.5329 410.882 69.2655C410.649 68.998 410.359 68.8643 410.01 68.8643C409.661 68.8643 409.364 68.998 409.12 69.2655C408.888 69.5329 408.771 69.9225 408.771 70.4341C408.771 70.9457 408.888 71.3353 409.12 71.6027C409.364 71.8585 409.661 71.9864 410.01 71.9864ZM417.824 79.9573C417.266 79.9573 416.76 79.8353 416.306 79.5911C415.853 79.3353 415.492 78.9748 415.225 78.5097C414.957 78.0446 414.824 77.4922 414.824 76.8527C414.824 76.2132 414.957 75.6667 415.225 75.2132C415.492 74.748 415.853 74.3934 416.306 74.1492C416.76 73.8934 417.271 73.7655 417.841 73.7655C418.399 73.7655 418.899 73.8934 419.341 74.1492C419.795 74.3934 420.155 74.748 420.423 75.2132C420.69 75.6667 420.824 76.2132 420.824 76.8527C420.824 77.4922 420.69 78.0446 420.423 78.5097C420.155 78.9748 419.795 79.3353 419.341 79.5911C418.899 79.8353 418.393 79.9573 417.824 79.9573ZM417.824 78.405C418.173 78.405 418.463 78.2771 418.696 78.0213C418.94 77.7539 419.062 77.3643 419.062 76.8527C419.062 76.3411 418.94 75.9515 418.696 75.6841C418.463 75.4167 418.173 75.2829 417.824 75.2829C417.475 75.2829 417.178 75.4167 416.934 75.6841C416.702 75.9515 416.585 76.3411 416.585 76.8527C416.585 77.3643 416.702 77.7539 416.934 78.0213C417.178 78.2771 417.475 78.405 417.824 78.405Z" fill="#500124"/>
<line x1="526.516" y1="85" x2="526.516" y2="41" stroke="#500124" stroke-width="0.968992"/>
<path d="M627 51C620.4 51 615 56.4096 615 63.0723C615 69.0964 619.392 74.0964 625.128 75V66.5663H622.08V63.0723H625.128V60.4096C625.128 57.3855 626.916 55.7229 629.664 55.7229C630.972 55.7229 632.34 55.9518 632.34 55.9518V58.9277H630.828C629.34 58.9277 628.872 59.8554 628.872 60.8072V63.0723H632.208L631.668 66.5663H628.872V75C631.7 74.5516 634.275 73.103 636.132 70.9157C637.989 68.7284 639.006 65.9466 639 63.0723C639 56.4096 633.6 51 627 51Z" fill="#FF1A66"/>
<circle cx="650.876" cy="54.748" r="3.87597" fill="#FF1A66"/>
<path d="M660.578 58.748V50.6085H665.682V51.6085H661.81V54.1783H665.019V55.1667H661.81V58.748H660.578ZM668.123 58.8876C667.634 58.8876 667.231 58.8062 666.913 58.6434C666.596 58.4806 666.359 58.2674 666.204 58.0039C666.049 57.7325 665.972 57.438 665.972 57.1201C665.972 56.562 666.189 56.1201 666.623 55.7946C667.057 55.469 667.677 55.3062 668.483 55.3062H669.995V55.2015C669.995 54.7519 669.871 54.4147 669.623 54.1899C669.382 53.9651 669.068 53.8527 668.681 53.8527C668.34 53.8527 668.041 53.938 667.785 54.1085C667.537 54.2713 667.386 54.5155 667.332 54.8411H666.099C666.138 54.4225 666.278 54.0659 666.518 53.7713C666.766 53.469 667.076 53.2403 667.448 53.0853C667.828 52.9225 668.243 52.8411 668.692 52.8411C669.499 52.8411 670.123 53.0542 670.565 53.4806C671.006 53.8992 671.227 54.4729 671.227 55.2015V58.748H670.158L670.053 57.7597C669.89 58.0775 669.654 58.3449 669.344 58.562C669.034 58.7791 668.627 58.8876 668.123 58.8876ZM668.367 57.8876C668.7 57.8876 668.979 57.8101 669.204 57.655C669.437 57.4922 669.615 57.2791 669.739 57.0155C669.871 56.7519 669.952 56.4612 669.983 56.1434H668.611C668.123 56.1434 667.774 56.2287 667.565 56.3992C667.363 56.5698 667.262 56.7829 667.262 57.0387C667.262 57.3023 667.359 57.5116 667.553 57.6667C667.754 57.8139 668.026 57.8876 668.367 57.8876ZM675.164 58.8876C674.599 58.8876 674.091 58.7597 673.641 58.5039C673.199 58.248 672.851 57.8953 672.595 57.4457C672.347 56.9884 672.223 56.4612 672.223 55.8643C672.223 55.2674 672.347 54.7442 672.595 54.2946C672.851 53.8372 673.199 53.4806 673.641 53.2248C674.091 52.969 674.599 52.8411 675.164 52.8411C675.878 52.8411 676.475 53.0271 676.955 53.3992C677.444 53.7713 677.757 54.2752 677.897 54.9108H676.606C676.529 54.593 676.358 54.3449 676.095 54.1667C675.831 53.9884 675.521 53.8992 675.164 53.8992C674.862 53.8992 674.583 53.9767 674.327 54.1318C674.071 54.2791 673.866 54.5 673.711 54.7946C673.556 55.0814 673.478 55.438 673.478 55.8643C673.478 56.2907 673.556 56.6511 673.711 56.9457C673.866 57.2325 674.071 57.4535 674.327 57.6085C674.583 57.7636 674.862 57.8411 675.164 57.8411C675.521 57.8411 675.831 57.7519 676.095 57.5736C676.358 57.3953 676.529 57.1434 676.606 56.8178H677.897C677.765 57.438 677.455 57.938 676.967 58.3178C676.478 58.6977 675.878 58.8876 675.164 58.8876ZM681.699 58.8876C681.133 58.8876 680.629 58.7636 680.187 58.5155C679.753 58.2597 679.412 57.907 679.164 57.4573C678.916 57.0077 678.792 56.4845 678.792 55.8876C678.792 55.2829 678.912 54.7519 679.152 54.2946C679.4 53.8372 679.742 53.4806 680.176 53.2248C680.618 52.969 681.129 52.8411 681.711 52.8411C682.276 52.8411 682.769 52.969 683.187 53.2248C683.606 53.4729 683.931 53.8062 684.164 54.2248C684.397 54.6434 684.513 55.1046 684.513 55.6085C684.513 55.686 684.509 55.7713 684.501 55.8643C684.501 55.9496 684.497 56.0465 684.49 56.155H680.001C680.04 56.7132 680.222 57.1395 680.548 57.4341C680.881 57.7209 681.265 57.8643 681.699 57.8643C682.048 57.8643 682.338 57.7868 682.571 57.6318C682.811 57.469 682.99 57.2519 683.106 56.9806H684.338C684.183 57.5232 683.873 57.9767 683.408 58.3411C682.951 58.7054 682.381 58.8876 681.699 58.8876ZM681.699 53.8527C681.288 53.8527 680.924 53.9767 680.606 54.2248C680.288 54.4651 680.094 54.8294 680.024 55.3178H683.28C683.257 54.8682 683.098 54.5116 682.804 54.248C682.509 53.9845 682.141 53.8527 681.699 53.8527ZM688.803 58.8876C688.354 58.8876 687.955 58.7984 687.606 58.6201C687.265 58.4418 686.993 58.1899 686.792 57.8643L686.664 58.748H685.559V50.376H686.792V53.876C686.978 53.6046 687.234 53.3643 687.559 53.155C687.885 52.9457 688.303 52.8411 688.815 52.8411C689.373 52.8411 689.865 52.9729 690.292 53.2364C690.718 53.5 691.051 53.8604 691.292 54.3178C691.54 54.7752 691.664 55.2946 691.664 55.876C691.664 56.4573 691.54 56.9767 691.292 57.4341C691.051 57.8837 690.718 58.2403 690.292 58.5039C689.865 58.7597 689.369 58.8876 688.803 58.8876ZM688.594 57.8178C689.121 57.8178 689.555 57.6395 689.896 57.2829C690.237 56.9186 690.408 56.4457 690.408 55.8643C690.408 55.4845 690.331 55.1473 690.175 54.8527C690.02 54.5581 689.807 54.3294 689.536 54.1667C689.265 53.9961 688.951 53.9108 688.594 53.9108C688.067 53.9108 687.633 54.093 687.292 54.4573C686.958 54.8217 686.792 55.2907 686.792 55.8643C686.792 56.4457 686.958 56.9186 687.292 57.2829C687.633 57.6395 688.067 57.8178 688.594 57.8178ZM695.462 58.8876C694.912 58.8876 694.416 58.7636 693.974 58.5155C693.54 58.2597 693.195 57.907 692.939 57.4573C692.683 57 692.555 56.469 692.555 55.8643C692.555 55.2597 692.683 54.7325 692.939 54.2829C693.202 53.8256 693.555 53.4729 693.997 53.2248C694.439 52.969 694.931 52.8411 695.474 52.8411C696.024 52.8411 696.516 52.969 696.95 53.2248C697.392 53.4729 697.741 53.8256 697.997 54.2829C698.261 54.7325 698.392 55.2597 698.392 55.8643C698.392 56.469 698.261 57 697.997 57.4573C697.741 57.907 697.392 58.2597 696.95 58.5155C696.509 58.7636 696.012 58.8876 695.462 58.8876ZM695.462 57.8294C695.757 57.8294 696.028 57.7558 696.276 57.6085C696.532 57.4612 696.737 57.2442 696.892 56.9573C697.047 56.6628 697.125 56.2984 697.125 55.8643C697.125 55.4302 697.047 55.0698 696.892 54.7829C696.745 54.4884 696.543 54.2674 696.288 54.1201C696.04 53.9729 695.768 53.8992 695.474 53.8992C695.179 53.8992 694.904 53.9729 694.648 54.1201C694.4 54.2674 694.199 54.4884 694.043 54.7829C693.888 55.0698 693.811 55.4302 693.811 55.8643C693.811 56.2984 693.888 56.6628 694.043 56.9573C694.199 57.2442 694.4 57.4612 694.648 57.6085C694.896 57.7558 695.167 57.8294 695.462 57.8294ZM702.19 58.8876C701.64 58.8876 701.144 58.7636 700.702 58.5155C700.268 58.2597 699.923 57.907 699.667 57.4573C699.411 57 699.283 56.469 699.283 55.8643C699.283 55.2597 699.411 54.7325 699.667 54.2829C699.931 53.8256 700.283 53.4729 700.725 53.2248C701.167 52.969 701.659 52.8411 702.202 52.8411C702.752 52.8411 703.245 52.969 703.679 53.2248C704.121 53.4729 704.469 53.8256 704.725 54.2829C704.989 54.7325 705.121 55.2597 705.121 55.8643C705.121 56.469 704.989 57 704.725 57.4573C704.469 57.907 704.121 58.2597 703.679 58.5155C703.237 58.7636 702.741 58.8876 702.19 58.8876ZM702.19 57.8294C702.485 57.8294 702.756 57.7558 703.004 57.6085C703.26 57.4612 703.466 57.2442 703.621 56.9573C703.776 56.6628 703.853 56.2984 703.853 55.8643C703.853 55.4302 703.776 55.0698 703.621 54.7829C703.473 54.4884 703.272 54.2674 703.016 54.1201C702.768 53.9729 702.497 53.8992 702.202 53.8992C701.907 53.8992 701.632 53.9729 701.376 54.1201C701.128 54.2674 700.927 54.4884 700.772 54.7829C700.617 55.0698 700.539 55.4302 700.539 55.8643C700.539 56.2984 700.617 56.6628 700.772 56.9573C700.927 57.2442 701.128 57.4612 701.376 57.6085C701.624 57.7558 701.896 57.8294 702.19 57.8294ZM706.221 58.748V50.376H707.454V55.3643L709.663 52.9806H711.14L708.686 55.5969L711.5 58.748H709.942L707.454 55.7946V58.748H706.221Z" fill="#8D8385"/>
<path d="M662.619 79.748V78.126C663.363 77.5097 664.084 76.8992 664.782 76.2946C665.491 75.6899 666.119 75.0911 666.665 74.498C667.224 73.905 667.665 73.3294 667.991 72.7713C668.328 72.2015 668.497 71.6492 668.497 71.1143C668.497 70.6143 668.357 70.1725 668.078 69.7887C667.811 69.405 667.363 69.2132 666.735 69.2132C666.096 69.2132 665.613 69.4225 665.288 69.8411C664.962 70.2597 664.799 70.7655 664.799 71.3585H662.636C662.66 70.4632 662.857 69.719 663.229 69.126C663.601 68.5213 664.096 68.0736 664.712 67.7829C665.328 67.4806 666.02 67.3294 666.788 67.3294C668.032 67.3294 668.997 67.6725 669.683 68.3585C670.381 69.0329 670.729 69.9108 670.729 70.9922C670.729 71.6667 670.572 72.3236 670.258 72.9632C669.956 73.6027 669.555 74.219 669.055 74.812C668.555 75.405 668.014 75.9632 667.433 76.4864C666.851 76.998 666.288 77.4748 665.741 77.9167H671.026V79.748H662.619ZM676.909 79.9573C676.013 79.9573 675.24 79.8004 674.589 79.4864C673.95 79.1725 673.444 78.7422 673.072 78.1957C672.711 77.6376 672.502 77.0097 672.444 76.312H674.624C674.729 76.812 674.984 77.2306 675.391 77.5678C675.798 77.8934 676.304 78.0562 676.909 78.0562C677.56 78.0562 678.089 77.8178 678.496 77.3411C678.915 76.8643 679.124 76.2713 679.124 75.562C679.124 74.8294 678.915 74.248 678.496 73.8178C678.089 73.3876 677.572 73.1725 676.944 73.1725C676.42 73.1725 675.967 73.3004 675.583 73.5562C675.2 73.812 674.926 74.1318 674.763 74.5155H672.618L673.665 67.5387H680.432V69.4922H675.339L674.781 72.3178C675.037 72.0387 675.386 71.812 675.827 71.6376C676.269 71.4515 676.763 71.3585 677.31 71.3585C678.182 71.3585 678.909 71.5562 679.49 71.9515C680.072 72.3353 680.513 72.8469 680.816 73.4864C681.118 74.1143 681.269 74.8004 681.269 75.5446C681.269 76.3934 681.083 77.1492 680.711 77.812C680.351 78.4748 679.839 78.998 679.176 79.3818C678.525 79.7655 677.769 79.9573 676.909 79.9573ZM685.51 73.5387C684.952 73.5387 684.446 73.4167 683.992 73.1725C683.539 72.9167 683.178 72.5562 682.911 72.0911C682.643 71.626 682.51 71.0736 682.51 70.4341C682.51 69.7946 682.643 69.2422 682.911 68.7771C683.178 68.312 683.539 67.9573 683.992 67.7132C684.446 67.4573 684.957 67.3294 685.527 67.3294C686.085 67.3294 686.585 67.4573 687.027 67.7132C687.481 67.9573 687.841 68.312 688.109 68.7771C688.376 69.2422 688.51 69.7946 688.51 70.4341C688.51 71.0736 688.376 71.626 688.109 72.0911C687.841 72.5562 687.481 72.9167 687.027 73.1725C686.574 73.4167 686.068 73.5387 685.51 73.5387ZM684.847 79.748L691.736 67.5387H693.917L687.027 79.748H684.847ZM685.51 71.9864C685.847 71.9864 686.138 71.8585 686.382 71.6027C686.626 71.3353 686.748 70.9457 686.748 70.4341C686.748 69.9225 686.626 69.5329 686.382 69.2655C686.149 68.998 685.859 68.8643 685.51 68.8643C685.161 68.8643 684.864 68.998 684.62 69.2655C684.388 69.5329 684.271 69.9225 684.271 70.4341C684.271 70.9457 684.388 71.3353 684.62 71.6027C684.864 71.8585 685.161 71.9864 685.51 71.9864ZM693.324 79.9573C692.766 79.9573 692.26 79.8353 691.806 79.5911C691.353 79.3353 690.992 78.9748 690.725 78.5097C690.457 78.0446 690.324 77.4922 690.324 76.8527C690.324 76.2132 690.457 75.6667 690.725 75.2132C690.992 74.748 691.353 74.3934 691.806 74.1492C692.26 73.8934 692.771 73.7655 693.341 73.7655C693.899 73.7655 694.399 73.8934 694.841 74.1492C695.295 74.3934 695.655 74.748 695.923 75.2132C696.19 75.6667 696.324 76.2132 696.324 76.8527C696.324 77.4922 696.19 78.0446 695.923 78.5097C695.655 78.9748 695.295 79.3353 694.841 79.5911C694.399 79.8353 693.893 79.9573 693.324 79.9573ZM693.324 78.405C693.673 78.405 693.963 78.2771 694.196 78.0213C694.44 77.7539 694.562 77.3643 694.562 76.8527C694.562 76.3411 694.44 75.9515 694.196 75.6841C693.963 75.4167 693.673 75.2829 693.324 75.2829C692.975 75.2829 692.678 75.4167 692.434 75.6841C692.202 75.9515 692.085 76.3411 692.085 76.8527C692.085 77.3643 692.202 77.7539 692.434 78.0213C692.678 78.2771 692.975 78.405 693.324 78.405Z" fill="#500124"/>
</g>
<defs>
<filter id="filter0_d_320_687" x="-11" y="0" width="800" height="152" filterUnits="userSpaceOnUse" color-interpolation-filters="sRGB">
<feFlood flood-opacity="0" result="BackgroundImageFix"/>
<feColorMatrix in="SourceAlpha" type="matrix" values="0 0 0 0 0 0 0 0 0 0 0 0 0 0 0 0 0 0 127 0" result="hardAlpha"/>
<feOffset dy="12"/>
<feGaussianBlur stdDeviation="20"/>
<feColorMatrix type="matrix" values="0 0 0 0 0 0 0 0 0 0 0 0 0 0 0 0 0 0 0.2 0"/>
<feBlend mode="normal" in2="BackgroundImageFix" result="effect1_dropShadow_320_687"/>
<feBlend mode="normal" in="SourceGraphic" in2="effect1_dropShadow_320_687" result="shape"/>
</filter>
</defs>
</svg>
