<svg width="108" height="106" viewBox="0 0 108 106" fill="none" xmlns="http://www.w3.org/2000/svg">
<path id="Vector" d="M54 0C61.1608 0 68.0284 2.78736 73.0919 7.74889C78.1554 12.7104 81 19.4397 81 26.4564C81 33.473 78.1554 40.2023 73.0919 45.1639C68.0284 50.1254 61.1608 52.9128 54 52.9128C46.8392 52.9128 39.9716 50.1254 34.9081 45.1639C29.8446 40.2023 27 33.473 27 26.4564C27 19.4397 29.8446 12.7104 34.9081 7.74889C39.9716 2.78736 46.8392 0 54 0ZM54 66.1409C83.835 66.1409 108 77.9802 108 92.5973V99.8255C108 103.139 105.314 105.826 102 105.826H6C2.68629 105.826 0 103.139 0 99.8255V92.5973C0 77.9802 24.165 66.1409 54 66.1409Z" fill="#FF1A66"/>
</svg>
