<svg width="83" height="39" viewBox="0 0 83 39" fill="none" xmlns="http://www.w3.org/2000/svg">
<g filter="url(#filter0_d_259_1877)">
<rect x="5.73438" y="2" width="28" height="28" rx="12" fill="white" shape-rendering="crispEdges"/>
<path d="M15.1525 19.9844C14.986 19.4578 15.4477 19 16 19C16.5523 19 17.0026 19.4858 17.3471 19.9174C17.855 20.5535 18.8644 21 20 21C21.63 21 23 20.08 23 19C23 17.9 21.96 17.5 19.76 16.97C17.64 16.44 15 15.78 15 13C15 11.4363 16.1218 10.0787 17.7587 9.42039C18.184 9.24935 18.5 8.85859 18.5 8.40016V8C18.5 7.44772 18.9477 7 19.5 7H20.5C21.0523 7 21.5 7.44772 21.5 8V8.40016C21.5 8.85859 21.816 9.24935 22.2413 9.42039C23.5228 9.93574 24.4885 10.8797 24.8475 12.0156C25.014 12.5422 24.5523 13 24 13C23.4477 13 22.9974 12.5142 22.6529 12.0826C22.145 11.4465 21.1356 11 20 11C18.37 11 17 11.92 17 13C17 14.1 18.04 14.5 20.24 15.03C22.36 15.56 25 16.22 25 19C25 20.5637 23.8782 21.9213 22.2413 22.5796C21.816 22.7507 21.5 23.1414 21.5 23.5998V24C21.5 24.5523 21.0523 25 20.5 25H19.5C18.9477 25 18.5 24.5523 18.5 24V23.5998C18.5 23.1414 18.184 22.7507 17.7587 22.5796C16.4772 22.0643 15.5115 21.1203 15.1525 19.9844Z" fill="#FF1A66"/>
</g>
<path d="M41.9864 20L38.9144 11.6H40.5584L42.9344 18.428L45.3224 11.6H46.9424L43.8704 20H41.9864ZM50.0822 20.144C49.4822 20.144 48.9502 20.016 48.4862 19.76C48.0222 19.504 47.6582 19.144 47.3942 18.68C47.1302 18.216 46.9982 17.68 46.9982 17.072C46.9982 16.456 47.1262 15.908 47.3822 15.428C47.6462 14.948 48.0062 14.576 48.4622 14.312C48.9262 14.04 49.4702 13.904 50.0942 13.904C50.6782 13.904 51.1942 14.032 51.6422 14.288C52.0902 14.544 52.4382 14.896 52.6862 15.344C52.9422 15.784 53.0702 16.276 53.0702 16.82C53.0702 16.908 53.0662 17 53.0582 17.096C53.0582 17.192 53.0542 17.292 53.0462 17.396H48.5222C48.5542 17.86 48.7142 18.224 49.0022 18.488C49.2982 18.752 49.6542 18.884 50.0702 18.884C50.3822 18.884 50.6422 18.816 50.8502 18.68C51.0662 18.536 51.2262 18.352 51.3302 18.128H52.8902C52.7782 18.504 52.5902 18.848 52.3262 19.16C52.0702 19.464 51.7502 19.704 51.3662 19.88C50.9902 20.056 50.5622 20.144 50.0822 20.144ZM50.0942 15.152C49.7182 15.152 49.3862 15.26 49.0982 15.476C48.8102 15.684 48.6262 16.004 48.5462 16.436H51.5102C51.4862 16.044 51.3422 15.732 51.0782 15.5C50.8142 15.268 50.4862 15.152 50.0942 15.152ZM54.362 20V14.048H55.718L55.838 15.056C56.022 14.704 56.286 14.424 56.63 14.216C56.982 14.008 57.394 13.904 57.866 13.904C58.602 13.904 59.174 14.136 59.582 14.6C59.99 15.064 60.194 15.744 60.194 16.64V20H58.658V16.784C58.658 16.272 58.554 15.88 58.346 15.608C58.138 15.336 57.814 15.2 57.374 15.2C56.942 15.2 56.586 15.352 56.306 15.656C56.034 15.96 55.898 16.384 55.898 16.928V20H54.362ZM64.3988 20.144C63.8388 20.144 63.3388 20.008 62.8988 19.736C62.4588 19.464 62.1108 19.092 61.8548 18.62C61.5988 18.148 61.4708 17.612 61.4708 17.012C61.4708 16.412 61.5988 15.88 61.8548 15.416C62.1108 14.944 62.4588 14.576 62.8988 14.312C63.3388 14.04 63.8388 13.904 64.3988 13.904C64.8468 13.904 65.2388 13.988 65.5748 14.156C65.9108 14.324 66.1828 14.56 66.3908 14.864V11.36H67.9268V20H66.5588L66.3908 19.148C66.1988 19.412 65.9428 19.644 65.6228 19.844C65.3108 20.044 64.9028 20.144 64.3988 20.144ZM64.7228 18.8C65.2188 18.8 65.6228 18.636 65.9348 18.308C66.2548 17.972 66.4148 17.544 66.4148 17.024C66.4148 16.504 66.2548 16.08 65.9348 15.752C65.6228 15.416 65.2188 15.248 64.7228 15.248C64.2348 15.248 63.8308 15.412 63.5108 15.74C63.1908 16.068 63.0308 16.492 63.0308 17.012C63.0308 17.532 63.1908 17.96 63.5108 18.296C63.8308 18.632 64.2348 18.8 64.7228 18.8ZM71.5429 20.144C71.0309 20.144 70.6109 20.064 70.2829 19.904C69.9549 19.736 69.7109 19.516 69.5509 19.244C69.3909 18.972 69.3109 18.672 69.3109 18.344C69.3109 17.792 69.5269 17.344 69.9589 17C70.3909 16.656 71.0389 16.484 71.9029 16.484H73.4149V16.34C73.4149 15.932 73.2989 15.632 73.0669 15.44C72.8349 15.248 72.5469 15.152 72.2029 15.152C71.8909 15.152 71.6189 15.228 71.3869 15.38C71.1549 15.524 71.0109 15.74 70.9549 16.028H69.4549C69.4949 15.596 69.6389 15.22 69.8869 14.9C70.1429 14.58 70.4709 14.336 70.8709 14.168C71.2709 13.992 71.7189 13.904 72.2149 13.904C73.0629 13.904 73.7309 14.116 74.2189 14.54C74.7069 14.964 74.9509 15.564 74.9509 16.34V20H73.6429L73.4989 19.04C73.3229 19.36 73.0749 19.624 72.7549 19.832C72.4429 20.04 72.0389 20.144 71.5429 20.144ZM71.8909 18.944C72.3309 18.944 72.6709 18.8 72.9109 18.512C73.1589 18.224 73.3149 17.868 73.3789 17.444H72.0709C71.6629 17.444 71.3709 17.52 71.1949 17.672C71.0189 17.816 70.9309 17.996 70.9309 18.212C70.9309 18.444 71.0189 18.624 71.1949 18.752C71.3709 18.88 71.6029 18.944 71.8909 18.944ZM78.8767 20.144C78.3487 20.144 77.8847 20.06 77.4847 19.892C77.0847 19.716 76.7647 19.476 76.5247 19.172C76.2847 18.868 76.1407 18.516 76.0927 18.116H77.6407C77.6887 18.348 77.8167 18.548 78.0247 18.716C78.2407 18.876 78.5167 18.956 78.8527 18.956C79.1887 18.956 79.4327 18.888 79.5847 18.752C79.7447 18.616 79.8247 18.46 79.8247 18.284C79.8247 18.028 79.7127 17.856 79.4887 17.768C79.2647 17.672 78.9527 17.58 78.5527 17.492C78.2967 17.436 78.0367 17.368 77.7727 17.288C77.5087 17.208 77.2647 17.108 77.0407 16.988C76.8247 16.86 76.6487 16.7 76.5127 16.508C76.3767 16.308 76.3087 16.064 76.3087 15.776C76.3087 15.248 76.5167 14.804 76.9327 14.444C77.3567 14.084 77.9487 13.904 78.7087 13.904C79.4127 13.904 79.9727 14.068 80.3887 14.396C80.8127 14.724 81.0647 15.176 81.1447 15.752H79.6927C79.6047 15.312 79.2727 15.092 78.6967 15.092C78.4087 15.092 78.1847 15.148 78.0247 15.26C77.8727 15.372 77.7967 15.512 77.7967 15.68C77.7967 15.856 77.9127 15.996 78.1447 16.1C78.3767 16.204 78.6847 16.3 79.0687 16.388C79.4847 16.484 79.8647 16.592 80.2087 16.712C80.5607 16.824 80.8407 16.996 81.0487 17.228C81.2567 17.452 81.3607 17.776 81.3607 18.2C81.3687 18.568 81.2727 18.9 81.0727 19.196C80.8727 19.492 80.5847 19.724 80.2087 19.892C79.8327 20.06 79.3887 20.144 78.8767 20.144Z" fill="#B4ACAD"/>
<defs>
<filter id="filter0_d_259_1877" x="0.234375" y="0" width="39" height="39" filterUnits="userSpaceOnUse" color-interpolation-filters="sRGB">
<feFlood flood-opacity="0" result="BackgroundImageFix"/>
<feColorMatrix in="SourceAlpha" type="matrix" values="0 0 0 0 0 0 0 0 0 0 0 0 0 0 0 0 0 0 127 0" result="hardAlpha"/>
<feOffset dy="3.5"/>
<feGaussianBlur stdDeviation="2.75"/>
<feComposite in2="hardAlpha" operator="out"/>
<feColorMatrix type="matrix" values="0 0 0 0 0 0 0 0 0 0 0 0 0 0 0 0 0 0 0.12 0"/>
<feBlend mode="normal" in2="BackgroundImageFix" result="effect1_dropShadow_259_1877"/>
<feBlend mode="normal" in="SourceGraphic" in2="effect1_dropShadow_259_1877" result="shape"/>
</filter>
</defs>
</svg>
